<svg height="480pt" viewBox="0 0 480.04752 480" width="480pt" xmlns="http://www.w3.org/2000/svg"><path d="m312.003906 304.023438v-116.6875l27.3125-27.3125h60.6875c3.335938.003906 6.324219-2.066407 7.496094-5.191407l10.046875-26.808593h38.457031c3.046875.015624 5.839844-1.699219 7.199219-4.421876l16-32c1.242187-2.488281 1.105469-5.441406-.363281-7.804687-1.46875-2.359375-4.054688-3.789063-6.835938-3.773437h-32c-.855468 0-1.703125.136718-2.511718.410156l-7.410157 2.453125c-1.644531-2-4.160156-3.066407-6.742187-2.863281l-95.222656 8-32.976563-3.664063-31.703125-79.28125c-1.207031-3.046875-4.152344-5.0507812-7.433594-5.0546875h-32c-3.273437-.0039063-6.214844 1.9882815-7.433594 5.0234375l-31.382812 78.472656-28.839844 2.625-20.304687 1.878907-79.199219-7.925782c-2.617188-.25-5.191406.808594-6.878906 2.820313l-7.410156-2.453125c-.820313-.289063-1.683594-.4375-2.550782-.441406h-32c-2.773437 0-5.347656 1.433593-6.808594 3.792968-1.457031 2.355469-1.589843 5.304688-.351562 7.785156l16 32c1.355469 2.710938 4.128906 4.421876 7.160156 4.421876h38.457032l10.046874 26.808593c1.171876 3.125 4.160157 5.195313 7.496094 5.191407h60.6875l27.3125 27.3125v246.917968l-18.527344 6.179688c-3.269531 1.085937-5.472656 4.144531-5.472656 7.589844v24c0 4.417968 3.582032 8 8 8h176c4.417969 0 8-3.582032 8-8v-24c0-3.445313-2.203125-6.503907-5.472656-7.589844l-18.527344-6.179688zm115.878906-203.550782 13.410157-4.449218h17.765625l-8 16h-27.511719zm-398.933593 11.550782-8-16h17.765625l13.410156 4.449218 4.335938 11.550782zm251.054687 144v-157.289063l16 1.785156v187.503907l-16-12zm0 40 16 12v14.320312l-16-9zm0 35.679687 16 9v91.320313h-16zm-16-265.28125 4.214844-6.335937 8.890625 22.210937-13.105469-1.433594zm-34.585937-50.398437h21.167969l10.402343 26.0625-9.265625 13.9375h-3.71875v-24c0-4.417969-3.582031-8-8-8h-13.785156zm18.585937 56v12.6875l-8 8-8-8v-12.6875zm-28.183594-32h12.183594v16h-3.71875l-9.289062-13.9375zm-8 20.089843 4.183594 6.308594v14.273437l-12.929687 1.175782zm9.207032 36.222657 13.351562 13.34375c3.125 3.125 8.1875 3.125 11.3125 0l13.28125-13.28125 5.0625.5625v31.0625h-27.070312c-24.109375.027343-47.164063-9.859376-63.761719-27.34375zm-37.023438 163.007812v-6.398438l23.648438-11.824218 36.230468 21.734375c1.242188.757812 2.667969 1.160156 4.121094 1.167969h16v40.320312zm80 63.359375v109.320313h-16v-118.320313zm-32-18v127.320313h-16v-136.320313zm-32-18v145.320313h-16v-154.320313zm-16-51.625v-105.597656c5.105469 2.996093 10.457032 5.550781 16 7.632812v89.964844zm66.214844 12.945313-34.214844-20.527344v-13.34375l27.878906 16.726562c1.246094.75 2.667969 1.144532 4.121094 1.144532h16v16zm0-32-34.214844-20.527344v-18.824219l27 21.601563c1.417969 1.132812 3.183594 1.75 5 1.75h16v16zm.59375-32-34.808594-27.847657v-14.359375c6.894532 1.445313 13.917969 2.183594 20.960938 2.207032h27.039062v40zm-101.152344-37.65625c-1.5-1.5-3.535156-2.34375-5.65625-2.34375h-58.457031l-17.542969-46.757813 67.199219 6.71875c.507813.042969 1.019531.042969 1.527344 0l16.875-1.5625 3.453125 4.144531c3.367187 3.976563 7.023437 7.699219 10.945312 11.128906v47.015626zm170.34375 307.425781v10.230469h-160v-10.230469l17.296875-5.769531h125.40625zm-8-289.074219v-62.398438l15.128906 1.679688c.511719.050781 1.03125.050781 1.542969 0l83.40625-6.953125-17.621093 46.976563h-58.457032c-2.121094 0-4.15625.84375-5.65625 2.34375zm0 0"/></svg>