<svg height="480pt" viewBox="0 -16 480 480" width="480pt" xmlns="http://www.w3.org/2000/svg"><path d="m430.511719 155.351562c-.070313-.09375-.183594-.144531-.253907-.238281-.566406-.757812-1.261718-1.40625-2.050781-1.921875l-.078125-.039062c-.765625-.441406-1.597656-.75-2.464844-.921875-.230468-.046875-.449218-.085938-.679687-.117188-.882813-.121093-1.78125-.097656-2.65625.070313-.097656 0-.175781.074218-.273437.097656-.550782.128906-1.085938.316406-1.597657.558594-68.296875 33.945312-148.550781 33.945312-216.847656 0-.394531-.171875-.800781-.3125-1.21875-.425782-.160156-.046874-.300781-.117187-.46875-.15625-.875-.210937-1.773437-.269531-2.664063-.179687-.199218.023437-.398437.058594-.59375.105469-.839843.132812-1.648437.402344-2.398437.800781-.089844.023437-.179687.054687-.265625.085937l-84 48.992188v-2.0625c0-4.417969-3.582031-8-8-8s-8 3.582031-8 8v8h-64v-8c0-4.417969-3.582031-8-8-8s-8 3.582031-8 8v8h-16v16h16v48h-8c-4.417969 0-8 3.582031-8 8v160c0 4.417969 3.582031 8 8 8h464c4.417969 0 8-3.582031 8-8v-192c0-2.484375-1.15625-4.828125-3.128906-6.34375-1.96875-1.515625-4.535156-2.027344-6.933594-1.382812l-22.289062 5.964843c-.773438-3.613281-3.953126-6.203125-7.648438-6.238281h-8v-16h48v-16h-11.878906zm1.488281 100.648438v16h-16v-16zm-32-77.105469c5.382812-1.941406 10.734375-4 16-6.308593v35.414062h-16zm-32 9.25c5.367188-1.183593 10.703125-2.558593 16-4.089843v23.945312h-16zm-32 4.984375c5.351562-.488281 10.6875-1.105468 16-1.929687v16.800781h-16zm-32 .960938c5.332031.15625 10.667969.15625 16 0v13.910156h-16zm-32-2.890625c5.3125.800781 10.648438 1.441406 16 1.929687v14.871094h-16zm-32-7.144531c5.296875 1.53125 10.632812 2.90625 16 4.089843v19.855469h-16zm-32-11.46875c5.265625 2.308593 10.617188 4.367187 16 6.308593v29.105469h-16zm0 51.414062h208v16h-8c-4.417969 0-8 3.582031-8 8v10.894531l-5.425781 1.449219-39-19.542969c-1.894531-.957031-4.09375-1.109375-6.101563-.425781l-94.761718 31.625h-30.710938v-24c0-4.417969-3.582031-8-8-8h-8zm163.257812 42.574219-20.320312 5.425781h-45.601562l46.089843-15.359375zm-163.257812-10.574219v16h-16v-16zm-16-82.0625v34.0625h-16v-24c-.03125-.222656-.078125-.441406-.136719-.65625zm-32 18.664062v15.398438h-26.398438zm-48 31.398438h80v16h-8c-4.417969 0-8 3.582031-8 8v24h-64zm-80 0h64v15.527344c-20.136719-10.101563-43.863281-10.101563-64 0zm0 34.273438c19.171875-13.578126 44.828125-13.578126 64 0v13.726562h-64zm416 4.429687 16-4.277344v13.574219h-16zm-8 25.296875h24v144h-448v-27.054688l4.425781 2.214844c2.25 1.125 4.898438 1.125 7.148438 0l12.425781-6.214844 12.425781 6.214844c2.25 1.125 4.898438 1.125 7.148438 0l16-8c3.957031-1.976562 5.5625-6.78125 3.585937-10.734375-1.976562-3.957031-6.78125-5.5625-10.734375-3.585937l-12.425781 6.214844-12.425781-6.214844c-2.25-1.125-4.898438-1.125-7.148438 0l-12.425781 6.214844-8-4v-62.109376l4.425781 2.214844c2.25 1.125 4.898438 1.125 7.148438 0l12.425781-6.214844 12.425781 6.214844c2.25 1.125 4.898438 1.125 7.148438 0l16-8c3.957031-1.976562 5.5625-6.78125 3.585937-10.734375-1.976562-3.957031-6.78125-5.5625-10.734375-3.585937l-12.425781 6.214844-12.425781-6.214844c-2.25-1.125-4.898438-1.125-7.148438 0l-12.425781 6.214844-8-4v-19.054688zm-8-80v-23.03125l16.457031 23.03125zm0 0"/><path d="m464 88c4.417969 0 8-3.582031 8-8v-16c-.011719-10.394531-6.703125-19.605469-16.585938-22.832031-3.3125-19.179688-19.949218-33.191407-39.414062-33.191407s-36.101562 14.011719-39.414062 33.191407c-9.882813 3.226562-16.574219 12.4375-16.585938 22.832031v16c0 4.417969 3.582031 8 8 8zm-88-24c0-4.417969 3.582031-8 8-8s8-3.582031 8-8c0-13.253906 10.746094-24 24-24s24 10.746094 24 24c0 4.417969 3.582031 8 8 8s8 3.582031 8 8v8h-80zm0 0"/><path d="m8 96h41.398438c-.917969 2.566406-1.390626 5.273438-1.398438 8v16c0 4.417969 3.582031 8 8 8h96c4.417969 0 8-3.582031 8-8v-16c-.011719-10.394531-6.703125-19.605469-16.585938-22.832031-1.761718-10.804688-7.925781-20.394531-17.023437-26.484375s-20.3125-8.132813-30.976563-5.644532c-3.382812-19.128906-20.023437-33.066406-39.453124-33.03125-19.425782.03125-36.023438 14.015626-39.34375 33.160157-9.894532 3.214843-16.601563 12.429687-16.617188 22.832031v16c0 4.417969 3.582031 8 8 8zm96-32c13.253906 0 24 10.746094 24 24 0 4.417969 3.582031 8 8 8s8 3.582031 8 8v8h-80v-8c0-4.417969 3.582031-8 8-8s8-3.582031 8-8c0-13.253906 10.746094-24 24-24zm-88 8c0-4.417969 3.582031-8 8-8s8-3.582031 8-8c0-13.253906 10.746094-24 24-24s24 10.746094 24 24v.160156c-7.769531 5.839844-13.140625 14.320313-15.105469 23.839844h-48.894531zm0 0"/><path d="m208 64c0 17.671875 14.328125 32 32 32s32-14.328125 32-32-14.328125-32-32-32-32 14.328125-32 32zm32-16c8.835938 0 16 7.164062 16 16s-7.164062 16-16 16-16-7.164062-16-16 7.164062-16 16-16zm0 0"/><path d="m232 0h16v16h-16zm0 0"/><path d="m189.089844 24.398438 11.316406-11.308594 11.308594 11.316406-11.316406 11.308594zm0 0"/><path d="m176 56h16v16h-16zm0 0"/><path d="m189.082031 103.601562 11.308594-11.316406 11.320313 11.308594-11.3125 11.316406zm0 0"/><path d="m232 112h16v16h-16zm0 0"/><path d="m268.273438 103.597656 11.320312-11.308594 11.308594 11.316407-11.316406 11.308593zm0 0"/><path d="m288 56h16v16h-16zm0 0"/><path d="m268.273438 24.40625 11.3125-11.316406 11.316406 11.308594-11.308594 11.316406zm0 0"/><path d="m252.425781 344.839844-12.425781 6.214844-12.425781-6.214844c-2.25-1.125-4.898438-1.125-7.148438 0l-12.425781 6.214844-12.425781-6.214844c-3.953125-1.976563-8.757813-.371094-10.734375 3.585937-1.976563 3.953125-.371094 8.757813 3.585937 10.734375l16 8c2.25 1.125 4.898438 1.125 7.148438 0l12.425781-6.214844 12.425781 6.214844c2.25 1.125 4.898438 1.125 7.148438 0l16-8c3.957031-1.976562 5.5625-6.78125 3.585937-10.734375-1.976562-3.957031-6.78125-5.5625-10.734375-3.585937zm0 0"/><path d="m395.574219 344.839844c-2.25-1.125-4.898438-1.125-7.148438 0l-12.425781 6.214844-12.425781-6.214844c-3.953125-1.976563-8.757813-.371094-10.734375 3.585937-1.976563 3.953125-.371094 8.757813 3.585937 10.734375l16 8c2.25 1.125 4.898438 1.125 7.148438 0l12.425781-6.214844 12.425781 6.214844c2.25 1.125 4.898438 1.125 7.148438 0l16-8c3.957031-1.976562 5.5625-6.78125 3.585937-10.734375-1.976562-3.957031-6.78125-5.5625-10.734375-3.585937l-12.425781 6.214844zm0 0"/><path d="m284.425781 319.199219 16 8c2.25 1.125 4.898438 1.125 7.148438 0l12.425781-6.253907 12.425781 6.214844c2.25 1.125 4.898438 1.125 7.148438 0l16-8c3.957031-1.976562 5.5625-6.78125 3.585937-10.734375-1.976562-3.957031-6.78125-5.5625-10.734375-3.585937l-12.425781 6.214844-12.425781-6.214844c-2.25-1.125-4.898438-1.125-7.148438 0l-12.425781 6.214844-12.425781-6.214844c-3.953125-1.976563-8.757813-.371094-10.734375 3.585937-1.976563 3.953125-.371094 8.757813 3.585937 10.734375zm0 0"/><path d="m188.425781 384.839844-12.425781 6.214844-12.425781-6.214844c-2.25-1.125-4.898438-1.125-7.148438 0l-12.425781 6.214844-12.425781-6.214844c-3.953125-1.976563-8.757813-.371094-10.734375 3.585937-1.976563 3.953125-.371094 8.757813 3.585937 10.734375l16 8c2.25 1.125 4.898438 1.125 7.148438 0l12.425781-6.214844 12.425781 6.214844c2.25 1.125 4.898438 1.125 7.148438 0l16-8c3.957031-1.976562 5.5625-6.78125 3.585937-10.734375-1.976562-3.957031-6.78125-5.5625-10.734375-3.585937zm0 0"/><path d="m340.425781 384.839844-12.425781 6.214844-12.425781-6.214844c-2.25-1.125-4.898438-1.125-7.148438 0l-12.425781 6.214844-12.425781-6.214844c-3.953125-1.976563-8.757813-.371094-10.734375 3.585937-1.976563 3.953125-.371094 8.757813 3.585937 10.734375l16 8c2.25 1.125 4.898438 1.125 7.148438 0l12.425781-6.214844 12.425781 6.214844c2.25 1.125 4.898438 1.125 7.148438 0l16-8c3.957031-1.976562 5.5625-6.78125 3.585937-10.734375-1.976562-3.957031-6.78125-5.5625-10.734375-3.585937zm0 0"/><path d="m139.574219 359.199219c3.957031-1.972657 5.5625-6.78125 3.585937-10.734375-1.976562-3.957032-6.78125-5.558594-10.734375-3.585938l-12.425781 6.175782-12.425781-6.214844c-2.25-1.125-4.898438-1.125-7.148438 0l-12.425781 6.214844-12.425781-6.214844c-3.953125-1.976563-8.757813-.371094-10.734375 3.585937-1.976563 3.953125-.371094 8.757813 3.585937 10.734375l16 8c2.25 1.125 4.898438 1.125 7.148438 0l12.425781-6.214844 12.425781 6.214844c2.25 1.125 4.898438 1.125 7.148438 0zm0 0"/><path d="m124.425781 319.199219 16 8c2.25 1.125 4.898438 1.125 7.148438 0l12.425781-6.253907 12.425781 6.214844c2.25 1.125 4.898438 1.125 7.148438 0l16-8c3.957031-1.976562 5.5625-6.78125 3.585937-10.734375-1.976562-3.957031-6.78125-5.5625-10.734375-3.585937l-12.425781 6.214844-12.425781-6.214844c-2.25-1.125-4.898438-1.125-7.148438 0l-12.425781 6.214844-12.425781-6.214844c-3.953125-1.976563-8.757813-.371094-10.734375 3.585937-1.976563 3.953125-.371094 8.757813 3.585937 10.734375zm0 0"/></svg>