<svg height="480pt" viewBox="0 0 480 480" width="480pt" xmlns="http://www.w3.org/2000/svg"><path d="m463.414062 129.167969c-1.761718-10.804688-7.925781-20.394531-17.023437-26.484375s-20.3125-8.132813-30.976563-5.644532c-3.382812-19.128906-20.023437-33.066406-39.453124-33.03125-19.425782.03125-36.023438 14.015626-39.34375 33.160157-9.894532 3.214843-16.601563 12.429687-16.617188 22.832031v16c0 4.417969 3.582031 8 8 8h41.398438c-.917969 2.566406-1.390626 5.273438-1.398438 8v16c0 4.417969 3.582031 8 8 8h96c4.417969 0 8-3.582031 8-8v-16c-.011719-10.394531-6.703125-19.605469-16.585938-22.832031zm-127.414062-1.167969v-8c0-4.417969 3.582031-8 8-8s8-3.582031 8-8c0-13.253906 10.746094-24 24-24s24 10.746094 24 24v.160156c-7.769531 5.839844-13.140625 14.320313-15.105469 23.839844zm128 32h-80v-8c0-4.417969 3.582031-8 8-8s8-3.582031 8-8c0-13.253906 10.746094-24 24-24s24 10.746094 24 24c0 4.417969 3.582031 8 8 8s8 3.582031 8 8zm0 0"/><path d="m152 224c4.417969 0 8-3.582031 8-8v-16c-.011719-10.394531-6.703125-19.605469-16.585938-22.832031-3.3125-19.179688-19.949218-33.191407-39.414062-33.191407s-36.101562 14.011719-39.414062 33.191407c-9.882813 3.226562-16.574219 12.4375-16.585938 22.832031v16c0 4.417969 3.582031 8 8 8zm-88-24c0-4.417969 3.582031-8 8-8s8-3.582031 8-8c0-13.253906 10.746094-24 24-24s24 10.746094 24 24c0 4.417969 3.582031 8 8 8s8 3.582031 8 8v8h-80zm0 0"/><path d="m192 416h16v16h-16zm0 0"/><path d="m288 416h16v16h-16zm0 0"/><path d="m472 368h-64c-4.417969 0-8 3.582031-8 8v88h-32v-56c0-4.417969-3.582031-8-8-8h-24v-8c0-4.417969-3.582031-8-8-8h-8v-168c0-4.417969-3.582031-8-8-8h-8v-24c0-4.417969-3.582031-8-8-8h-16v-48c0-4.417969-3.582031-8-8-8v-24c0-.078125-.039062-.136719-.039062-.214844-.011719-.785156-.136719-1.5625-.367188-2.3125l-5.328125-16c-1.714844-5.121094-3.242187-10.402344-4.554687-15.625l-5.710938-22.832031v-31.015625c0-4.417969-3.582031-8-8-8s-8 3.582031-8 8v31.015625l-5.710938 22.839844c-1.3125 5.257812-2.839843 10.511719-4.554687 15.632812l-5.328125 16c-.230469.75-.355469 1.527344-.367188 2.3125v.214844 24c-4.417968 0-8 3.582031-8 8v48h-16.039062c-4.417969 0-8 3.582031-8 8v24h-8c-4.417969 0-8 3.582031-8 8v167.984375h-8c-4.417969 0-8 3.582031-8 8v8h-24c-4.417969 0-8 3.582031-8 8v56h-16v-120c0-.097656-.046875-.167969-.054688-.265625-.015624-.933594-.203124-1.859375-.554687-2.726563-.0625-.175781-.183594-.3125-.261719-.480468-.199218-.464844-.445312-.910156-.730468-1.328125l-24-32c-1.574219-1.914063-3.921876-3.019531-6.398438-3.019531s-4.824219 1.105468-6.398438 3.019531l-9.601562 12.800781v-40c0-.097656-.046875-.167969-.054688-.265625-.015624-.933594-.203124-1.859375-.554687-2.726563-.0625-.175781-.183594-.3125-.261719-.480468-.199218-.464844-.445312-.910156-.730468-1.328125l-24-32c-1.574219-1.914063-3.921876-3.019531-6.398438-3.019531s-4.824219 1.105468-6.398438 3.019531l-24 32c-.285156.417969-.53125.863281-.730468 1.328125-.078125.167968-.199219.304687-.261719.480468-.351563.867188-.5390625 1.792969-.5546875 2.726563 0 .097656-.0546875.167969-.0546875.265625v192c0 4.417969 3.582031 8 8 8h464c4.417969 0 8-3.582031 8-8v-96c0-4.417969-3.582031-8-8-8zm-440-106.664062 8 10.664062h-16zm16 82.664062v120h-32v-176h32zm32-18.664062 8 10.664062h-16zm16 138.664062h-32v-112h32zm64 0h-16v-48h16zm64 0h-16v-16h-16v16h-16v-64h48zm0-104v24h-32v-160h32zm0-152h-16v-16h16zm20.921875-125.457031c1.09375-3.296875 2.125-6.640625 3.078125-10.007813.953125 3.367188 1.984375 6.710938 3.078125 10.007813l1.824219 5.457031h-9.804688zm-4.921875 21.457031h16v16h-16zm16 288v72h-16v-96h16zm8-216c-4.417969 0-8 3.582031-8 8v168h-16v-168c0-4.417969-3.582031-8-8-8v-40h32zm8 16h16v16h-16zm0 168v-136h32v160h-32zm48 48v56h-16v-16h-16v16h-16v-64h48zm32 56h-16v-48h16zm112 0h-48v-80h48zm0 0"/><path d="m432 400h16v16h-16zm0 0"/><path d="m432 432h16v16h-16zm0 0"/></svg>