<svg height="480pt" viewBox="0 -40 480.04752 480" width="480pt" xmlns="http://www.w3.org/2000/svg"><path d="m8.003906 288.027344c-2.773437-.003906-5.347656 1.433594-6.808594 3.789062-1.457031 2.359375-1.589843 5.304688-.351562 7.785156l15.160156 30.3125v62.113282c0 4.417968 3.582032 8 8 8h432c4.417969 0 8-3.582032 8-8v-62.113282l15.199219-30.3125c1.242187-2.484374 1.105469-5.441406-.363281-7.800781s-4.054688-3.789062-6.835938-3.773437h-16v-54.113282l15.199219-30.3125c1.125-2.222656 1.140625-4.84375.039063-7.082031-1.101563-2.234375-3.191407-3.820312-5.636719-4.285156 2.71875-19.628906-1.15625-39.605469-11.007813-56.800781l-15.089844-26.398438-5.792968-23.160156c-2.027344-8.121094-9.324219-13.820312-17.695313-13.820312-8.371093 0-15.667969 5.699218-17.695312 13.820312l-5.792969 23.160156-15.085938 26.398438c-9.855468 17.195312-13.726562 37.171875-11.007812 56.800781-2.449219.464844-4.539062 2.050781-5.640625 4.285156-1.101563 2.238281-1.085937 4.859375.039063 7.082031l10.222656 20.425782h-56.800782l5.523438-22.058594c.597656-2.390625.058594-4.925781-1.460938-6.871094-1.519531-1.941406-3.851562-3.078125-6.316406-3.070312h-10.152344c10.21875-44.1875 2.351563-90.621094-21.847656-128.976563l-16.550781-26.222656-5.753906-22.984375c-2.027344-8.121094-9.324219-13.8203125-17.695313-13.8203125s-15.667968 5.6992185-17.695312 13.8203125l-5.746094 22.984375-15.253906 24c-24.808594 38.945313-32.675782 86.320313-21.792969 131.199219h-11.511719c-2.464844 0-4.789062 1.132812-6.308594 3.078125-1.515624 1.941406-2.050781 4.472656-1.453124 6.863281l5.523437 22.058594h-56.800781l10.238281-20.425782c1.128906-2.222656 1.144531-4.847656.042969-7.085937-1.101563-2.238281-3.191406-3.828125-5.640625-4.289063 2.878906-19.835937-.976563-40.0625-10.945313-57.449218l-15.089844-26.398438-5.789062-23.199218c-2.03125-8.121094-9.328125-13.820313-17.699219-13.820313-8.367187 0-15.664062 5.699219-17.695312 13.820313l-5.789063 23.199218-15.089844 26.398438c-10 17.378906-13.878906 37.605468-11.023437 57.449218-2.453125.460938-4.542969 2.050782-5.644531 4.289063-1.101563 2.238281-1.085938 4.863281.042968 7.085937l15.121094 30.3125v54.113282zm440 96h-16v-32h-16v32h-16v-32h-16v32h-16v-32h-16v32h-16v-48h112zm-34.175781-294.296875c.34375-.902344 1.210937-1.5 2.175781-1.5s1.832032.597656 2.175782 1.5l3.574218 14.296875h-11.503906zm-9.183594 30.296875h22.71875l6.488281 11.359375h-35.695312zm-15.410156 27.359375h53.539063c2.015624 4.054687 3.652343 8.285156 4.894531 12.640625h-63.328125c1.238281-4.355469 2.878906-8.585938 4.894531-12.640625zm-7.527344 28.640625h68.59375c.3125 5.34375.042969 10.710937-.800781 16h-66.992188c-.84375-5.289063-1.113281-10.65625-.800781-16zm69.351563 32-8 16h-54.109375l-8-16zm-43.054688 48v32h-16v-48h48v48h-16v-32zm-80-16h48v16h-48zm48 32v16h-16v-16zm-48 0h16v16h-16zm56 32h75.054688l-8 16h-118.109375l-8-16zm-240 80h-16v-32h-16v32h-16v-32h-16v32h-16v-32h-16v32h-16v-48h112zm112 0h-32v-32h32zm0-48h-32v-2.234375l16-5.335938 16 5.335938zm-13.472656-23.59375c-1.640625-.546875-3.414062-.546875-5.054688 0l-22.777343 7.59375h-9.75l8.558593-17.136719 26.496094-6.617187 26.496094 6.617187 8.558594 17.136719h-9.75zm5.472656-48.40625v17.75l-6.0625-1.511719c-1.273437-.320313-2.601562-.320313-3.875 0l-6.0625 1.511719v-17.75zm-16-16 8-10.664063 8 10.664063zm88 136h-16v-32h-16v32h-16v-48h48zm-4.945312-64h-22.109375l-8-16h22.109375zm-11.054688-80h8v48h-39.015625l-8.984375-2.25v-21.75c3.03125 0 5.800782-1.714844 7.15625-4.421875 1.355469-2.710938 1.0625-5.953125-.757812-8.378907l-8.398438-11.199218zm-66.175781-222.296875c.34375-.902344 1.210937-1.5 2.175781-1.5s1.832032.597656 2.175782 1.5l3.574218 14.296875h-11.503906zm-9.433594 30.296875h23.203125l10.101563 16h-43.488281zm-19.589843 32h62.398437c2.847656 5.179687 5.394531 10.523437 7.625 16h-77.441406c2.164062-5.472656 4.640625-10.816406 7.417969-16zm-12.410157 31.03125c1.109375.609375 2.347657.941406 3.609375.96875h80c1.417969-.027344 2.804688-.445313 4-1.210938 1.660156 5.65625 2.996094 11.402344 4 17.210938h-95.367187c.925781-5.722656 2.175781-11.386719 3.742187-16.96875zm-5.40625 32.757812c.332031.09375.671875.164063 1.015625.210938h96c.621094-.050782 1.238282-.171875 1.832032-.367188.382812 5.589844.464843 11.199219.238281 16.796875-.667969-.238281-1.363281-.382812-2.070313-.429687h-97.054687c-.277344-5.398438-.269531-10.808594.023437-16.210938zm97.640625 32.089844c-.78125 5.425781-1.847656 10.808594-3.203125 16.121094h-89.421875c-1.414062-5.269532-2.542968-10.613282-3.390625-16h95.390625c.214844 0 .398438-.105469.609375-.121094zm-98.625 32.121094h111.75l-4 16h-47.75l-3.601562-4.800782c-1.574219-1.914062-3.921875-3.023437-6.398438-3.023437-2.476562 0-4.824218 1.109375-6.398437 3.023437l-3.601563 4.800782h-47.753906l-4-16zm-22 56v-24h50l-8.398437 11.199218c-1.820313 2.425782-2.113281 5.667969-.757813 8.378907 1.355469 2.707031 4.125 4.421875 7.15625 4.421875v21.75l-8.984375 2.25h-39.015625zm4.945313 40h22.109375l-8 16h-22.109375zm-12.945313 32h48v48h-16v-32h-16v32h-16zm-56-96h48v16h-48zm48 32v16h-16v-16zm-48 0h16v16h-16zm-42.175781-182.9375c.34375-.902344 1.210937-1.5 2.175781-1.5s1.832032.597656 2.175782 1.5l3.574218 14.296875h-11.503906zm-9.183594 30.296875h22.71875l6.488281 11.359375h-35.695312zm-15.410156 27.359375h53.539063c2.015624 4.054687 3.652343 8.285156 4.894531 12.640625h-63.328125c1.242187-4.355469 2.878906-8.585938 4.894531-12.640625zm-7.527344 28.640625h68.59375c.3125 5.347656.042969 10.710937-.800781 16h-66.992188c-.84375-5.289063-1.113281-10.652344-.800781-16zm69.351563 32.640625-8 16h-54.109375l-8-16zm-43.054688 48v32h-16v-48h48v48h-16v-32zm-24 48h123.054688l-8 16h-118.109375l-8-16zm0 0"/><path d="m184.003906 256.027344h16v16h-16zm0 0"/><path d="m280.003906 256.027344h16v16h-16zm0 0"/></svg>