<svg height="480pt" viewBox="-40 0 480 480" width="480pt" xmlns="http://www.w3.org/2000/svg"><path d="m200 280c22.089844 0 40-17.910156 40-40s-17.910156-40-40-40-40 17.910156-40 40c.027344 22.082031 17.917969 39.972656 40 40zm0-64c13.253906 0 24 10.746094 24 24s-10.746094 24-24 24-24-10.746094-24-24 10.746094-24 24-24zm0 0"/><path d="m392 128h-8v-56c-.046875-.382812-.121094-.757812-.222656-1.128906-.042969-.269532.046875-.535156 0-.800782l-8-32c-.886719-3.570312-4.097656-6.074218-7.777344-6.070312h-80c-3.671875 0-6.871094 2.5-7.761719 6.0625l-8 32c-.0625.273438 0 .539062 0 .800781-.105469.371094-.1875.753907-.238281 1.136719v56h-20.6875l-28.113281-28.097656-7.464844-29.839844c-.882813-3.550781-4.070313-6.050781-7.734375-6.0625v-32h16v-16h-16v-16h-16v16h-16v16h16v32c-3.671875 0-6.871094 2.5-7.761719 6.0625l-7.460937 29.839844-28.089844 28.097656h-20.6875v-56c-.046875-.382812-.121094-.757812-.222656-1.128906-.042969-.269532.046875-.535156 0-.800782l-8-32c-.886719-3.570312-4.097656-6.074218-7.777344-6.070312h-80c-3.671875 0-6.871094 2.5-7.761719 6.0625l-8 32c-.0625.273438 0 .539062 0 .800781-.105469.371094-.1875.753907-.238281 1.136719v56h-8c-4.417969 0-8 3.582031-8 8v48c0 4.417969 3.582031 8 8 8v96c-4.417969 0-8 3.582031-8 8v32c0 4.417969 3.582031 8 8 8v136c0 4.417969 3.582031 8 8 8h368c4.417969 0 8-3.582031 8-8v-136c4.417969 0 8-3.582031 8-8v-32c0-4.417969-3.582031-8-8-8v-96c4.417969 0 8-3.582031 8-8v-48c0-4.417969-3.582031-8-8-8zm-353.753906-80h67.507812l4 16h-75.507812zm-6.246094 32h80v48h-16v-24c0-4.417969-3.582031-8-8-8s-8 3.582031-8 8v24h-16v-24c0-4.417969-3.582031-8-8-8s-8 3.582031-8 8v24h-16zm47.0625 131.097656-2.621094-1.753906c-2.691406-1.792969-6.191406-1.792969-8.882812 0l-2.621094 1.753906c-15.59375 10.371094-24.957031 27.863282-24.9375 46.589844v30.3125h-16v-96h96v96h-16v-30.3125c.019531-18.726562-9.34375-36.21875-24.9375-46.589844zm-23.0625 76.902344v-30.3125c-.011719-12.59375 5.917969-24.453125 16-32 10.082031 7.546875 16.011719 19.40625 16 32v30.3125zm8 16v16h-16v-16zm16 0h16v16h-16zm-32-128v-32h16v32zm32 0v-32h16v32zm-64-32h16v32h-16zm0 160h16v16h-16zm72 160h-32v-32h32zm-30.191406-48c1.738281-7.316406 4.933594-14.207031 9.390625-20.265625l4.800781-6.398437 4.800781 6.398437c4.457031 6.058594 7.648438 12.949219 9.390625 20.265625zm62.191406 48h-16v-40c-.039062-.789062-.195312-1.570312-.464844-2.3125-1.382812-12.886719-6.195312-25.164062-13.933594-35.558594l-11.203124-14.929687c-1.574219-1.90625-3.921876-3.011719-6.398438-3.011719s-4.824219 1.105469-6.398438 3.011719l-11.203124 14.945312c-7.738282 10.394531-12.550782 22.671875-13.933594 35.558594-.269532.738281-.425782 1.511719-.464844 2.296875v40h-16v-128h96zm8-144h-16v-16h16zm0-144h-16v-32h16zm112-32h16v32h-16zm-50.34375-34.34375c1.027344-1.027344 1.753906-2.3125 2.105469-3.71875l6.484375-25.9375h3.507812l6.484375 25.9375c.351563 1.40625 1.078125 2.691406 2.105469 3.71875l18.34375 18.34375h-57.375zm34.34375 34.34375v32h-16v-32zm-32 0v32h-16v-32zm-48 0h16v32h-16zm88 320h-64v-30.855469c0-.382812.046875-.761719.054688-1.144531h63.890624c0 .382812.054688.761719.054688 1.144531zm-61.871094-48c3.089844-12.789062 9.652344-24.476562 18.960938-33.777344l10.910156-10.910156 10.910156 10.910156c9.308594 9.300782 15.871094 20.988282 18.960938 33.777344zm93.871094 48h-16v-40c-.027344-1.304688-.382812-2.585938-1.03125-3.71875-2.691406-18.699219-11.371094-36.023438-24.746094-49.371094l-16.566406-16.566406c-3.125-3.121094-8.1875-3.121094-11.3125 0l-16.566406 16.566406c-13.375 13.347656-22.054688 30.671875-24.746094 49.371094-.648438 1.132812-1.003906 2.414062-1.03125 3.71875v40h-16v-128h128zm-120-144v-16h16v16zm32 0v-16h16v16zm32 0v-16h16v16zm32 0v-16h16v16zm24-32h-128v-96h128zm30.246094-240h67.507812l4 16h-75.507812zm-6.246094 32h80v48h-16v-24c0-4.417969-3.582031-8-8-8s-8 3.582031-8 8v24h-16v-24c0-4.417969-3.582031-8-8-8s-8 3.582031-8 8v24h-16zm47.0625 131.097656-2.621094-1.753906c-2.691406-1.792969-6.191406-1.792969-8.882812 0l-2.621094 1.753906c-15.59375 10.371094-24.957031 27.863282-24.9375 46.589844v30.3125h-16v-96h96v96h-16v-30.3125c.019531-18.726562-9.34375-36.21875-24.9375-46.589844zm-23.0625 76.902344v-30.3125c-.011719-12.59375 5.917969-24.453125 16-32 10.082031 7.546875 16.011719 19.40625 16 32v30.3125zm8 16v16h-16v-16zm16 0h16v16h-16zm-32-128v-32h16v32zm32 0v-32h16v32zm-64-32h16v32h-16zm0 160h16v16h-16zm72 160h-32v-32h32zm-30.191406-48c1.738281-7.316406 4.933594-14.207031 9.390625-20.265625l4.800781-6.398437 4.800781 6.398437c4.457031 6.058594 7.648438 12.949219 9.390625 20.265625zm62.191406 48h-16v-40c-.039062-.789062-.195312-1.570312-.464844-2.3125-1.382812-12.886719-6.195312-25.164062-13.933594-35.558594l-11.203124-14.929687c-1.574219-1.90625-3.921876-3.011719-6.398438-3.011719s-4.824219 1.105469-6.398438 3.011719l-11.203124 14.945312c-7.738282 10.394531-12.550782 22.671875-13.933594 35.558594-.269532.738281-.425782 1.511719-.464844 2.296875v40h-16v-128h96zm8-144h-16v-16h16zm0-144h-16v-32h16zm0 0"/></svg>