<svg height="496pt" viewBox="-8 0 496 496" width="496pt" xmlns="http://www.w3.org/2000/svg"><path d="m472 144c-4.417969 0-8 3.582031-8 8v19.054688l-4.425781-2.214844c-2.25-1.125-4.898438-1.125-7.148438 0l-4.425781 2.214844v-19.054688c0-4.417969-3.582031-8-8-8s-8 3.582031-8 8v21.390625l-40.375-11.535156c.203125-.601563.328125-1.222657.375-1.855469v-24c0-4.417969-3.582031-8-8-8s-8 3.582031-8 8v21.390625l-40-11.421875v-49.96875c0-4.417969-3.582031-8-8-8s-8 3.582031-8 8v29.695312c-2.941406-1.722656-5.230469-4.367187-6.511719-7.527343l-9.488281-23.710938v-38.457031c0-4.417969-3.582031-8-8-8s-8 3.582031-8 8v22.609375l-40-34.289063v-12.320312h8c4.417969 0 8-3.582031 8-8s-3.582031-8-8-8h-8v-8c0-4.417969-3.582031-8-8-8s-8 3.582031-8 8v8h-8c-4.417969 0-8 3.582031-8 8s3.582031 8 8 8h8v12.320312l-40 34.289063v-22.609375c0-4.417969-3.582031-8-8-8s-8 3.582031-8 8v38.457031l-9.488281 23.710938c-1.28125 3.160156-3.570313 5.804687-6.511719 7.527343v-29.695312c0-4.417969-3.582031-8-8-8s-8 3.582031-8 8v49.96875l-32 9.144531v-19.113281c0-4.417969-3.582031-8-8-8s-8 3.582031-8 8v23.679688l-48 13.710937v-21.390625c0-4.417969-3.582031-8-8-8s-8 3.582031-8 8v19.054688l-4.425781-2.214844c-2.25-1.125-4.898438-1.125-7.148438 0l-4.425781 2.214844v-19.054688c0-4.417969-3.582031-8-8-8s-8 3.582031-8 8v336c0 4.417969 3.582031 8 8 8h464c4.417969 0 8-3.582031 8-8v-336c0-4.417969-3.582031-8-8-8zm-440 336h-16v-96h16zm0-112h-16v-16h16zm0-32h-16v-112h16zm0-128h-16v-19.054688l8-4 8 4zm80 272h-32v-48h32zm32 0h-16v-56c0-4.417969-3.582031-8-8-8h-48c-4.417969 0-8 3.582031-8 8v56h-16v-96h96zm0-112h-96v-16h96zm-48-32v-40c0-4.417969 3.582031-8 8-8s8 3.582031 8 8v40zm48 0h-16v-40c0-13.253906-10.746094-24-24-24s-24 10.746094-24 24v40h-32v-80h96zm0-96h-96v-16h96zm0-32h-96v-17.96875l96-27.421875zm32 272h-16v-96h16zm0-112h-16v-16h16zm0-32h-16v-112h16zm0-128h-16v-65.007812c6.273438-1.6875 11.867188-5.285157 16-10.296876zm64-149.464844 34.398438 29.464844h-68.796876zm16 421.464844h-32v-64h32zm32 0h-16v-72c0-4.417969-3.582031-8-8-8h-48c-4.417969 0-8 3.582031-8 8v72h-16v-96h96zm0-112h-96v-16h96zm-64-32v-64c0-8.835938 7.164062-16 16-16s16 7.164062 16 16v64zm64 0h-16v-64c0-17.671875-14.328125-32-32-32s-32 14.328125-32 32v64h-16v-112h96zm-64-128v-24c0-8.835938 7.164062-16 16-16s16 7.164062 16 16v24zm64 0h-16v-24c0-17.671875-14.328125-32-32-32s-32 14.328125-32 32v24h-16v-72h96zm0-88h-96v-16h96zm32 360h-16v-96h16zm0-112h-16v-16h16zm0-32h-16v-112h16zm0-184v56h-16v-75.304688c4.132812 5.011719 9.726562 8.609376 16 10.296876zm80 328h-32v-48h32zm32 0h-16v-56c0-4.417969-3.582031-8-8-8h-48c-4.417969 0-8 3.582031-8 8v56h-16v-96h96zm0-112h-96v-16h96zm-56-32v-40c0-4.417969 3.582031-8 8-8s8 3.582031 8 8v40zm56 0h-24v-40c0-13.253906-10.746094-24-24-24s-24 10.746094-24 24v40h-24v-80h96zm0-96h-96v-16h96zm0-32h-96v-45.390625l96 27.421875zm32 272h-16v-96h16zm0-112h-16v-16h16zm0-32h-16v-112h16zm0-128h-16v-19.054688l8-4 8 4zm0 0"/></svg>