<svg height="480pt" viewBox="0 -56 480 480" width="480pt" xmlns="http://www.w3.org/2000/svg"><path d="m176 200c-13.253906 0-24 10.746094-24 24v24c0 4.417969 3.582031 8 8 8h32c4.417969 0 8-3.582031 8-8v-24c0-13.253906-10.746094-24-24-24zm8 40h-16v-16c0-4.417969 3.582031-8 8-8s8 3.582031 8 8zm0 0"/><path d="m112 200c-13.253906 0-24 10.746094-24 24v24c0 4.417969 3.582031 8 8 8h32c4.417969 0 8-3.582031 8-8v-24c0-13.253906-10.746094-24-24-24zm8 40h-16v-16c0-4.417969 3.582031-8 8-8s8 3.582031 8 8zm0 0"/><path d="m456 328v-40h16v-16h-16v-88h16v-16h-16v-88h16v-16h-296.449219l-19.628906-48h20.078125v-16h-168v16h16v48h-16v16h16v88h-16v16h16v88h-16v16h16v64h-24v16h480v-16h-24zm-280-216c.707031.042969 1.402344.183594 2.070312.414062l5.929688 14.496094v9.089844h-16v-16c0-4.417969 3.582031-8 8-8zm-136-96h98.632812l19.632813 48h-118.265625zm0 104c0-4.417969 3.582031-8 8-8s8 3.582031 8 8v16h-16zm0 32h24c4.417969 0 8-3.582031 8-8v-24c0-13.253906-10.746094-24-24-24-2.730469.027344-5.4375.523438-8 1.472656v-17.472656h124.800781l6.734375 16.449219c-11.320312 2.140625-19.519531 12.027343-19.535156 23.550781v24c0 4.417969 3.582031 8 8 8h32c.710938-.042969 1.414062-.183594 2.089844-.425781l6.710937 16.425781h-160.800781zm0 72c0-4.417969 3.582031-8 8-8s8 3.582031 8 8v16h-16zm0 32h24c4.417969 0 8-3.582031 8-8v-24c0-13.253906-10.746094-24-24-24-2.730469.027344-5.4375.523438-8 1.472656v-17.472656h167.351562l11.6875 28.550781c-1.964843 3.496094-3.011718 7.4375-3.039062 11.449219v24c0 4.417969 3.582031 8 8 8h12.800781l6.542969 16h-203.34375zm197.910156-39.574219c.675782-.242187 1.378906-.382812 2.089844-.425781 4.417969 0 8 3.582031 8 8v16h-.449219zm-181.910156 135.574219h-16v-24c0-4.417969 3.582031-8 8-8s8 3.582031 8 8zm64 0h-16v-24c0-4.417969 3.582031-8 8-8s8 3.582031 8 8zm64 0h-16v-24c0-4.417969 3.582031-8 8-8s8 3.582031 8 8zm64 0h-16v-24c0-4.417969 3.582031-8 8-8s8 3.582031 8 8zm16 0v-24c0-13.253906-10.746094-24-24-24s-24 10.746094-24 24v24h-16v-24c0-13.253906-10.746094-24-24-24s-24 10.746094-24 24v24h-16v-24c0-13.253906-10.746094-24-24-24s-24 10.746094-24 24v24h-16v-24c0-13.253906-10.746094-24-24-24-2.730469.027344-5.4375.523438-8 1.472656v-17.472656h209.902344l26.175781 64zm48 0h-16v-24c0-4.417969 3.582031-8 8-8s8 3.582031 8 8zm64 0h-16v-24c0-4.417969 3.582031-8 8-8s8 3.582031 8 8zm64 0h-16v-24c0-4.417969 3.582031-8 8-8s8 3.582031 8 8zm0-46.527344c-2.5625-.949218-5.269531-1.445312-8-1.472656-13.253906 0-24 10.746094-24 24v24h-16v-24c0-13.253906-10.746094-24-24-24s-24 10.746094-24 24v24h-16v-24c.042969-12.015625-8.828125-22.203125-20.738281-23.808594-11.90625-1.605468-23.160157 5.867188-26.300781 17.464844l-13.761719-33.65625h172.800781zm0-65.472656h-16v-16c0-4.417969 3.582031-8 8-8s8 3.582031 8 8zm0-38.527344c-2.5625-.949218-5.269531-1.445312-8-1.472656-13.253906 0-24 10.746094-24 24v24c0 4.417969 3.582031 8 8 8h24v16h-179.351562l-6.550782-16h1.902344c4.417969 0 8-3.582031 8-8v-24c0-13.253906-10.746094-24-24-24-2.796875.023438-5.566406.542969-8.183594 1.527344l-7.167968-17.527344h215.351562zm0-65.472656h-16v-16c0-4.417969 3.582031-8 8-8s8 3.582031 8 8zm0-38.527344c-2.5625-.949218-5.269531-1.445312-8-1.472656-13.253906 0-24 10.746094-24 24v24c0 4.417969 3.582031 8 8 8h24v16h-221.902344l-18.097656-44.238281v-3.761719c-.027344-7.335938-3.421875-14.253906-9.207031-18.761719l-8.695313-21.238281h257.902344zm0 0"/><path d="m288 256h32c4.417969 0 8-3.582031 8-8v-24c0-13.253906-10.746094-24-24-24s-24 10.746094-24 24v24c0 4.417969 3.582031 8 8 8zm8-32c0-4.417969 3.582031-8 8-8s8 3.582031 8 8v16h-16zm0 0"/><path d="m352 256h32c4.417969 0 8-3.582031 8-8v-24c0-13.253906-10.746094-24-24-24s-24 10.746094-24 24v24c0 4.417969 3.582031 8 8 8zm8-32c0-4.417969 3.582031-8 8-8s8 3.582031 8 8v16h-16zm0 0"/><path d="m224 152h32c4.417969 0 8-3.582031 8-8v-24c0-13.253906-10.746094-24-24-24s-24 10.746094-24 24v24c0 4.417969 3.582031 8 8 8zm8-32c0-4.417969 3.582031-8 8-8s8 3.582031 8 8v16h-16zm0 0"/><path d="m112 96c-13.253906 0-24 10.746094-24 24v24c0 4.417969 3.582031 8 8 8h32c4.417969 0 8-3.582031 8-8v-24c0-13.253906-10.746094-24-24-24zm8 40h-16v-16c0-4.417969 3.582031-8 8-8s8 3.582031 8 8zm0 0"/><path d="m288 152h32c4.417969 0 8-3.582031 8-8v-24c0-13.253906-10.746094-24-24-24s-24 10.746094-24 24v24c0 4.417969 3.582031 8 8 8zm8-32c0-4.417969 3.582031-8 8-8s8 3.582031 8 8v16h-16zm0 0"/><path d="m352 152h32c4.417969 0 8-3.582031 8-8v-24c0-13.253906-10.746094-24-24-24s-24 10.746094-24 24v24c0 4.417969 3.582031 8 8 8zm8-32c0-4.417969 3.582031-8 8-8s8 3.582031 8 8v16h-16zm0 0"/><path d="m120 32h16v16h-16zm0 0"/><path d="m88 32h16v16h-16zm0 0"/><path d="m56 32h16v16h-16zm0 0"/></svg>