<svg height="479pt" viewBox="-7 0 479 479.984" width="479pt" xmlns="http://www.w3.org/2000/svg"><path d="m288.492188 8c0-4.417969-3.582032-8-8-8-4.417969 0-8 3.582031-8 8v18.792969c-3.894532 1.65625-7.785157 3.296875-11.710938 5.191406-4.609375 2.207031-9.082031 4.617187-13.539062 7.0625-.886719.488281-1.78125.898437-2.671876 1.402344l-.132812.09375c-82.675781 46.734375-135.945312 132.269531-141.417969 227.082031l-2.335937 42.488281c-2.214844 43.785157-.070313 87.683594 6.402344 131.046875.09375.648438.191406 1.246094.285156 1.878906.703125 4.625 1.425781 9.25 2.226562 13.855469.402344 2.417969.820313 4.78125 1.246094 7.089844h-30.351562v16h240v-15.984375h-32v-288h24c4.417968 0 8-3.582031 8-8v-32c0-4.417969-3.582032-8-8-8h-24zm-99.023438 96h15.023438c-2.207032 2.632812-4.367188 5.300781-6.480469 8h-15.671875c2.328125-2.710938 4.6875-5.382812 7.128906-8zm-19.824219 24h16.800781c-3.511718 5.238281-6.808593 10.617188-9.953124 16.070312v-.070312h-17.710938c3.421875-5.472656 7.042969-10.804688 10.863281-16zm63.144531 96h-70.777343c5.152343-22.386719 13.222656-44 24-64.289062zm-83.28125-64h18.398438c-2.679688 5.441406-5.132812 10.976562-7.453125 16.574219v-.574219h-18.785156c2.417969-5.429688 5.03125-10.761719 7.839843-16zm-24 64h20.167969c-1.152343 5.296875-2.152343 10.628906-3 16h-20.367187c.894531-5.382812 1.960937-10.714844 3.191406-16zm-6.503906 44.503906c.230469-4.199218.703125-8.34375 1.136719-12.503906h20.472656c-.378906 3.863281-.6875 7.734375-.90625 11.625l-.238281 4.375h-20.664062zm-1.078125 19.496094h20.652344l-.886719 16h-20.648437zm-1.601562 32h20.671875c-.191406 5.335938-.335938 10.664062-.398438 16h-20.671875c.0625-5.332031.199219-10.667969.40625-16zm-.433594 32h20.632813v.257812c.066406 5.246094.222656 10.496094.417968 15.742188h-20.664062c-.203125-5.328125-.3125-10.664062-.378906-16zm1.210937 32h20.679688c.320312 5.332031.707031 10.667969 1.167969 16h-20.625c-.464844-5.328125-.886719-10.664062-1.214844-16zm2.8125 32h20.578126c.582031 5.335938 1.207031 10.671875 1.929687 16h-20.507813c-.734374-5.332031-1.398437-10.667969-1.988281-16zm7.203126 48c-.082032-.414062-.152344-.863281-.234376-1.289062-.726562-3.894532-1.375-7.808594-2.039062-11.710938-.160156-1.007812-.328125-1.976562-.496094-3h20.472656c.855469 5.34375 1.792969 10.679688 2.777344 16zm2.65625-256c1.597656-5.402344 3.386718-10.734375 5.367187-16h19.511719c-1.832032 5.28125-3.527344 10.609375-5.03125 16zm23.582031 102.96875 2.34375-42.464844c.328125-5.929687.914062-11.816406 1.640625-17.671875l74.511718 93.167969h-79.304687c0-11.015625.226563-22.03125.785156-33.03125zm23.136719 145.03125v8h-12.726563c-1.007813-5.320312-1.914063-10.65625-2.785156-16h16.984375c-.949219 2.5625-1.445313 5.269531-1.472656 8zm32 8h-16v-8c0-4.417969 3.582031-8 8-8 4.417968 0 8 3.582031 8 8zm-49.894532-32c-2.851562-20.671875-4.714844-41.441406-5.601562-62.304688l73.65625 62.304688zm81.894532 32h-16v-8c-.027344-2.730469-.523438-5.4375-1.472657-8h17.472657zm0-41.246094-74.160157-62.753906h74.160157zm0-93.554687-71.359376-89.199219h71.359376zm0-121.808594-40.273438-55.390625h40.273438zm0-71.390625h-40.113282c7.628906-11.3125 16.125-22.011719 25.417969-32h14.695313zm0-48h-34.6875c10.800781-9.800781 22.402343-18.679688 34.6875-26.542969zm32 376h-16v-16h16zm0-328v296h-16v-379.855469c5.332031-2.898437 10.667968-5.5625 16-8zm32 8v16h-16v-16zm0 0"/><path d="m447.90625 265.167969c-1.761719-10.8125-7.933594-20.410157-17.039062-26.5-9.105469-6.089844-20.332032-8.128907-31-5.628907-3.390626-19.121093-20.027344-33.042968-39.449219-33.011718-19.417969.03125-36.011719 14.007812-39.34375 33.140625-9.878907 3.226562-16.570313 12.4375-16.582031 22.832031v16c0 4.417969 3.582031 8 8 8h41.398437c-.917969 2.566406-1.390625 5.273438-1.398437 8v16c0 4.417969 3.582031 8 8 8h96c4.417968 0 8-3.582031 8-8v-16c-.011719-10.394531-6.703126-19.605469-16.585938-22.832031zm-127.414062-1.167969v-8c0-4.417969 3.582031-8 8-8 4.417968 0 8-3.582031 8-8 0-13.253906 10.746093-24 24-24 13.253906 0 24 10.746094 24 24v.160156c-7.769532 5.839844-13.140626 14.320313-15.105469 23.839844zm128 32h-80v-8c0-4.417969 3.582031-8 8-8 4.417968 0 8-3.582031 8-8 0-13.253906 10.746093-24 24-24 13.253906 0 24 10.746094 24 24 0 4.417969 3.582031 8 8 8 4.417968 0 8 3.582031 8 8zm0 0"/><path d="m95.90625 73.167969c-3.3125-19.179688-19.949219-33.191407-39.414062-33.191407-19.464844 0-36.101563 14.011719-39.417969 33.191407-9.878907 3.226562-16.570313 12.4375-16.582031 22.832031v16c0 4.417969 3.582031 8 8 8h96c4.417968 0 8-3.582031 8-8v-16c-.011719-10.394531-6.703126-19.605469-16.585938-22.832031zm.585938 30.832031h-80v-8c0-4.417969 3.582031-8 8-8 4.417968 0 8-3.582031 8-8 0-13.253906 10.746093-24 24-24 13.253906 0 24 10.746094 24 24 0 4.417969 3.582031 8 8 8 4.417968 0 8 3.582031 8 8zm0 0"/></svg>