<svg height="480pt" viewBox="0 0 480 480" width="480pt" xmlns="http://www.w3.org/2000/svg"><path d="m424 144c0-22.089844-17.910156-40-40-40s-40 17.910156-40 40 17.910156 40 40 40c22.082031-.027344 39.972656-17.917969 40-40zm-64 0c0-13.253906 10.746094-24 24-24s24 10.746094 24 24-10.746094 24-24 24-24-10.746094-24-24zm0 0"/><path d="m338.683594 98.804688 39.597656-40.398438 11.429688 11.203125-39.59375 40.398437zm0 0"/><path d="m319.417969 87.515625 16-.164063.578125 56.574219-16 .164063zm0 0"/><path d="m298.398438 149.714844 11.203124-11.433594 40.402344 39.597656-11.207031 11.429688zm0 0"/><path d="m327.355469 192.574219 56.574219-.570313.160156 15.996094-56.574219.570312zm0 0"/><path d="m378.289062 218.402344 39.59375-40.398438 11.433594 11.203125-39.597656 40.398438zm0 0"/><path d="m432 144.085938 16-.164063.578125 56.574219-16 .164062zm0 0"/><path d="m418 110.117188 11.207031-11.433594 40.398438 39.59375-11.207031 11.433594zm0 0"/><path d="m383.917969 80.007812 56.574219-.578124.164062 16-56.574219.578124zm0 0"/><path d="m8 232h25.398438c-.917969 2.566406-1.390626 5.273438-1.398438 8v16c0 4.417969 3.582031 8 8 8h96c4.417969 0 8-3.582031 8-8v-16c-.011719-10.394531-6.703125-19.605469-16.585938-22.832031-2.894531-16.511719-15.75-29.480469-32.238281-32.519531-3.527343-19.011719-20.175781-32.761719-39.511719-32.632813-19.339843.125-35.804687 14.09375-39.078124 33.152344-9.882813 3.226562-16.5742192 12.4375-16.585938 22.832031v16c0 4.417969 3.582031 8 8 8zm80-32c13.253906 0 24 10.746094 24 24 0 4.417969 3.582031 8 8 8s8 3.582031 8 8v8h-80v-8c0-4.417969 3.582031-8 8-8s8-3.582031 8-8c0-13.253906 10.746094-24 24-24zm-72 8c0-4.417969 3.582031-8 8-8s8-3.582031 8-8c-.042969-11.917969 8.6875-22.050781 20.480469-23.765625s23.050781 5.507813 26.40625 16.941406c-15.140625 3.570313-26.835938 15.59375-29.992188 30.824219h-32.894531zm0 0"/><path d="m440 304c-22.082031.027344-39.972656 17.917969-40 40v48c.023438 19 13.386719 35.371094 32 39.199219v32.800781h-74.800781l-28.800781-64.726562 7.328124-29.328126c.597657-2.386718.066407-4.914062-1.441406-6.855468-1.507812-1.941406-3.828125-3.078125-6.285156-3.089844h-18.457031l-9.472657-25.273438c-5.65625-15.160156-9.941406-30.796874-12.796874-46.726562h8.726562v-16h-11.128906c-.175782-1.488281-.445313-2.96875-.597656-4.457031l-19.402344-187.542969h7.128906v-16h-8v-16c0-2.121094-.84375-4.15625-2.34375-5.65625l-8-8c-1.5-1.5-3.535156-2.34375-5.65625-2.34375v-24c0-4.417969-3.582031-8-8-8s-8 3.582031-8 8v24c-2.121094 0-4.15625.84375-5.65625 2.34375l-8 8c-1.5 1.5-2.34375 3.535156-2.34375 5.65625v16h-8v16h7.128906l-19.402344 187.542969c-.152343 1.488281-.421874 2.96875-.597656 4.457031h-11.128906v16h8.726562c-2.855468 15.929688-7.140624 31.566406-12.796874 46.726562l-9.472657 25.273438h-18.457031c-2.464844 0-4.789062 1.136719-6.308594 3.078125-1.515625 1.941406-2.050781 4.476563-1.453125 6.867187l7.328125 29.328126-28.765625 64.726562h-74.800781v-16.800781c18.613281-3.828125 31.976562-20.199219 32-39.199219v-48c0-22.089844-17.910156-40-40-40s-40 17.910156-40 40v48c.0234375 19 13.386719 35.371094 32 39.199219v16.800781h-24c-4.417969 0-8 3.582031-8 8s3.582031 8 8 8h464c4.417969 0 8-3.582031 8-8s-3.582031-8-8-8h-24v-32.800781c18.613281-3.828125 31.976562-20.199219 32-39.199219v-48c-.027344-22.082031-17.917969-39.972656-40-40zm-392 33.472656c5.980469 2.144532 10.871094 6.566406 13.601562 12.304688l-13.601562 10.222656zm0 42.527344 16-12v40c-.042969 10.132812-6.445312 19.148438-16 22.527344zm-16 50.527344c-9.554688-3.378906-15.957031-12.394532-16-22.527344v-8l16 12zm0-38.527344-16-12v-20c.042969-10.132812 6.445312-19.148438 16-22.527344zm236.351562-122.808594c.105469.9375.28125 1.871094.382813 2.808594h-20.734375v-120h8.230469zm-36.351562-217.878906 3.3125-3.3125h9.375l3.3125 3.3125v12.6875h-16zm-.800781 28.6875h17.601562l5.792969 56h-29.167969zm-19.550781 189.191406 12.121093-117.191406h8.230469v120h-20.734375c.101563-.9375.277344-1.871094.382813-2.808594zm-16.738282 71.152344c6.355469-16.960938 11.085938-34.488281 14.128906-52.34375h61.921876c3.042968 17.855469 7.773437 35.382812 14.128906 52.34375l7.367187 19.65625h-18.816406l-18.105469-50.6875c-1.136718-3.1875-4.152344-5.3125-7.535156-5.3125h-16c-3.570312 0-6.707031 2.367188-7.6875 5.800781l-14.34375 50.199219h-22.402344zm61.738282 19.65625h-30.039063l11.421875-40h4.367188zm-80.648438 16h141.753906l-4 16h-147.507812l-4-16zm22.128906 88 .261719-.441406c8.769531-14.609375 24.5625-23.546875 41.601563-23.546875 17.039062 0 32.828124 8.9375 41.601562 23.546875l.261719.441406zm102.398438 0-5.199219-8.671875c-11.660156-19.4375-32.664063-31.328125-55.328125-31.328125s-43.667969 11.890625-55.328125 31.328125l-5.199219 8.671875h-39.160156l24.886719-56h149.601562l24.886719 56zm131.472656-49.472656c-9.554688-3.378906-15.957031-12.394532-16-22.527344v-8l16 12zm0-38.527344-16-12v-20c.042969-10.132812 6.445312-19.148438 16-22.527344zm16-54.527344c5.980469 2.144532 10.871094 6.566406 13.601562 12.304688l-13.601562 10.222656zm16 70.527344c-.042969 10.132812-6.445312 19.148438-16 22.527344v-50.527344l16-12zm0 0"/></svg>