<svg height="480pt" viewBox="0 -48 480 480" width="480pt" xmlns="http://www.w3.org/2000/svg"><path d="m475.574219 272.964844-104.109375-52.039063c-2.578125-1.289062-5.074219-2.6875-7.601563-4.046875-9.09375-4.910156-17.921875-10.292968-26.449219-16.128906 39.75-50.4375 34.410157-122.878906-12.300781-166.945312-46.710937-44.066407-119.335937-45.183594-167.375-2.570313-48.042969 42.617187-55.597656 114.855469-17.417969 166.492187l-1.601562 1.199219c-2.75 1.984375-5.539062 3.917969-8.367188 5.800781-1.238281.800782-2.472656 1.679688-3.726562 2.488282-2.242188 1.453125-4.519531 2.847656-6.800781 4.238281-1.863281 1.136719-3.703125 2.296875-5.601563 3.390625-3.6875 2.152344-7.398437 4.25-11.199218 6.25l-98.726563 52c-2.621094 1.371094-4.2734375 4.074219-4.296875 7.03125v96c0 4.417969 3.582031 8 8 8h464c4.417969 0 8-3.582031 8-8v-96c0-3.03125-1.710938-5.804688-4.425781-7.160156zm-343.574219-148.839844c-.078125-47.410156 30.777344-89.328125 76.070312-103.347656 45.292969-14.015625 94.429688 3.148437 121.148438 42.3125 26.71875 39.167968 24.765625 91.179687-4.8125 128.234375-2.175781-1.671875-4.375-3.320313-6.503906-5.054688-.488282-.390625-.949219-.800781-1.429688-1.191406-3.046875-2.503906-6.046875-5.058594-8.984375-7.6875-.886719-.800781-1.761719-1.601563-2.648437-2.457031-2.511719-2.304688-5.015625-4.625-7.449219-7.023438-1.488281-1.472656-2.917969-3-4.382813-4.503906-1.800781-1.855469-3.632812-3.695312-5.390624-5.601562-3.234376-3.515626-6.390626-7.109376-9.472657-10.792969-1.519531-1.824219-3.769531-2.882813-6.144531-2.886719h-72c-2.375 0-4.632812 1.054688-6.152344 2.878906l-1.441406 1.738282c-9.246094 11.101562-19.292969 21.515624-30.0625 31.152343l-.28125.246094c-2.972656 2.65625-6.03125 5.226563-9.109375 7.753906-13.617187-18.472656-20.960937-40.820312-20.953125-63.769531zm168.585938 68.578125-30.339844-11.671875c-10.390625-3.941406-22.027344 1.144531-26.199219 11.445312-.625 1.683594-2.253906 2.78125-4.046875 2.738282-1.761719.054687-3.363281-1.007813-4-2.648438l-.105469-.273437v-.09375c-4.035156-10.191407-15.4375-15.328125-25.742187-11.601563l-40.800782 14.566406c.601563-.519531 1.136719-1.109374 1.738282-1.597656 4.796875-4.226562 9.460937-8.601562 13.988281-13.128906 1.601563-1.601562 3.203125-3.273438 4.800781-4.929688 4.671875-4.863281 9.25-9.832031 13.601563-15.023437.085937-.109375.199219-.214844.296875-.328125h64.527344c4.574218 5.351562 9.359374 10.457031 14.246093 15.457031.929688.945313 1.859375 1.878907 2.792969 2.808594 4.929688 4.902344 9.976562 9.703125 15.242188 14.28125zm163.414062 175.421875h-448v-46.96875c2.722656-.714844 5.527344-1.0625 8.34375-1.03125 13.972656-.433594 26.835938-7.714844 34.398438-19.472656.136718-.191406.347656-.3125.464843-.519532.96875-1.628906 2.128907-3.132812 3.457031-4.488281.296876-.304687.503907-.527343.695313-.742187 2.828125-2.71875 6.273437-4.707032 10.039063-5.800782l.664062-.183593c1.9375-.515625 3.933594-.78125 5.9375-.792969 13.253906 0 24 10.746094 24 24s-10.746094 24-24 24c-4.417969 0-8 3.582031-8 8s3.582031 8 8 8c19.195312-.023438 35.667969-13.683594 39.246094-32.542969 12.273437-1.875 23.625-7.605469 32.417968-16.367187 1.46875-.644532 2.703126-1.722656 3.535157-3.089844 1.03125-1.753906 2.285156-3.367188 3.730469-4.800781.140624-.160157.335937-.292969.496093-.453125 1.234375-1.167969 2.585938-2.203125 4.039063-3.089844.296875-.175781.535156-.367188.839844-.535156 8.769531-4.972656 19.714843-3.929688 27.390624 2.605468 7.675782 6.539063 10.449219 17.175782 6.941407 26.628907-3.511719 9.453125-12.554688 15.703125-22.636719 15.644531-4.417969 0-8 3.582031-8 8s3.582031 8 8 8c18.730469-.027344 34.929688-13.042969 38.992188-31.328125 6.285156 1.136719 12.183593 3.835937 17.152343 7.847656.289063.183594.589844.34375.902344.480469.429687.289062.886719.53125 1.367187.71875.496094.179688 1.007813.308594 1.53125.378906.476563.089844.960938.132813 1.445313.136719.523437-.027344 1.039063-.105469 1.546875-.234375.484375-.09375.957031-.234375 1.414062-.421875.484376-.222656.941407-.488281 1.367188-.800781.300781-.148438.589844-.320313.867188-.511719 5.894531-5.34375 13.570312-8.289063 21.527343-8.265625h.230469c13.96875-.433594 26.832031-7.710938 34.398438-19.464844.136718-.199218.347656-.320312.464843-.527344.96875-1.628906 2.128907-3.132812 3.457031-4.488281.296876-.304687.503907-.527343.695313-.742187 2.828125-2.71875 6.273437-4.707032 10.039063-5.800782l.664062-.183593c1.9375-.515625 3.933594-.78125 5.9375-.792969 13.253906 0 24 10.746094 24 24s-10.746094 24-24 24c-4.417969 0-8 3.582031-8 8s3.582031 8 8 8c19.195312-.023438 35.667969-13.683594 39.246094-32.542969 12.277344-1.875 23.632812-7.609375 32.425781-16.375 1.464844-.644531 2.695313-1.71875 3.527344-3.082031 1.03125-1.753906 2.285156-3.367188 3.730469-4.800781.140624-.160157.335937-.292969.496093-.453125 1.222657-1.167969 2.5625-2.203125 4-3.089844.292969-.175781.535157-.367188.839844-.535156 8.765625-4.96875 19.703125-3.929688 27.382813 2.597656 7.675781 6.53125 10.453124 17.160156 6.957031 26.609375-3.496094 9.453125-12.527344 15.714844-22.605469 15.671875-4.417969 0-8 3.582031-8 8s3.582031 8 8 8c18.707031-.027344 34.894531-13.015625 38.976562-31.273438 1.863282.339844 3.703126.808594 5.503907 1.402344l3.519531 2.253906zm0-61.464844c-2.84375-.902344-5.753906-1.578125-8.703125-2.023437 0-.09375-.066406-.191407-.082031-.289063-.144532-.703125-.398438-1.351562-.574219-2.039062-.425781-1.726563-.960937-3.425782-1.601563-5.085938-.351562-.863281-.800781-1.664062-1.207031-2.503906-.652343-1.375-1.378906-2.710938-2.175781-4-.535156-.800781-1.128906-1.601562-1.71875-2.402344-.863281-1.164062-1.785156-2.285156-2.769531-3.351562-.679688-.734375-1.390625-1.429688-2.128907-2.113282-1.054687-.96875-2.160156-1.878906-3.320312-2.726562-.796875-.589844-1.597656-1.175781-2.398438-1.710938-1.269531-.785156-2.585937-1.5-3.9375-2.136718-.863281-.425782-1.695312-.863282-2.582031-1.222656-1.554687-.59375-3.144531-1.089844-4.761719-1.480469-.800781-.207031-1.597656-.496094-2.398437-.65625-4.445313-.914063-9.015625-1.011719-13.496094-.296875-.113281 0-.222656 0-.335937 0-1.222656.191406-2.542969.464844-3.929688.800781-.589844.125-1.164062.300781-1.726562.519531-1.09375.308594-2.164063.699219-3.199219 1.167969l-.664063.289063c-1.289062.5-2.53125 1.109374-3.714843 1.832031h-.046875c-1.214844.695312-2.394532 1.453125-3.535156 2.269531-1.007813.703125-1.972657 1.457031-2.894532 2.265625-.914062.800781-1.816406 1.542969-2.65625 2.398437l-.050781.050782c-.910156.90625-1.765625 1.863281-2.566406 2.871094-6.40625 8.296874-15.527344 14.078124-25.769531 16.328124-.511719-2.285156-1.230469-4.523437-2.144532-6.679687-.199218-.480469-.476562-.898437-.695312-1.359375-.789063-1.75-1.703125-3.4375-2.742188-5.050781-.457031-.703125-1-1.34375-1.503906-2.015625-.925781-1.269532-1.929688-2.480469-3-3.632813-.632812-.671875-1.3125-1.285156-2-1.917969-1.097656-1.011718-2.25-1.964843-3.449219-2.847656-.800781-.5625-1.535156-1.097656-2.34375-1.601562-1.289062-.800782-2.625-1.523438-4-2.167969-.800781-.398437-1.648437-.800781-2.511719-1.160156-1.554687-.59375-3.144531-1.085938-4.761718-1.480469-.796875-.199219-1.535156-.46875-2.34375-.621094-6.3125-1.289062-12.851563-.953125-19 .972656-.109375 0-.238282 0-.351563.082032-1.164062.296875-2.304687.699218-3.398437 1.199218l-.320313.136719h-.097656c-1.351563.574219-2.589844 1.152344-3.933594 1.871094-1.121093.625-2.191406 1.339844-3.199219 2.128906-.160156.113281-.304687.230469-.464843.335938-.472657.335937-.945313.648437-1.402344 1-.949219.703125-1.84375 1.46875-2.6875 2.296875-.101563.09375-.167969.191406-.261719.277344-.519531.496093-1.015625 1.019531-1.511718 1.539062-.21875.246094-.503907.480469-.707032.726562-.480468.503907-.929687 1.039063-1.34375 1.601563-.382812.46875-.75.957031-1.109375 1.453125 0 .058594-.089843.105469-.121093.160156-.472657.601563-.910157 1.230469-1.3125 1.882813-4.523438 8.078125-12.921876 13.222656-22.175782 13.582031-9.679687.023438-19.125 2.96875-27.097656 8.457031-6.59375-4.203125-14.019531-6.933593-21.765625-8 0-.105469-.066406-.191406-.089844-.289062-.128906-.679688-.382812-1.304688-.550781-1.96875-.417969-1.753907-.949219-3.476563-1.601562-5.160157-.34375-.847656-.796876-1.597656-1.183594-2.453124-.65625-1.394532-1.394532-2.75-2.207032-4.058594-.519531-.800782-1.105468-1.597656-1.6875-2.359375-.871093-1.179688-1.804687-2.3125-2.800781-3.390625-.671875-.722656-1.367187-1.402344-2.097656-2.074219-1.070313-.960937-2.199219-1.863281-3.375-2.703125-.800781-.582031-1.597656-1.160156-2.398437-1.6875-1.292969-.796875-2.628907-1.515625-4-2.160156-.847657-.40625-1.671876-.855469-2.5625-1.207032-1.5625-.597656-3.167969-1.09375-4.796876-1.480468-.800781-.207032-1.601562-.496094-2.402343-.65625-4.441407-.914063-9.015625-1.011719-13.496094-.296875-.109375 0-.222656 0-.335937 0-1.222657.191406-2.542969.464843-3.925782.800781-.589844.125-1.167968.300781-1.730468.519531-1.09375.308594-2.164063.699219-3.199219 1.167969l-.664063.289062c-1.289062.5-2.53125 1.113282-3.710937 1.832032h-.046875c-1.21875.695312-2.398438 1.453125-3.539063 2.269531-1.003906.703125-1.972656 1.460937-2.894531 2.265625-.910156.800781-1.816406 1.542969-2.65625 2.398438l-.046875.050781c-.910156.90625-1.769531 1.867187-2.570313 2.871093-6.40625 8.296876-15.527343 14.078126-25.765624 16.328126-.515626-2.285157-1.234376-4.523438-2.144532-6.679688-.199218-.480469-.480468-.898438-.695312-1.359375-.789063-1.75-1.707032-3.4375-2.746094-5.050781-.453125-.703125-1-1.34375-1.503906-2.015625-.925782-1.269531-1.925782-2.480469-3-3.628907-.632813-.675781-1.3125-1.289062-2-1.921874-1.09375-1.011719-2.246094-1.960938-3.445313-2.847657-.800781-.558593-1.539062-1.097656-2.347656-1.601562-1.289063-.800781-2.625-1.523438-4-2.167969-.796875-.398438-1.644531-.796875-2.511719-1.160156-1.566406-.59375-3.167968-1.085938-4.796875-1.480469-.800781-.199219-1.539062-.46875-2.34375-.621094-6.316406-1.289062-12.851562-.953125-19 .976563-.113281 0-.242187 0-.355469.078125-1.164062.296875-2.304687.699219-3.398437 1.199219l-.320313.136718h-.09375c-1.355468.578125-2.59375 1.152344-3.9375 1.871094-1.121093.628906-2.191406 1.339844-3.199218 2.128906-.160156.113282-.304688.230469-.464844.335938-.472656.335937-.945312.648437-1.398438 1-.949218.703125-1.847656 1.46875-2.691406 2.296875-.101562.09375-.167968.191406-.261718.28125-.519532.496093-1.015626 1.015625-1.511719 1.535156-.21875.246094-.503907.480469-.703125.726563-.480469.503906-.929688 1.039062-1.347656 1.601562-.382813.472656-.75.957031-1.109376 1.453125 0 .058594-.089843.105469-.121093.160156-.472657.601563-.910157 1.230469-1.3125 1.882813-4.511719 8.019531-12.84375 13.148437-22.039063 13.566406-2.734375.019531-5.464844.265625-8.160156.746094v-19.945313l94.449219-49.679687c3.496093-1.839844 6.917969-3.800782 10.328125-5.761719l89.246094-31.878906c-19.238282 23.941406-46.078126 40.59375-76.070313 47.199219l-15.6875 3.480468c-4.058594.820313-6.820313 4.597656-6.367187 8.714844.449218 4.113281 3.964843 7.203125 8.101562 7.125.585938 0 1.171875-.0625 1.742188-.183594l15.683593-3.488281c34.863281-7.714844 65.851563-27.5625 87.445313-56 1.972656 2.214844 4.410156 3.964844 7.136718 5.128906v54.542969c0 4.417969 3.582032 8 8 8 4.417969 0 8-3.582031 8-8v-54.582031c2.726563-1.164063 5.164063-2.917969 7.136719-5.128907 21.59375 28.4375 52.585938 48.28125 87.449219 56l15.679688 3.488282c.566406.132812 1.144531.207031 1.726562.222656 4.089844.011719 7.53125-3.0625 7.976562-7.128906.441407-4.066406-2.253906-7.816406-6.25-8.6875l-15.6875-3.480469c-29.726562-6.546875-56.367187-22.960937-75.589843-46.566406l86.671875 33.335937c.167968.0625.351562.039063.519531.097656 2.222656 1.175782 4.40625 2.398438 6.664063 3.535157l99.695312 49.839843zm0 0"/></svg>