<svg height="480pt" viewBox="0 -28 480.04312 480" width="480pt" xmlns="http://www.w3.org/2000/svg"><path d="m108.042969 280.019531h16v-32c0-4.417969-3.582031-8-8-8h-24v16h16zm0 0"/><path d="m132.035156 240.019531h16v16h-16zm0 0"/><path d="m100.035156 296.019531h32v16h-32zm0 0"/><path d="m104.042969 384.019531h16v16h-16zm0 0"/><path d="m349.699219 154.363281-104-104-.054688-.070312c-.632812-.601563-1.355469-1.09375-2.144531-1.457031-.15625-.078126-.316406-.148438-.480469-.207032-.175781-.074218-.34375-.136718-.527343-.191406-.535157-.164062-1.085938-.273438-1.640626-.320312-.167968 0-.328124-.058594-.503906-.066407-.175781-.007812-.214844-.03125-.304687-.03125-.085938 0-.398438.066407-.601563.074219-.199218.007812-.160156 0-.246094 0-.089843 0-.183593.078125-.289062.09375-.375.046875-.746094.113281-1.109375.207031-.179687.058594-.335937.136719-.503906.203125-.457031.15625-.894531.351563-1.3125.589844-.121094.074219-.21875.160156-.328125.242188-.109375.0625-.210938.136718-.304688.214843-.105468.070313-.222656.09375-.328125.175781-.105469.078126-.082031.105469-.128906.152344-.617187.492188-1.15625 1.078125-1.597656 1.734375l-10.851563 16.890625-56.148437 87.085938v.082031l-14.53125 22.496094c-5.640625-1.464844-11.449219-2.21875-17.277344-2.242188h-30.5625c-19.988281-.054687-39.167969 7.890625-53.261719 22.066407-14.195312 14.230468-24.902344 31.554687-31.28125 50.613281l-17.289062 51.882812c-4.4375 13.132813-1.707032 27.632813 7.203125 38.253907l17.664062 21.183593h-10.914062c-4.417969 0-8 3.582031-8 8v33.25l-6.71875 10.398438c-1.597657 2.460937-1.71875 5.597656-.316407 8.175781 1.402344 2.578125 4.101563 4.179688 7.035157 4.175781h464c.742187 0 1.480469-.105469 2.191406-.3125h.066406c.117188 0 .214844-.109375.328125-.152343.621094-.210938 1.214844-.496094 1.765625-.855469.226563-.160157.441407-.328125.648438-.511719.398437-.3125.761719-.667969 1.089843-1.054688.195313-.234374.375-.480468.542969-.738281.121094-.183593.289063-.335937.390625-.527343.113282-.257813.210938-.527344.289063-.800782.125-.273437.234375-.558594.328125-.847656.152344-.554688.246094-1.125.28125-1.703125 0-.175781.078125-.335937.078125-.511719v-127.984375c0-2.121093-.84375-4.15625-2.34375-5.65625zm-16.671875 5.960938-9.449219 10.542969-36.253906-56.246094zm-92.984375-89.527344 67.816406 105.222656h-62.046875l-6.183594-18.527343c-1.089844-3.265626-4.144531-5.46875-7.585937-5.472657h-44.34375zm-136.121094 121.222656h30.5625c14.34375-.027343 28.09375 5.742188 38.117187 16h-109.109374c10.941406-10.296875 25.40625-16.023437 40.429687-16zm-18.34375 144h1.761719c17.644531 10.667969 39.746094 10.667969 57.390625 0h1.777343l33.597657 13.433594.105469 10.566406h-128.167969v-10.574219zm-9.535156-48v-64h80v64c0 22.09375-17.910157 40-40 40-22.089844 0-40-17.90625-40-40zm83.023437 35.785157c.800782-.914063 1.464844-1.886719 2.167969-2.855469l53.601563-.730469c-.878907 3.054688-2.355469 5.902344-4.34375 8.378906l-14.847657 17.824219c-1.003906-5.304687-4.613281-9.746094-9.601562-11.808594zm10.402344-18.96875c1.714844-5.441407 2.582031-11.113282 2.574219-16.816407v-.183593l36.609375-.6875 5.695312 17.078124zm2.589844-33v-15.816407h26.242187l5.070313 15.199219zm-.015625-31.816407v-16h12.441406c3.125 5.109375 5.839844 10.460938 8.109375 16zm-122.167969-16h10.167969v16h-19.777344c2.761719-5.585937 5.976563-10.9375 9.609375-16zm-16.078125 32h26.246094v15.753907l-31.296875-.554688zm-10.355469 31.066407 36.601563.695312v.238281c-.007813 5.699219.863281 11.367188 2.574219 16.800781l-44.863282-.609374zm-1.847656 41.511718c-1.996094-2.488281-3.480469-5.351562-4.359375-8.417968l53.601563.730468c.71875.980469 1.429687 1.972656 2.207031 2.910156l-26.894531 10.761719c-5.0625 2.023438-8.714844 6.519531-9.65625 11.886719zm178.449219 79.421875h-176v-8h64v-16h-64v-8h176zm16 0v-40c0-4.417969-3.582031-8-8-8h-2.917969l17.652344-21.183593c8.90625-10.625 11.636718-25.121094 7.203125-38.253907l-19.539063-58.539062c-4.824218-14.488281-12.175781-28.011719-21.71875-39.933594-5.949218-7.410156-13.359375-13.519531-21.765625-17.945313l10.4375-16.144531h48.878907l6.1875 18.527344c1.085937 3.265625 4.140624 5.472656 7.582031 5.472656h78.128906l139.199219 216zm248-19.199219-131.480469-204 11.800781-13.167968 119.679688 119.679687zm0 0"/><path d="m304.042969 240.019531h-32v16h16v16h32v-16h-16zm0 0"/><path d="m368.042969 392.019531h32v-16h-16v-16h-32v16h16zm0 0"/><path d="m424.042969 312.019531h24v-16h-16v-16h-16v16h8zm0 0"/><path d="m248.042969 304.019531h32v16h-32zm0 0"/><path d="m280.042969 336.019531h32v16h-32zm0 0"/><path d="m216.042969 208.019531h24v16h-24zm0 0"/><path d="m248.042969 152.019531h24v-16h-16v-16h-32v16h24zm0 0"/><path d="m472.042969 48.019531h-24.640625c-.796875-5.546875-2.425782-10.941406-4.839844-16h13.480469c4.417969 0 8-3.582031 8-8s-3.582031-8-8-8h-24.886719c-21.714844-21.332031-56.511719-21.332031-78.226562 0h-24.886719c-4.417969 0-8 3.582031-8 8s3.582031 8 8 8h13.480469c-2.414063 5.058594-4.042969 10.453125-4.839844 16h-24.640625c-4.417969 0-8 3.582031-8 8s3.582031 8 8 8h24.640625c.796875 5.546875 2.425781 10.941407 4.839844 16h-13.480469c-4.417969 0-8 3.582031-8 8s3.582031 8 8 8h24.886719c21.714843 21.332031 56.511718 21.332031 78.226562 0h24.886719c4.417969 0 8-3.582031 8-8s-3.582031-8-8-8h-13.480469c2.414062-5.058593 4.042969-10.453125 4.839844-16h24.640625c4.417969 0 8-3.582031 8-8s-3.582031-8-8-8zm-80 48c-22.089844 0-40-17.90625-40-40 0-22.089843 17.910156-40 40-40 22.089843 0 40 17.910157 40 40-.027344 22.082031-17.917969 39.972657-40 40zm0 0"/></svg>