<svg height="480pt" viewBox="0 -36 480.04769 480" width="480pt" xmlns="http://www.w3.org/2000/svg"><path d="m1.195312 259.816406c-1.457031 2.359375-1.589843 5.304688-.351562 7.785156l7.160156 14.308594v118.113282c0 4.417968 3.582032 8 8 8h448c4.417969 0 8-3.582032 8-8v-118.113282l7.199219-14.308594c1.242187-2.488281 1.105469-5.441406-.363281-7.804687-1.46875-2.359375-4.054688-3.789063-6.835938-3.773437v-22.113282l7.199219-14.308594c1.242187-2.488281 1.105469-5.441406-.363281-7.804687-1.46875-2.359375-4.054688-3.789063-6.835938-3.773437v-22.113282l7.199219-14.308594c1.242187-2.488281 1.105469-5.441406-.363281-7.804687-1.46875-2.359375-4.054688-3.789063-6.835938-3.773437h-1.441406l-14.558594-72.800782v-15.199218c0-4.417969-3.582031-8-8-8-4.417968 0-8 3.582031-8 8v15.199218l-14.558594 72.800782h-1.441406c-2.78125-.015626-5.367187 1.414062-6.835937 3.773437-1.46875 2.363281-1.605469 5.316406-.363281 7.804687l7.199218 14.308594v22.113282c-2.78125-.015626-5.367187 1.414062-6.835937 3.773437-1.46875 2.363281-1.605469 5.316406-.363281 7.804687l7.199218 14.308594v22.113282c-2.78125-.015626-5.367187 1.414062-6.835937 3.773437-1.46875 2.363281-1.605469 5.316406-.363281 7.804687l7.199218 14.308594v46.113282h-24v-110.113282l7.199219-14.308594c1.242187-2.488281 1.105469-5.441406-.363281-7.804687-1.46875-2.359375-4.054688-3.789063-6.835938-3.773437v-22.113282l7.199219-14.308594c1.242187-2.488281 1.105469-5.441406-.363281-7.804687-1.46875-2.359375-4.054688-3.789063-6.835938-3.773437v-22.113282l7.199219-14.308594c1.242187-2.488281 1.105469-5.441406-.363281-7.804687-1.46875-2.359375-4.054688-3.789063-6.835938-3.773437h-1.441406l-14.558594-72.800782v-15.199218c0-4.417969-3.582031-8.0000005-8-8.0000005-4.417968 0-8 3.5820315-8 8.0000005v15.199218l-14.558594 72.800782h-1.441406c-2.78125-.015626-5.367187 1.414062-6.835937 3.773437-1.46875 2.363281-1.605469 5.316406-.363281 7.804687l7.199218 14.308594v22.113282c-2.78125-.015626-5.367187 1.414062-6.835937 3.773437-1.46875 2.363281-1.605469 5.316406-.363281 7.804687l7.199218 14.308594v22.113282c-2.78125-.015626-5.367187 1.414062-6.835937 3.773437-1.46875 2.363281-1.605469 5.316406-.363281 7.804687l7.199218 14.308594v14.113282h-1.472656c-2.207031-6.421876-7.0625-11.585938-13.335938-14.1875-6.273437-2.601563-13.359374-2.386719-19.464843.589843-1.503907-1.546875-3.570313-2.410156-5.726563-2.402343v-32c0-.128907-.0625-.238282-.070312-.367188-.027344-.886719-.207032-1.765625-.53125-2.59375 0-.054688 0-.117188-.046875-.183594-.300781-.714844-.703125-1.378906-1.199219-1.976562l-24.640625-29.558594c-5.859375-7.027344-13.273437-12.59375-21.65625-16.257812-.667969-11.328126-5.476563-22.015626-13.511719-30.03125l-2.34375-2.34375v-12.6875c0-4.417969-3.582031-8-8-8-4.417968 0-8 3.582031-8 8v12.6875l-2.34375 2.34375c-8.035156 8.015624-12.84375 18.703124-13.511718 30.03125-8.382813 3.664062-15.796876 9.230468-21.65625 16.257812l-24.640626 29.601562c-.496093.59375-.898437 1.261719-1.199218 1.972657 0 .058593 0 .121093-.046875.1875-.324219.824219-.503907 1.703125-.53125 2.589843 0 .128907-.070313.242188-.070313.367188v32c-2.148437 0-4.203125.863281-5.703125 2.402344-6.105469-2.976563-13.191406-3.191406-19.464843-.589844-6.273438 2.601562-11.128907 7.765625-13.335938 14.1875h-1.496094v-14.152344l7.160156-14.308594c1.238282-2.480468 1.105469-5.425781-.351562-7.785156-1.460938-2.359375-4.035156-3.792968-6.808594-3.792968v-22.113282l7.160156-14.308594c1.238282-2.480468 1.105469-5.425781-.351562-7.785156-1.460938-2.359375-4.035156-3.792968-6.808594-3.792968v-22.113282l7.160156-14.308594c1.238282-2.480468 1.105469-5.425781-.351562-7.785156-1.460938-2.359375-4.035156-3.792968-6.808594-3.792968h-1.441406l-14.558594-72.800782v-15.199218c0-4.417969-3.582031-8.0000005-8-8.0000005-4.417968 0-8 3.5820315-8 8.0000005v15.199218l-14.558594 72.800782h-1.441406c-2.773437 0-5.347656 1.433593-6.808594 3.792968-1.457031 2.359375-1.589843 5.304688-.351562 7.785156l7.160156 14.308594v22.113282c-2.773437 0-5.347656 1.433593-6.808594 3.792968-1.457031 2.359375-1.589843 5.304688-.351562 7.785156l7.160156 14.308594v22.113282c-2.773437 0-5.347656 1.433593-6.808594 3.792968-1.457031 2.359375-1.589843 5.304688-.351562 7.785156l7.160156 14.308594v110.113282h-24v-46.113282l7.199219-14.308594c1.242187-2.488281 1.105469-5.441406-.363281-7.804687-1.46875-2.359375-4.054688-3.789063-6.835938-3.773437v-22.113282l7.199219-14.308594c1.242187-2.488281 1.105469-5.441406-.363281-7.804687-1.46875-2.359375-4.054688-3.789063-6.835938-3.773437v-22.113282l7.199219-14.308594c1.242187-2.488281 1.105469-5.441406-.363281-7.804687-1.46875-2.359375-4.054688-3.789063-6.835938-3.773437h-1.441406l-14.558594-72.800782v-15.199218c0-4.417969-3.582031-8-8-8-4.417968 0-8 3.582031-8 8v15.199218l-14.558594 72.800782h-1.441406c-2.773437 0-5.347656 1.433593-6.808594 3.792968-1.457031 2.359375-1.589843 5.304688-.351562 7.785156l7.160156 14.308594v22.113282c-2.773437 0-5.347656 1.433593-6.808594 3.792968-1.457031 2.359375-1.589843 5.304688-.351562 7.785156l7.160156 14.308594v22.113282c-2.773437 0-5.347656 1.433593-6.808594 3.792968zm446.808594-130.992187 6.238282 31.199219h-12.476563zm11.054688 47.199219-2.214844 4.425781c-.554688 1.109375-.839844 2.332031-.839844 3.574219v24h-16v-24c.011719-1.238282-.261718-2.460938-.800781-3.574219l-2.253906-4.425781zm0 48-2.214844 4.425781c-.554688 1.109375-.839844 2.332031-.839844 3.574219v24h-16v-24c.011719-1.238282-.261718-2.460938-.800781-3.574219l-2.253906-4.425781zm0 48-2.214844 4.425781c-.554688 1.109375-.839844 2.332031-.839844 3.574219v112h-16v-112c.011719-1.238282-.261718-2.460938-.800781-3.574219l-2.253906-4.425781zm-83.054688-207.199219 6.238282 31.199219h-12.476563zm11.054688 47.199219-2.214844 4.425781c-.554688 1.109375-.839844 2.332031-.839844 3.574219v24h-16v-24c.011719-1.238282-.261718-2.460938-.800781-3.574219l-2.253906-4.425781zm0 48-2.214844 4.425781c-.554688 1.109375-.839844 2.332031-.839844 3.574219v24h-16v-24c.011719-1.238282-.261718-2.460938-.800781-3.574219l-2.253906-4.425781zm0 48-2.214844 4.425781c-.554688 1.109375-.839844 2.332031-.839844 3.574219v32c-4.132812-5.546876-9.652344-9.914063-16-12.664063v-19.335937c.011719-1.238282-.261718-2.460938-.800781-3.574219l-2.253906-4.425781zm-35.054688 40c2.039063-.015626 4.070313.25 6.03125.800781 7.996094 2.0625 14.351563 8.117187 16.800782 16-2.242188-.511719-4.53125-.777344-6.832032-.800781-5.632812.035156-11.15625 1.570312-16 4.449218zm16 32c8.835938 0 16 7.164062 16 16h-32c0-8.835938 7.164063-16 16-16zm-16 32h32v16h-32zm-24-80c4.417969 0 8 3.582031 8 8h-16c0-4.417969 3.582032-8 8-8zm-8 32v-8h16v16h-16zm0 32v-8h16v40h-16zm-35.769531-64h19.769531v12.183593c-6.027344-4.910156-12.671875-9.003906-19.769531-12.183593zm8.984375 24h-102.398438l.28125-.222657c12.773438-10.191406 28.625-15.75 44.964844-15.777343h11.9375c16.453125.039062 32.402344 5.679687 45.214844 16zm-20-96.441407 13.707031 16.441407h-23.328125c-.90625-10.035157-3.550781-19.835938-7.808594-28.96875 6.773438 2.640624 12.769532 6.949218 17.429688 12.527343zm-33.214844-44.199219c3.359375 3.714844 5.742188 8.203126 6.9375 13.066407-4.609375-.566407-9.265625-.566407-13.875 0 1.195313-4.863281 3.578125-9.351563 6.9375-13.066407zm0 35.839844c4.015625 7.734375 6.578125 16.140625 7.550782 24.800782h-15.101563c.972656-8.660157 3.535156-17.066407 7.550781-24.800782zm-33.214844 8.378906c4.660157-5.582031 10.65625-9.890624 17.429688-12.53125-4.257812 9.128907-6.898438 18.921876-7.808594 28.953126h-23.328125zm-22.785156 32.421876h112v24h-16v-8c0-4.417969-3.582031-8-8-8-4.417968 0-8 3.582031-8 8v8h-16v-8c0-4.417969-3.582031-8-8-8-4.417968 0-8 3.582031-8 8v8h-16v-8c0-4.417969-3.582031-8-8-8-4.417968 0-8 3.582031-8 8v8h-16zm-8 48v-8h23.496094c-6.574219 2.988281-12.757812 6.78125-18.398438 11.289062l-5.097656 4.0625zm0 40v-8h128v16h-128zm0 24h128v24h-24v-8h-16v8h-16v-8h-16v8h-16v-8h-16v8h-24zm-24-72c4.417969 0 8 3.582031 8 8h-16c0-4.417969 3.582032-8 8-8zm-8 24h16v16h-16zm0 48v-16h16v40h-16zm-16-56v20.449218c-6.851562-4.140625-15.042968-5.457031-22.847656-3.671875 2.511719-7.925781 8.953125-13.980469 17.015625-16 1.898437-.53125 3.859375-.792969 5.832031-.777343zm-32 48c0-8.835938 7.164063-16 16-16 8.835938 0 16 7.164062 16 16zm32 16v16h-32v-16zm-24-247.199219 6.238282 31.199219h-12.476563zm11.054688 47.199219-2.214844 4.425781c-.554688 1.109375-.839844 2.332031-.839844 3.574219v24h-16v-24c0-1.242188-.285156-2.464844-.839844-3.574219l-2.214843-4.425781zm0 48-2.214844 4.425781c-.554688 1.109375-.839844 2.332031-.839844 3.574219v24h-16v-24c0-1.242188-.285156-2.464844-.839844-3.574219l-2.214843-4.425781zm0 48-2.214844 4.425781c-.554688 1.109375-.839844 2.332031-.839844 3.574219v19.375c-6.347656 2.757812-11.867187 7.128906-16 12.679687v-32.054687c0-1.242188-.285156-2.464844-.839844-3.574219l-2.214843-4.425781zm-59.054688 136h368v48h-16v-16c0-4.417969-3.582031-8-8-8-4.417968 0-8 3.582031-8 8v16h-16v-16c0-4.417969-3.582031-8-8-8-4.417968 0-8 3.582031-8 8v16h-16v-16c0-4.417969-3.582031-8-8-8-4.417968 0-8 3.582031-8 8v16h-16v-16c0-4.417969-3.582031-8-8-8-4.417968 0-8 3.582031-8 8v16h-16v-16c0-4.417969-3.582031-8-8-8-4.417968 0-8 3.582031-8 8v16h-16v-16c0-4.417969-3.582031-8-8-8-4.417968 0-8 3.582031-8 8v16h-16v-16c0-4.417969-3.582031-8-8-8-4.417968 0-8 3.582031-8 8v16h-16v-16c0-4.417969-3.582031-8-8-8-4.417968 0-8 3.582031-8 8v16h-16v-16c0-4.417969-3.582031-8-8-8-4.417968 0-8 3.582031-8 8v16h-16v-16c0-4.417969-3.582031-8-8-8-4.417968 0-8 3.582031-8 8v16h-16v-16c0-4.417969-3.582031-8-8-8-4.417968 0-8 3.582031-8 8v16h-16zm-24-215.199219 6.238282 31.199219h-12.476563zm11.054688 47.199219-2.214844 4.425781c-.554688 1.109375-.839844 2.332031-.839844 3.574219v24h-16v-24c0-1.242188-.285156-2.464844-.839844-3.574219l-2.214843-4.425781zm0 48-2.214844 4.425781c-.554688 1.109375-.839844 2.332031-.839844 3.574219v24h-16v-24c0-1.242188-.285156-2.464844-.839844-3.574219l-2.214843-4.425781zm0 48-2.214844 4.425781c-.554688 1.109375-.839844 2.332031-.839844 3.574219v112h-16v-112c0-1.242188-.285156-2.464844-.839844-3.574219l-2.214843-4.425781zm0 0"/></svg>