<svg height="480pt" viewBox="0 -64 480.00385 480" width="480pt" xmlns="http://www.w3.org/2000/svg"><path d="m170.234375 96h-18.234375c-3.441406 0-6.5 2.207031-7.589844 5.472656l-14.175781 42.527344h-10.234375c-3.441406 0-6.5 2.207031-7.589844 5.472656l-14.175781 42.527344h-10.234375c-3.441406 0-6.5 2.207031-7.589844 5.472656l-14.175781 42.527344h-10.234375c-3.441406 0-6.5 2.207031-7.589844 5.472656l-14.175781 42.527344h-10.234375c-3.441406 0-6.5 2.207031-7.589844 5.472656l-16 48c-.8125 2.441406-.4023435 5.121094 1.101563 7.207032 1.503906 2.085937 3.917969 3.324218 6.488281 3.320312h464c2.574219.003906 4.988281-1.234375 6.492188-3.320312 1.503906-2.085938 1.914062-4.765626 1.101562-7.207032l-16-48c-1.089844-3.265625-4.148438-5.472656-7.59375-5.472656h-10.230469l-14.175781-42.527344c-1.089844-3.265625-4.148438-5.472656-7.59375-5.472656h-10.230469l-14.175781-42.527344c-1.089844-3.265625-4.148438-5.472656-7.59375-5.472656h-10.230469l-14.175781-42.527344c-1.089844-3.265625-4.148438-5.472656-7.59375-5.472656h-10.230469l-14.175781-42.527344c-1.089844-3.265625-4.148438-5.472656-7.59375-5.472656h-18.230469l-5.769531-17.292969v-30.707031c4.421875 0 8-3.578125 8-8v-32c0-4.417969-3.578125-8-8-8h-128c-4.417969 0-8 3.582031-8 8v32c0 4.421875 3.582031 8 8 8v30.707031zm-44.464844 64h51.03125l-8.527343 32h-53.175782zm162.640625-77.46875 4.496094 13.46875h-28.90625v-24c0-4.417969-3.578125-8-8-8h-32c-4.417969 0-8 3.582031-8 8v24h-28.902344l4.496094-13.46875c.269531-.816406.410156-1.671875.40625-2.53125v-32h96v32c0 .859375.140625 1.714844.410156 2.53125zm-8.152344 53.46875 2.136719 8h-84.792969l2.398438-8.957031v.957031zm-24.257812-24h17.859375l2.132813 8h-72l2.136718-8zm-24-16v-16h16v16zm-38.652344 64h93.308594l2.136719 8h-97.589844zm99.710938 24 2.128906 8h-110.386719l2.128907-8zm6.398437 24 2.128907 8h-123.183594l2.128906-8zm6.402344 24 2.125 8h-136l2.128906-8zm-146.65625 56 2.125-8h157.328125l2.128906 8zm165.839844 16 2.128906 8h-174.371094l2.128907-8zm-159.441407-40 2.128907-8h144.527343l2.128907 8zm-71.847656-56h70.246094l-8.527344 32h-72.375zm36.089844 128h-110.746094l10.671875-32h108.632813zm-78.746094-48 10.671875-32h89.433594l-8.527344 32zm95.304688 48 2.128906-8h182.925781l2.128907 8zm293.597656-32h10.234375l10.671875 32h-110.761719l-8.542969-32zm-32-48h10.234375l10.671875 32h-91.558594l-8.546875-32zm-32-48h10.234375l10.671875 32h-72.359375l-8.546875-32zm-32-48h10.234375l10.671875 32h-53.160156l-8.542969-32zm-21.765625-48 10.671875 32h-33.960938l-8.542968-32zm-138.234375-96h112v16h-112zm5.601562 96-8.527343 32h-33.976563l10.671875-32zm0 0"/></svg>