<svg height="480pt" viewBox="0 0 480 480" width="480pt" xmlns="http://www.w3.org/2000/svg"><path d="m376 264c13.253906 0 24-10.746094 24-24s-10.746094-24-24-24-24 10.746094-24 24 10.746094 24 24 24zm0-32c4.417969 0 8 3.582031 8 8s-3.582031 8-8 8-8-3.582031-8-8 3.582031-8 8-8zm0 0"/><path d="m479.585938 421.472656-16-48c-1.089844-3.265625-4.144532-5.46875-7.585938-5.472656h-8v-16h-16v16h-16v-80c4.417969 0 8-3.582031 8-8v-96c.011719-1.238281-.261719-2.460938-.800781-3.574219l-15.199219-30.3125v-30.113281c0-.070312-.039062-.136719-.039062-.214844-.011719-.785156-.136719-1.566406-.375-2.3125l-23.585938-70.761718v-14.710938h8c4.417969 0 8-3.582031 8-8s-3.582031-8-8-8h-8v-8c0-4.417969-3.582031-8-8-8s-8 3.582031-8 8v8h-8c-4.417969 0-8 3.582031-8 8s3.582031 8 8 8h8v14.710938l-23.585938 70.761718c-.238281.746094-.363281 1.527344-.375 2.3125 0 .078125-.039062.144532-.039062.214844v30.113281l-15.199219 30.3125c-.539062 1.113281-.8125 2.335938-.800781 3.574219v96c0 4.417969 3.582031 8 8 8v80h-16v-16h-16v16h-16v-104h-16v46.113281l-8-16v-22.113281h-16v16h-16v-16h-16v22.113281l-8 16v-46.113281h-16v104h-16v-16h-16v16h-16v-104h-16v46.113281l-8-16v-22.113281h-16v16h-16v-16h-16v22.113281l-8 16v-46.113281h-16v104h-16v-16h-16v16h-8c-4.417969 0-8 3.582031-8 8v96c0 4.417969 3.582031 8 8 8h464c4.417969 0 8-3.582031 8-8v-48c0-.070312-.039062-.136719-.039062-.214844-.011719-.785156-.136719-1.566406-.375-2.3125zm-431.585938 42.527344h-32v-32h32zm0-48h-32v-32h32zm36.945312-112h22.109376l16 32h-54.109376zm43.054688 160h-24v-16h-16v16h-24v-32h64zm0-48h-24v-16h-16v16h-24v-32h64zm0-48h-64v-16h64zm16 16h16v32h-16zm48 80h-16v-16h-16v16h-16v-32h48zm0-48h-16v-32h16zm36.945312-112h22.109376l16 32h-54.109376zm43.054688 160h-24v-16h-16v16h-24v-32h64zm0-48h-24v-16h-16v16h-24v-32h64zm0-48h-64v-16h64zm16 16h16v32h-16zm48 80h-16v-16h-16v16h-16v-32h48zm0-56v8h-16v-32h16zm40-334.703125 12.894531 38.703125h-25.789062zm-16 54.703125h32v16h-32zm40 296v40h-48v-48h48zm0-48v24h-48v-48h48zm0-40h-48v-48h48zm8-64h-64v-64h64zm0-80h-64v-6.113281l12.945312-25.886719h38.109376l12.945312 25.886719zm40 192h2.230469l10.664062 32h-12.894531zm-32 24v-24h16v32h-16zm48 56h-16v-16h-16v16h-16v-32h48zm0 0"/><path d="m368 304h16v16h-16zm0 0"/><path d="m368 368h16v16h-16zm0 0"/><path d="m368 432h16v16h-16zm0 0"/></svg>