<svg height="479pt" viewBox="0 1 479 479.99958" width="479pt" xmlns="http://www.w3.org/2000/svg"><path d="m479.898438 421.246094c-.070313-.175782-.109376-.359375-.183594-.527344-.070313-.167969-.054688-.199219-.101563-.296875l-16-32c-1.355469-2.710937-4.128906-4.421875-7.160156-4.421875h-40c-3.046875-.015625-5.839844 1.699219-7.203125 4.421875l-16 32c-.046875.097656-.054688.203125-.101562.296875-.046876.097656-.113282.351562-.183594.527344-.285156.773437-.449219 1.582031-.488282 2.402344 0 .109374-.066406.199218-.066406.3125v40h-97.398437l-10.640625-53.128907c2.90625-.679687 5.769531-1.433593 8.617187-2.242187-.039062 6.390625 2.472657 12.535156 6.976563 17.066406 4.507812 4.53125 10.632812 7.078125 17.023437 7.078125 9.730469-.015625 18.488281-5.910156 22.171875-14.917969 3.679688-9.007812 1.558594-19.347656-5.371094-26.175781 9.070313-5.042969 17.71875-10.808594 25.863282-17.242187 3.613281 9.066406 12.351562 15.042968 22.109375 15.117187 9.757812.074219 18.589843-5.765625 22.339843-14.773437 3.753907-9.007813 1.675782-19.390626-5.25-26.261719-2.304687-2.285157-5.070312-4.050781-8.113281-5.175781 6.492188-8.152344 12.3125-16.8125 17.402344-25.90625 7.640625 7.796874 19.578125 9.453124 29.054687 4.035156 9.472657-5.421875 14.097657-16.550782 11.253907-27.089844s-12.441407-17.828125-23.359375-17.746094c2.84375-9.949218 4.871094-20.117187 6.058594-30.398437 10.042968 4.226562 21.671874 1.160156 28.324218-7.472657 6.648438-8.632812 6.648438-20.660156 0-29.292968-6.652344-8.632813-18.28125-11.703125-28.324218-7.472656-1.191407-10.28125-3.214844-20.449219-6.058594-30.402344h.179687c10.878907-.011719 20.390625-7.34375 23.171875-17.863282 2.78125-10.523437-1.863281-21.597656-11.316406-26.984374-9.453125-5.390626-21.351562-3.746094-28.984375 4.007812-5.054687-9.089844-10.835937-17.761719-17.289063-25.917969 7.460938-3.015625 12.914063-9.570312 14.523438-17.453125 1.609375-7.886718-.839844-16.050781-6.523438-21.75-9.496093-9.0625-24.4375-9.0625-33.9375 0-2.28125 2.28125-4.078124 5.003906-5.277343 8-8.136719-6.460937-16.777344-12.257812-25.839844-17.335937 7.03125-6.800781 9.234375-17.1875 5.5625-26.257813-3.671875-9.070312-12.484375-15-22.265625-14.992187-9.785156.007812-18.585938 5.953125-22.242188 15.027343-1.222656 2.957032-1.839843 6.128907-1.824218 9.328126-9.953125-2.84375-20.117188-4.867188-30.398438-6.054688 4.226563-10.042969 1.15625-21.675781-7.472656-28.324219-8.632812-6.652343-20.664062-6.652343-29.296875 0-8.628906 6.648438-11.699219 18.28125-7.472656 28.324219-10.28125 1.1875-20.445313 3.210938-30.398438 6.054688.042969-8.039063-3.9375-15.566407-10.605469-20.050782-6.671874-4.484375-15.144531-5.335937-22.570312-2.261718-7.453125 3.042968-12.867188 9.640624-14.40625 17.542968-1.535156 7.902344 1.019531 16.046875 6.789062 21.65625-9.097656 5.078125-17.773437 10.878906-25.945312 17.34375-1.199219-2.996094-2.992188-5.71875-5.277344-8-9.5-9.0625-24.445312-9.0625-33.945312 0-9.367188 9.375-9.367188 24.566406 0 33.9375 2.285156 2.285156 5.003906 4.082032 8 5.289063-6.453125 8.117187-12.238282 16.742187-17.304688 25.792969-7.640625-7.753907-19.542968-9.394532-28.996094-3.992188-9.453124 5.402344-14.085937 16.488281-11.289062 27.007812 2.796875 10.519532 12.328125 17.839844 23.214844 17.832032h.175781c-2.839844 9.949218-4.867187 20.117187-6.054687 30.398437-10.042969-4.226562-21.675782-1.160156-28.324219 7.472657-6.652344 8.632812-6.652344 20.664062 0 29.292968 6.648437 8.632813 18.28125 11.703125 28.324219 7.476563 1.1875 10.28125 3.210937 20.445312 6.054687 30.398437-10.914063-.085937-20.511719 7.207032-23.359375 17.742188-2.84375 10.539062 1.78125 21.671875 11.257812 27.089844 9.472657 5.417968 21.414063 3.761718 29.054688-4.03125 5.089844 9.089843 10.90625 17.753906 17.398438 25.902343-3.042969 1.128907-5.808594 2.890625-8.113282 5.175781-9.390625 9.371094-9.410156 24.578126-.042968 33.972657 9.371093 9.394531 24.578124 9.414062 33.972656.042969 2.285156-2.28125 4.082031-5 5.28125-8 8.117187 6.453124 16.742187 12.242187 25.789062 17.304687-7.765625 7.652344-9.402344 19.578125-3.980468 29.035156 5.425781 9.460938 16.542968 14.074219 27.070312 11.238281 10.527344-2.839843 17.820312-12.417968 17.75-23.320312 2.847656.800781 5.714844 1.597656 8.617188 2.238281l-10.632813 53.105469h-105.4375v-56c0-.175781-.089844-.320312-.097656-.496094-.046875-.71875-.191407-1.429687-.433594-2.113281-.074219-.253906-.160156-.503906-.261719-.75-.378906-.839844-.894531-1.609375-1.527344-2.273437l-32-32c-3.125-3.121094-8.1875-3.121094-11.3125 0l-32 32c-.636718.664062-1.152343 1.433593-1.527343 2.273437-.101563.246094-.191407.496094-.265625.75-.238282.683594-.382813 1.394531-.429688 2.113281 0 .175782-.097656.320313-.097656.496094v64c0 4.417969 3.582031 8 8 8h463.953125c4.417969 0 8-3.582031 8-8v-48c0-.113281-.058594-.199219-.066406-.3125-.035157-.832031-.199219-1.65625-.488281-2.441406zm-39.445313-205.246094c4.417969 0 8 3.582031 8 8s-3.582031 8-8 8-8-3.582031-8-8 3.582031-8 8-8zm-400 16c-4.417969 0-8-3.582031-8-8s3.582031-8 8-8 8 3.582031 8 8-3.582031 8-8 8zm0 155.3125 12.6875 12.6875h-25.375zm24 76.6875h-48v-48h48zm259.925781-52.167969c-.804687 1.964844-2.363281 3.527344-4.328125 4.335938-1.960937.808593-4.164062.808593-6.128906 0-3.527344-1.460938-5.53125-5.210938-4.785156-8.953125.746093-3.746094 4.03125-6.441406 7.851562-6.4375 1.050781 0 2.089844.207031 3.0625.605468 4.078125 1.691407 6.015625 6.367188 4.328125 10.449219zm63.144532-40.753906c-3.15625 3.035156-8.144532 3.035156-11.304688 0-3.121094-3.121094-3.121094-8.1875 0-11.308594 3.125-3.121093 8.183594-3.121093 11.304688 0 3.125 3.121094 3.125 8.1875 0 11.308594zm34.640624-231.007813c.964844-.402343 2-.609374 3.046876-.605468 3.242187-.007813 6.171874 1.945312 7.410156 4.941406 1.683594 4.082031-.257813 8.761719-4.339844 10.449219-4.078125 1.6875-8.757812-.253907-10.445312-4.332031-1.691407-4.082032.246093-8.761719 4.328124-10.453126zm-4.328124 157.410157c.800781-1.964844 2.363281-3.527344 4.328124-4.328125 1.953126-.832032 4.164063-.832032 6.121094 0 3.980469 1.753906 5.832032 6.367187 4.167969 10.386718-1.667969 4.019532-6.242187 5.96875-10.296875 4.386719-4.078125-1.691406-6.007812-6.367187-4.320312-10.445312zm-41.601563-220.5625c2-2.125 4.996094-2.996094 7.824219-2.269531 2.828125.726562 5.035156 2.933593 5.757812 5.761718.726563 2.828125-.148437 5.824219-2.277344 7.820313-3.15625 3.035156-8.144531 3.035156-11.304687 0-3.125-3.117188-3.132813-8.183594-.015625-11.3125zm-66.636719-40.75c.800782-1.964844 2.359375-3.527344 4.324219-4.335938.972656-.398437 2.007813-.609375 3.058594-.617187 1.054687.007812 2.101562.214844 3.078125.617187 4.078125 1.695313 6.011718 6.371094 4.324218 10.449219-1.691406 4.082031-6.367187 6.019531-10.449218 4.332031-4.082032-1.6875-6.023438-6.363281-4.335938-10.445312zm-69.144531-20.167969c4.417969 0 8 3.582031 8 8s-3.582031 8-8 8-8-3.582031-8-8 3.582031-8 8-8zm-83.929687 20.167969c.804687-1.964844 2.363281-3.527344 4.328124-4.335938 1.964844-.808593 4.164063-.808593 6.128907 0 4.082031 1.691407 6.019531 6.367188 4.328125 10.449219-1.6875 4.082031-6.367188 6.023438-10.449219 4.332031-4.082031-1.6875-6.023437-6.363281-4.335937-10.445312zm-63.144532 40.75c3.125-3.117188 8.183594-3.117188 11.304688 0 3.125 3.125 3.125 8.191406 0 11.3125-3.15625 3.035156-8.144532 3.035156-11.304688 0-3.121094-3.121094-3.121094-8.1875 0-11.3125zm-34.640625 231.007812c-2.988281 1.242188-6.429687.558594-8.714843-1.730469-2.289063-2.285156-2.976563-5.726562-1.738282-8.714843 1.25-2.980469 4.15625-4.929688 7.390625-4.953125 1.050781.003906 2.09375.214844 3.0625.625 1.96875.800781 3.527344 2.363281 4.328125 4.328125 1.6875 4.078125-.246094 8.753906-4.328125 10.445312zm4.328125-157.40625c-1.691406 4.078125-6.367187 6.015625-10.445312 4.328125-4.074219-1.691406-6.011719-6.363281-4.328125-10.441406 1.238281-2.996094 4.164062-4.949219 7.40625-4.941406 1.046875-.003906 2.082031.203125 3.046875.605468 4.078125 1.695313 6.011718 6.371094 4.320312 10.449219zm41.601563 220.558594c-3.160157 3.035156-8.152344 3.035156-11.3125 0-3.121094-3.121094-3.121094-8.1875 0-11.308594 3.125-3.121093 8.179687-3.121093 11.304687 0 3.128906 3.117188 3.140625 8.179688.023438 11.308594zm66.625 40.753906c-.804688 1.964844-2.363281 3.527344-4.328125 4.335938-1.964844.808593-4.171875.808593-6.136719 0-2.992187-1.238281-4.941406-4.15625-4.941406-7.390625 0-3.238282 1.949219-6.15625 4.941406-7.394532 1.960937-.808593 4.160156-.808593 6.121094 0 4.082031 1.6875 6.023437 6.367188 4.335937 10.449219zm30.917969 52.167969 10.023437-50.089844c2.027344.296875 4.058594.539063 6.097656.800782-4.226562 10.042968-1.160156 21.675781 7.472657 28.324218 8.632812 6.652344 20.660156 6.652344 29.292968 0 8.632813-6.648437 11.703125-18.28125 7.472656-28.324218 2.042969-.238282 4.074219-.480469 6.097657-.800782l10.023437 50.089844zm38.242187-64c-8.390625-.007812-16.769531-.617188-25.074219-1.816406l1.601563-8c7.769531 1.152344 15.613281 1.761718 23.472656 1.816406 7.851563-.0625 15.695313-.675781 23.460937-1.832031l1.601563 8c-8.300781 1.207031-16.675781 1.816406-25.0625 1.832031zm8 24c0 4.417969-3.582031 8-8 8s-8-3.582031-8-8 3.582031-8 8-8 8 3.582031 8 8zm-28.328125-49.519531 20.328125-101.554688 20.328125 101.554688c-13.476562 2.027343-27.179688 2.027343-40.65625 0zm32.75-120.992188c1.289062-.589843 2.535156-1.265625 3.730469-2.023437l85.351562 85.335937c-18.613281 16.796875-41.105469 28.714844-65.457031 34.6875zm15.039062-13.335937c1.515626-2.542969 2.660157-5.289063 3.402344-8.152344h120.726563c-1.796875 34.699219-15.496094 67.722656-38.792969 93.503906zm3.402344-24.152344c-.742187-2.863281-1.886718-5.609375-3.402344-8.152344l85.335938-85.351562c23.296875 25.78125 36.996094 58.804687 38.792969 93.503906zm-14.710937-19.464844c-2.542969-1.511718-5.289063-2.65625-8.152344-3.398437v-120.730469c34.699219 1.800781 67.71875 15.5 93.503906 38.792969zm-4.859375 16.144532c6.226562 6.246093 6.226562 16.347656 0 22.59375-6.242188 6.222656-16.347656 6.222656-22.589844 0-5.910156-6.300782-5.753906-16.15625.351562-22.265626 6.109376-6.105468 15.964844-6.261718 22.265626-.351562zm-19.292969-19.542969c-2.867187.742187-5.609375 1.886719-8.152344 3.398437l-85.351562-85.335937c25.78125-23.292969 58.800781-36.992188 93.503906-38.792969zm-19.464844 14.710937c-1.511719 2.542969-2.65625 5.289063-3.402343 8.152344h-120.726563c1.796875-34.699219 15.496094-67.722656 38.792969-93.503906zm-3.402343 24.152344c.746093 2.863281 1.890624 5.609375 3.402343 8.152344l-85.335937 85.351562c-23.296875-25.78125-36.996094-58.804687-38.792969-93.503906zm14.714843 19.464844c1.195313.757812 2.441407 1.433594 3.726563 2.023437l-23.625 118.015625c-24.351563-5.976562-46.84375-17.898437-65.453125-34.703125zm55.351563 135.734375c29.996094-7.183594 57.433594-22.484375 79.304687-44.230469.085938-.082031.199219-.113281.285157-.191406.089843-.082032.113281-.210938.195312-.296875 65.375-65.460938 65.375-171.5 0-236.960938-.082031-.089843-.105469-.207031-.195312-.296875-.085938-.085937-.199219-.109375-.285157-.191406-65.570312-65.574219-171.886719-65.582031-237.460937-.011719-65.578125 65.570313-65.582032 171.882813-.011719 237.460938.078125.085937.101563.207031.191406.296875.089844.085937.199219.109375.289063.191406 21.867187 21.742188 49.296875 37.046875 79.285156 44.230469l-1.597656 8c-86.824219-20.691407-144.414063-103.097657-133.996094-191.746094 10.414062-88.644531 85.539062-155.460937 174.796875-155.460937 89.253906 0 164.378906 66.816406 174.796875 155.460937 10.414062 88.648437-47.171875 171.054687-134 191.746094zm141.742187 12.800781h30.113281l8 16h-46.113281zm43.058594 64h-56v-32h56zm0 0"/><path d="m32.453125 432h16v16h-16zm0 0"/><path d="m424.453125 440h25v16h-25zm0 0"/></svg>