<svg height="480pt" viewBox="0 -48 480 480" width="480pt" xmlns="http://www.w3.org/2000/svg"><path d="m479.375 188.910156c0-.054687-.070312-.101562-.09375-.167968-.269531-.621094-.617188-1.207032-1.035156-1.742188l-32-40c-1.515625-1.898438-3.816406-3-6.246094-3h-8v-16h-16v16h-16v-16h-16v16h-16v-16h-16v16h-8c-2.429688 0-4.730469 1.101562-6.246094 3l-17.753906 22.183594v-65.183594c-.015625-12.003906-2.75-23.847656-8-34.640625v-37.359375h-16v14.96875c-12.957031-12.773438-29.894531-20.734375-48-22.5625v-24.40625h-16v24.40625c-18.105469 1.828125-35.042969 9.789062-48 22.5625v-14.96875h-16v37.359375c-5.25 10.792969-7.984375 22.636719-8 34.640625v65.183594l-17.753906-22.183594c-1.515625-1.898438-3.816406-3-6.246094-3h-8v-16h-16v16h-16v-16h-16v16h-16v-16h-16v16h-8c-2.429688 0-4.730469 1.101562-6.246094 3l-32 40c-.417968.535156-.765625 1.121094-1.035156 1.742188 0 .066406-.070312.113281-.09375.167968-.347656.882813-.5390625 1.816406-.5625 2.761719 0 .121094-.0625.214844-.0625.328125v184c0 4.417969 3.582031 8 8 8h464c4.417969 0 8-3.582031 8-8v-184c0-.113281-.0625-.207031-.0625-.328125-.023438-.945313-.214844-1.878906-.5625-2.761719zm-131.535156-28.910156h88.320312l19.199219 24h-85.457031c-6.429688-9.558594-17.050782-15.460938-28.566406-15.863281zm-27.839844 44c0-11.046875 8.953125-20 20-20s20 8.953125 20 20v12h-40zm-3.3125 84h-25.375l12.6875-12.6875zm-88-24-24 24h-1.375l-20-20 24.6875-24.6875zm-9.375-32 20.6875-20.6875 20.6875 20.6875-20.6875 20.6875zm8 56 12.6875-12.6875 12.6875 12.6875zm25.375 16-16.6875 16.6875-16.6875-16.6875zm-1.375-40 20.6875-20.6875 20.6875 20.6875-20.6875 20.6875zm32-32h20.6875v20.6875zm41.375 72-16.6875 16.6875-16.6875-16.6875zm-84.6875-264c32.535156.050781 59.867188 24.476562 63.558594 56.800781l-59.117188-39.417969c-2.691406-1.792968-6.191406-1.792968-8.882812 0l-59.117188 39.417969c3.691406-32.324219 31.023438-56.75 63.558594-56.800781zm45.601562 64h-91.203124l45.601562-30.398438zm-109.601562 16h128v40h-40v-8c0-13.253906-10.746094-24-24-24s-24 10.746094-24 24v8h-40zm72 32v8h-16v-8c0-4.417969 3.582031-8 8-8s8 3.582031 8 8zm-72 52v-28h128v40h-36.6875l-21.65625-21.65625c-3.125-3.121094-8.1875-3.121094-11.3125 0l-21.65625 21.65625h-36.6875zm0 28h20.6875l-20.6875 20.6875zm-4 47.3125 8.6875 8.6875h-17.375zm16.6875 24.6875-16.6875 16.6875-16.6875-16.6875zm-28.6875-100v12h-40v-12c0-11.046875 8.953125-20 20-20s20 8.953125 20 20zm-116.160156-44h88.320312l6.503906 8.136719c-11.515624.402343-22.136718 6.304687-28.566406 15.863281h-85.449218zm-27.839844 40h88.40625c-.210938 1.324219-.347656 2.660156-.40625 4v12h-88zm0 32h144v36.6875l-16 16v-12.6875c0-2.121094-.84375-4.15625-2.34375-5.65625l-16-16c-3.125-3.121094-8.1875-3.121094-11.3125 0l-16 16c-1.5 1.5-2.34375 3.535156-2.34375 5.65625v16h-16v-16c0-2.121094-.84375-4.15625-2.34375-5.65625l-16-16c-3.125-3.121094-8.1875-3.121094-11.3125 0l-16 16c-1.5 1.5-2.34375 3.535156-2.34375 5.65625v16h-16zm112 43.3125v12.6875h-16v-12.6875l8-8zm-64 0v12.6875h-16v-12.6875l8-8zm0 89.375-3.3125 3.3125h-12.6875v-24c0-4.417969 3.582031-8 8-8 2.160156-.003906 4.222656.882812 5.703125 2.457031 1.488281 1.457031 2.316406 3.460938 2.296875 5.542969zm9.015625-37.542969c-4.460937-4.601562-10.605469-7.183593-17.015625-7.144531-13.253906 0-24 10.746094-24 24v24h-16v-64h108.6875l-44.6875 44.6875v-4.6875c.054688-6.332031-2.46875-12.417969-6.984375-16.855469zm10.296875 40.855469 20.6875-20.6875 20.6875 20.6875zm32-32 24.6875-24.6875 20.6875 20.6875-24.6875 24.6875zm73.375 32h-41.375l24.6875-24.6875 20.6875 20.6875zm-5.375-36 20.6875-20.6875 20.6875 20.6875-20.6875 20.6875zm36 36-4-4 20.6875-20.6875 24.6875 24.6875zm28-36 24.6875-24.6875 24.6875 24.6875-24.6875 24.6875zm77.375 36h-41.375l24.6875-24.6875 20.6875 20.6875zm-5.375-36 20.6875-20.6875 20.6875 20.6875-20.6875 20.6875zm36 36-4-4 20.6875-20.6875 24.6875 24.6875zm76.6875 0h-12.6875l-3.3125-3.3125v-20.6875c-.003906-2.160156.882812-4.222656 2.457031-5.703125 1.457031-1.488281 3.460938-2.316406 5.542969-2.296875 4.417969 0 8 3.582031 8 8zm32 0h-16v-24c0-13.253906-10.746094-24-24-24-13.226562.066406-23.933594 10.773438-24 24v4.6875l-44.6875-44.6875h108.6875zm-112-80v-12.6875l8-8 8 8v12.6875zm64 0v-12.6875l8-8 8 8v12.6875zm48 0h-16v-16c0-2.121094-.84375-4.15625-2.34375-5.65625l-16-16c-3.125-3.121094-8.1875-3.121094-11.3125 0l-16 16c-1.5 1.5-2.34375 3.535156-2.34375 5.65625v16h-16v-16c0-2.121094-.84375-4.15625-2.34375-5.65625l-16-16c-3.125-3.121094-8.1875-3.121094-11.3125 0l-16 16c-1.5 1.5-2.34375 3.535156-2.34375 5.65625v12.6875l-16-16v-36.6875h144zm0-72h-88v-12c-.058594-1.339844-.195312-2.675781-.40625-4h88.40625zm0 0"/></svg>