<svg height="480pt" viewBox="-44 0 480 480" width="480pt" xmlns="http://www.w3.org/2000/svg"><path d="m31.960938 288h16v16h-16zm0 0"/><path d="m31.960938 320h16v16h-16zm0 0"/><path d="m31.960938 352h16v16h-16zm0 0"/><path d="m31.960938 384h16v16h-16zm0 0"/><path d="m31.960938 416h16v16h-16zm0 0"/><path d="m63.960938 288h16v16h-16zm0 0"/><path d="m63.960938 320h16v16h-16zm0 0"/><path d="m63.960938 352h16v16h-16zm0 0"/><path d="m63.960938 384h16v16h-16zm0 0"/><path d="m63.960938 416h16v16h-16zm0 0"/><path d="m295.960938 256v-40c0-4.417969-3.582032-8-8-8v-40c0-4.417969-3.582032-8-8-8v-24c0-4.417969-3.582032-8-8-8v-24c0-.078125-.039063-.136719-.039063-.214844-.011719-.785156-.136719-1.5625-.371094-2.3125l-13.671875-41.007812c4.160156-3.257813 6.425782-8.371094 6.039063-13.636719s-3.371094-9.996094-7.957031-12.613281v-26.214844c0-4.417969-3.582032-8-8-8-4.417969 0-8 3.582031-8 8v26.214844c-4.589844 2.617187-7.574219 7.347656-7.957032 12.613281-.386718 5.265625 1.878906 10.378906 6.035156 13.636719l-13.671874 41.007812c-.230469.75-.355469 1.527344-.367188 2.3125 0 .078125-.039062.136719-.039062.214844v24c-4.417969 0-8 3.582031-8 8v24c-4.417969 0-8 3.582031-8 8v40c-4.417969 0-8 3.582031-8 8v40c-4.417969 0-8 3.582031-8 8v64h-80v-64c0-4.417969-3.582032-8-8-8v-40c0-4.417969-3.582032-8-8-8v-40c0-4.417969-3.582032-8-8-8v-24c0-4.417969-3.582032-8-8-8v-24c0-.078125 0-.136719 0-.214844-.011719-.785156-.136719-1.5625-.367188-2.3125l-13.714844-41.007812c4.160156-3.257813 6.425782-8.371094 6.039063-13.636719s-3.371094-9.996094-7.957031-12.613281v-26.214844c0-4.417969-3.582032-8-8-8-4.417969 0-8 3.582031-8 8v26.214844c-4.589844 2.617187-7.574219 7.347656-7.957032 12.613281-.386718 5.265625 1.878906 10.378906 6.035156 13.636719l-13.671874 41.007812c-.230469.75-.355469 1.527344-.367188 2.3125v.214844 24c-4.417969 0-8 3.582031-8 8v24c-4.417969 0-8 3.582031-8 8v40c-4.417969 0-8 3.582031-8 8v40c-4.417969 0-8 3.582031-8 8v208c0 4.417969 3.582031 8 8 8h95.960938c4.417968 0 8-3.582031 8-8v-21.785156l40-66.671875 40 66.671875v21.785156c0 4.417969 3.582031 8 8 8h96c4.417968 0 8-3.582031 8-8v-208c0-4.417969-3.582032-8-8-8zm-240-174.703125 4.902343 14.703125h-9.808593zm-8 30.703125h16v16h-16zm-8 32h32v16h-32zm-8 32h48v32h-48zm-8 48h64v32h-64zm72 112v128h-16v-16h-16v16h-16v-16h-16v16h-16v-192h80zm16 83.121094v-43.121094h25.871093zm32-59.121094h-32v-16h32zm48 59.121094-25.871094-43.121094h25.871094zm0-59.121094h-32v-16h32zm56-278.703125 4.902343 14.703125h-9.808593zm-8 30.703125h16v16h-16zm-8 32h32v16h-32zm-8 32h48v32h-48zm-8 48h64v32h-64zm72 240h-16v-16h-16v16h-16v-16h-16v16h-16v-192h80zm0 0"/><path d="m223.960938 288h16v16h-16zm0 0"/><path d="m223.960938 320h16v16h-16zm0 0"/><path d="m223.960938 352h16v16h-16zm0 0"/><path d="m223.960938 384h16v16h-16zm0 0"/><path d="m223.960938 416h16v16h-16zm0 0"/><path d="m255.960938 288h16v16h-16zm0 0"/><path d="m255.960938 320h16v16h-16zm0 0"/><path d="m255.960938 352h16v16h-16zm0 0"/><path d="m255.960938 384h16v16h-16zm0 0"/><path d="m255.960938 416h16v16h-16zm0 0"/><path d="m111.960938 112c0 4.417969 3.582031 8 8 8h80c4.417968 0 8-3.582031 8-8v-13.335938c-.023438-8.933593-5.601563-16.914062-13.984376-20-1.53125-7.691406-5.628906-14.640624-11.617187-19.703124-2.179687-5.707032-6.710937-10.195313-12.4375-12.320313-3.15625-16.285156-17.414063-28.046875-34-28.046875-16.589844 0-30.847656 11.761719-34 28.046875-8.382813 3.085937-13.957031 11.066406-13.960937 20v13.359375c0 4.417969 3.582031 8 8 8h18.925781c-1.90625 3.230469-2.914063 6.914062-2.925781 10.664062zm66.664062-26.664062c0 4.417968 3.582031 8 8 8 2.941406 0 5.332031 2.382812 5.335938 5.328124v5.335938h-64v-5.335938c.003906-2.945312 2.390624-5.328124 5.335937-5.328124 4.417969 0 8-3.582032 8-8 0-10.308594 8.355469-18.664063 18.664063-18.664063 10.308593 0 18.664062 8.355469 18.664062 18.664063zm-74.664062-13.335938v-5.359375c.019531-2.9375 2.421874-5.304687 5.359374-5.28125 4.417969 0 8-3.582031 8-8 .007813-9.835937 7.683594-17.960937 17.5-18.535156 9.820313-.570313 18.386719 6.605469 19.539063 16.375-11.765625 1.949219-21.707031 9.804687-26.328125 20.800781zm0 0"/><path d="m379.273438 121.382812c-3.121094-14.804687-16.183594-25.398437-31.3125-25.398437-15.128907 0-28.191407 10.59375-31.3125 25.398437-7.65625 3.007813-12.6875 10.394532-12.6875 18.617188v12c0 4.417969 3.582031 8 8 8h72c4.417968 0 8-3.582031 8-8v-12c0-8.222656-5.035157-15.609375-12.6875-18.617188zm-3.3125 22.617188h-56v-4c0-2.210938 1.789062-4 4-4 4.417968 0 8-3.582031 8-8 0-8.835938 7.164062-16 16-16 8.835937 0 16 7.164062 16 16 0 4.417969 3.582031 8 8 8 2.207031 0 4 1.789062 4 4zm0 0"/></svg>