<svg height="480pt" viewBox="0 0 480 480.00005" width="480pt" xmlns="http://www.w3.org/2000/svg"><path d="m213.679688 77.679688c1.507812-1.503907 2.34375-3.550782 2.320312-5.679688-.011719-.511719-.066406-1.019531-.160156-1.519531-.074219-.53125-.234375-1.042969-.480469-1.519531-.175781-.511719-.417969-1-.71875-1.449219-.296875-.414063-.617187-.8125-.960937-1.191407-.761719-.722656-1.660157-1.292968-2.640626-1.679687-2.980468-1.214844-6.398437-.558594-8.71875 1.679687-.339843.378907-.660156.777344-.960937 1.191407-.300781.449219-.542969.9375-.71875 1.449219-.242187.476562-.40625.988281-.480469 1.519531-.09375.5-.144531 1.007812-.160156 1.519531-.019531 2.128906.816406 4.175781 2.320312 5.679688.777344.707031 1.671876 1.273437 2.640626 1.679687 1.9375.855469 4.144531.855469 6.078124 0 .972657-.40625 1.863282-.972656 2.640626-1.679687zm0 0"/><path d="m288 368c4.417969 0 8-3.582031 8-8v-8c0-4.417969-3.582031-8-8-8s-8 3.582031-8 8v8c0 4.417969 3.582031 8 8 8zm0 0"/><path d="m296 392c0 4.417969 3.582031 8 8 8s8-3.582031 8-8v-8c0-4.417969-3.582031-8-8-8s-8 3.582031-8 8zm0 0"/><path d="m272 408c4.417969 0 8-3.582031 8-8v-8c0-4.417969-3.582031-8-8-8s-8 3.582031-8 8v8c0 4.417969 3.582031 8 8 8zm0 0"/><path d="m8 480h464c3.75 0 6.996094-2.605469 7.808594-6.265625s-1.027344-7.394531-4.421875-8.980469l-76.984375-35.953125c-19.207032-8.902343-40.082032-13.632812-61.25-13.890625 4.519531-9.507812 6.859375-19.902344 6.847656-30.429687v-102.832031l12.753906 5.664062c2.757813 1.226562 5.976563.792969 8.3125-1.121094 2.335938-1.914062 3.398438-4.980468 2.742188-7.925781l-29.832032-134.265625h14.023438c2.464844 0 4.789062-1.136719 6.304688-3.074219 1.515624-1.941406 2.050781-4.472656 1.457031-6.863281l-16.847657-67.40625c-9.757812-39.199219-44.980468-66.6992188-85.378906-66.65625h-9.535156c-27.433594.078125-53.28125 12.886719-69.960938 34.671875l-.109374.136719c-.105469.136718-.226563.246094-.328126.382812-.480468.667969-.863281 1.398438-1.128906 2.175782 0 0-.046875.074218-.0625.121093l-.410156 1.167969c-3.4375 10.339844-13.101562 17.324219-24 17.34375-13.226562.066406-23.933594 10.773438-24 24v6.640625c.027344 8.121094 3.253906 15.902344 8.984375 21.65625l17.359375 17.359375c1.5 1.5 3.535156 2.34375 5.65625 2.34375h36c2.210938 0 4 1.789062 4 4s-1.789062 4-4 4h-20c-13.253906 0-24 10.746094-24 24 0 2.121094.84375 4.15625 2.34375 5.65625l22.800781 22.800781c-6.273437 18.398438-9.585937 37.679688-9.808593 57.117188-15.273438-8.851563-32.609376-13.53125-50.261719-13.574219-2.957031 0-5.671875 1.625-7.0625 4.234375-1.390625 2.605469-1.234375 5.765625.414062 8.222656l57.574219 85.941407v53.601562c.007812 11.164062 2.621094 22.175781 7.632812 32.152344-21.277343-1.601563-42.652343 1.34375-62.703124 8.648437l-107.695313 39.695313c-3.636719 1.34375-5.785156 5.097656-5.105469 8.910156.683594 3.8125 4 6.589844 7.871094 6.59375zm340.753906-213.761719-12.90625-5.726562-2.984375-65.769531zm-21.367187-195.710937 14.367187 57.472656h-12.113281c-2.207031-29.351562-13.066406-57.390625-31.199219-80.574219l-22.6875-29.097656c25.46875 6.636719 45.273438 26.660156 51.632813 52.199219zm-91.386719 313.472656c11.082031.046875 21.136719-6.46875 25.621094-16.605469 4.480468-10.132812 2.535156-21.957031-4.957032-30.121093l33.535157-9.601563c2.363281-.675781 4.285156-2.402344 5.210937-4.675781.925782-2.277344.753906-4.855469-.464844-6.988282l-1-1.75c-8.066406-14.105468-21.472656-24.363281-37.195312-28.460937-15.71875-4.09375-32.425781-1.683594-46.347656 6.691406l-6.9375-11.558593c-3.089844-5.019532-6.617188-9.757813-10.542969-14.152344l57.597656-19.203125c3.265625-1.082031 5.472657-4.132813 5.480469-7.574219v-27.054688l8.617188-4.304687 15.382812 5.128906v34.230469c.003906.789062.121094 1.574219.351562 2.328125.082032.265625.242188.488281.34375.742187.171876.46875.390626.917969.648438 1.347657.195312.25.402344.488281.625.71875.277344.355469.582031.6875.914062.992187.273438.195313.5625.378906.863282.542969.316406.238281.65625.453125 1.007812.640625l43.246094 19.222656v109.945313c0 11.246093-3.488281 22.214843-9.984375 31.398437-4.726563.546875-9.445313 1.242188-14.109375 2.25l-30.082031 6.398438c-21.972657 4.683594-44.769531 3.765625-66.296875-2.664063-3.664063-1.09375-7.375-2.03125-11.101563-2.839843-8.007812-9.917969-12.390625-22.273438-12.425781-35.023438v-48h6.113281c7.941407-.03125 15.207031 4.457031 18.726563 11.574219.113281.226562.289062.386719.417968.59375-.792968 2.535156-1.21875 5.175781-1.257812 7.832031 0 15.464844 12.535156 28 28 28zm-12-28c.015625-3.640625 1.6875-7.074219 4.546875-9.328125l4.542969-2.273437c.949218-.253907 1.925781-.386719 2.910156-.398438 6.628906 0 12 5.371094 12 12s-5.371094 12-12 12c-6.625 0-12-5.371094-12-12zm72-148.070312v-39.3125l2.792969-36.265626c1.652343-21.761718-.253907-43.652343-5.648438-64.800781 12.695313 19.777344 19.921875 42.5625 20.945313 66.042969l5.382812 118.398438-23.472656-9.40625zm-18.503906-136.609376c5.027344 19.507813 6.824218 39.710938 5.320312 59.800782l-2.816406 36.878906v28.902344l-13.472656-4.484375c-2.007813-.6875-4.207032-.535157-6.101563.421875l-4.351562 2.175781c.15625-17.261719 3.644531-34.332031 10.277343-50.273437 9.644532-23.199219 13.472657-48.40625 11.144532-73.421876zm-33.976563-55.128906c7.902344 13.628906 13.414063 28.511719 16.289063 44-7.65625-17.121094-24.648438-28.160156-43.40625-28.191406h-13.601563c11.625-9.332031 25.84375-14.851562 40.71875-15.808594zm-47.519531 95.808594h-32.6875l-15.015625-15.015625c-2.738281-2.75-4.28125-6.464844-4.296875-10.34375v-6.640625c-.003906-2.15625.882812-4.222656 2.449219-5.703125 1.464843-1.484375 3.46875-2.3125 5.550781-2.296875 16.070312-.03125 30.660156-9.398438 37.375-24h27.027344c17.441406.023438 31.578125 14.15625 31.597656 31.601562.050781 8.238282-3.164062 16.160157-8.933594 22.039063l-10.570312 9.464844c-4.855469 4.359375-9.480469 8.96875-13.855469 13.816406-2.933594-7.753906-10.347656-12.894531-18.640625-12.921875zm43.199219 11.023438 10.898437-9.765626c5.484375-5.46875 9.546875-12.199218 11.824219-19.601562-.882813 15.449219-4.363281 30.636719-10.296875 44.929688-7.683594 18.347656-11.636719 38.046874-11.625 57.941406v37.703125l-56.648438 18.890625c-1.601562-49.503906 18.855469-97.164063 55.847657-130.097656zm-70.664063 34.167968c1.167969-3.113281 4.140625-5.179687 7.464844-5.191406h18.328125c-4 6.527344-7.585937 13.300781-10.734375 20.28125zm-35.4375 92.351563c23.636719 4.621093 44.21875 19.011719 56.671875 39.625l11.375 18.953125c1.203125 2 3.21875 3.375 5.519531 3.765625 2.300782.375 4.652344-.257813 6.457032-1.734375 18.636718-15.527344 46.285156-13.21875 62.085937 5.183594l-45.40625 12.96875c-.472656.140624-.933593.320312-1.375.535156l-1.753906.878906c-2.328125.800781-4.539063 1.90625-6.574219 3.289062l-1.289062.640626c-7-8.664063-17.554688-13.683594-28.695313-13.648438h-9.839843zm-14.632812 190.289062c27.140625-9.941406 56.765625-10.851562 84.464844-2.601562 24.105468 7.21875 49.640624 8.242187 74.246093 2.976562l30.082031-6.4375c28.425782-6.023437 58.035157-2.652343 84.382813 9.597657l44.296875 20.632812h-383.089844zm0 0"/><path d="m112 112c-46.933594.027344-89.460938 27.664062-108.550781 70.542969l-2.761719 6.210937c-1.792969 4.035156.027344 8.765625 4.066406 10.558594 4.039063 1.792969 8.765625-.027344 10.558594-4.0625l2.761719-6.203125c16.507812-37.109375 53.308593-61.027344 93.925781-61.046875 4.417969 0 8-3.582031 8-8s-3.582031-8-8-8zm0 0"/><path d="m112 144c-.652344 0-1.300781.078125-1.933594.230469-32.675781 2.410156-61.382812 22.589843-74.707031 52.523437-1.25 2.625-.976563 5.722656.714844 8.085938 1.691406 2.367187 4.53125 3.628906 7.421875 3.300781 2.886718-.332031 5.371094-2.207031 6.480468-4.890625 11.703126-26.289062 37.777344-43.234375 66.550782-43.25 4.417968 0 8-3.582031 8-8s-3.582032-8-8-8zm0 0"/></svg>