<svg height="480pt" viewBox="0 -7 480 480" width="480pt" xmlns="http://www.w3.org/2000/svg"><path d="m239.199219 62.71875c-1.359375-2.726562-4.152344-4.441406-7.199219-4.425781h-16v16h11.054688l5.785156 11.578125 14.320312-7.152344zm0 0"/><path d="m464 395.664062v-56.410156c-.050781-32.097656-7.257812-63.777344-21.105469-92.734375l-.277343-.585937 8.957031-4.480469c3.242187-1.617187 4.992187-5.210937 4.265625-8.757813l-6.960938-34.839843 11.664063-8.046875c2.191406-1.515625 3.484375-4.019532 3.453125-6.679688-.03125-2.664062-1.386719-5.132812-3.613282-6.59375l-28.382812-18.570312v-2.871094c.023438-18.113281-14.644531-32.816406-32.761719-32.839844-18.113281-.019531-32.816406 14.644532-32.839843 32.761719-.027344 2.515625.253906 5.023437.839843 7.472656l16.144531 70.039063c-7.1875 10.222656-12.847656 21.4375-16.796874 33.296875-4.378907 13.042969-6.601563 26.710937-6.585938 40.46875v78.082031c-.019531 10.535156-2.484375 20.921875-7.199219 30.34375-.425781.890625-.679687 1.847656-.753906 2.832031l-32.382813.070313c-1.417968-11.386719-9.96875-20.585938-21.222656-22.832032l1.367188-4.796874c5.960937-20.816407 8.984375-42.363282 8.992187-64.015626.027344-7.824218-.359375-15.644531-1.160156-23.425781-2.476563-25.464843-9.636719-50.253906-21.128906-73.113281l-12.800781-25.597656 19.921874-19.921875c1.023438-1.023438 1.75-2.304688 2.101563-3.710938l8-32c.683594-2.726562-.113281-5.613281-2.101563-7.601562l-12.480468-12.472657 6.398437-19.308593c.839844-2.484375.410157-5.222657-1.152343-7.328125l-22.398438-29.867188v-21.335937c0-2.515625-1.1875-4.886719-3.199219-6.398438l-14.402343-10.808593c-12.792969-9.628907-28.382813-14.824219-44.398438-14.792969h-12.640625c-5.535156.011719-10.84375 2.207031-14.773437 6.105469-4.363282 4.328124-6.589844 10.359374-6.082032 16.480468l7.496094 90.078125c.347656 4.160157 3.828125 7.351563 8 7.335938h16v24c-.863281.003906-1.722656.144531-2.542969.417969-17.597656 5.835937-28.835937 23.046874-27.105469 41.503906l4.71875 52.078125c.617188 6.839843.929688 13.816406.929688 20.722656v44.800781l-7.9375 63.503906c-.042969.320313-.066406.648438-.0625.972657v16c0 4.421875 3.582031 8 8 8h8v7.601562l-40.734375.089844c-1.5-9.25-5.492187-17.914063-11.546875-25.066406l-1.109375-1.304688 2.992187-40.519531c1.59375-19.167969 1.519532-38.441406-.21875-57.597656l-.796874-8.847656c-3.148438-34.675782-11.742188-68.636719-25.464844-100.632813l-2.335938-5.457031 5.144532-10.296875 13.597656-6.800781c3.359375-1.675782 5.097656-5.460938 4.183594-9.101563l-8.167969-32.585937-6.4375-19.3125 12.503906-12.503907c3.121094-3.121093 3.121094-8.1875 0-11.308593l-29.609375-29.664063v-20.691406c0-3.03125-1.710938-5.804688-4.425781-7.160157l-29.542969-14.765624c-13.648438-6.824219-29.945312-5.582032-42.402344 3.234374-12.460937 8.8125-19.054687 23.765626-17.164062 38.910157l5.597656 44.800781c.15625 1.230469.59375 2.410156 1.28125 3.445312l14.65625 21.9375v34.398438c-20.453125 21.769531-30.710938 51.195312-28.214844 80.960938l4.214844 50.902343c.085938 1.011719.355469 2 .800781 2.914063l6.847657 13.695312c-4.816407 30.472656-4.894532 61.503906-.234376 92l-13.070312 13.070313c-1.5 1.5-2.34375 3.535156-2.34375 5.65625v48c0 4.421875 3.582031 8 8 8h464c4.417969 0 8-3.578125 8-8v-40c-.011719-10.167969-6.417969-19.226563-16-22.628907zm-88-11.289062v-2.265625l29.023438 11.617187c.949218.375 1.957031.566407 2.976562.566407 3.445312.003906 6.503906-2.203125 7.59375-5.46875l8-24c1.261719-3.777344-.445312-7.90625-4-9.691407l-11.59375-5.78125v-59.058593h-16v64c-.015625 3.046875 1.699219 5.839843 4.425781 7.203125l9.789063 4.886718-3.117188 9.375-27.097656-10.878906v-58.585937c.015625-24.230469 7.875-47.804688 22.398438-67.199219 1.429687-1.886719 1.945312-4.308594 1.417968-6.613281l-17.015625-73.730469c-.292969-1.222656-.425781-2.476562-.402343-3.734375.390624-8.84375 7.574218-15.867187 16.425781-16.054687 8.847656-.191407 16.324219 6.515624 17.097656 15.332031h-15.921875v16h21.601562l20.046876 13.136719-6.207032 4.28125c-2.636718 1.824218-3.925781 5.046874-3.28125 8.183593l6.800782 34.007813-10.535157 5.265625c-3.910156 1.949219-5.53125 6.675781-3.640625 10.613281l3.6875 7.6875c12.808594 26.789062 19.480469 56.09375 19.527344 85.785156v63.039063c0 4.421875 3.582031 8 8 8 4 .03125 7.347656 3.042969 7.800781 7.019531l-93.265625.183594-.949218-.953125c4.21875-10.199219 6.398437-21.128907 6.414062-32.167969zm-184 2.398438 4.28125-34.207032 12.367188 28.863282c1.039062 2.421874 3.203124 4.171874 5.785156 4.6875l40 8c.511718.113281 1.039062.171874 1.566406.175781 3.445312.003906 6.503906-2.203125 7.59375-5.46875l8-24c1.394531-4.195313-.871094-8.726563-5.066406-10.121094l-20-6.664063-14.527344-50.863281v-70.882812h-16v72c0 .746093.105469 1.488281.3125 2.203125l16 56c.722656 2.539062 2.65625 4.554687 5.160156 5.390625l16.40625 5.464843-3.199218 9.710938-28.953126-5.785156-21.726562-50.582032v-43.679687c0-7.386719-.335938-14.832031-.992188-22.160156l-4.71875-52.089844c-1.003906-10.617187 5.167969-20.609375 15.109376-24.472656h6.601562c4.417969 0 8-3.578125 8-8v-64h-16v16h-8.640625l-6.902344-82.757813c-.113281-1.425781.414063-2.828125 1.4375-3.824218.925781-.910157 2.167969-1.417969 3.464844-1.417969h12.640625c12.554688-.023438 24.773438 4.046875 34.800781 11.601562l11.199219 8.398438v20c0 1.734375.5625 3.417969 1.601562 4.800781l21.488282 28.648438-6.683594 20c-.953125 2.875-.203125 6.042968 1.9375 8.183593l2.34375 2.34375h-12.6875v16h21.753906l-4 16h-22.402344l-13.65625-13.65625-11.3125 11.3125 16 16c1.488282 1.5 3.507813 2.351563 5.617188 2.367188h12.6875l-10.34375 10.34375c-2.433594 2.433593-3.042969 6.152343-1.503906 9.234375l15.367187 30.726562c10.621094 21.132813 17.238281 44.046875 19.519531 67.585938.746094 7.238281 1.101563 14.511718 1.074219 21.792968.007813 20.164063-2.792969 40.238282-8.328125 59.628907l-4.160156 14.480469c-.695312 2.414062-.210938 5.015624 1.296875 7.023437 1.511719 2.003906 3.878906 3.183594 6.390625 3.183594h5.359375c4.570313.035156 8.597656 3.007812 9.976563 7.363281l-95.335938.207031v-15.570312c0-4.417969-3.582031-8-8-8h-8zm-176 26.832031 13.65625-13.65625c1.828125-1.828125 2.660156-4.425781 2.230469-6.972657-3.691407-22.199218-4.726563-44.757812-3.078125-67.203124l20 40.074218c1.042968 2.089844 2.949218 3.617188 5.214844 4.183594l32 8c.644531.167969 1.308593.257812 1.976562.261719 3.445312.003906 6.503906-2.203125 7.59375-5.46875l8-24c1.394531-4.195313-.871094-8.726563-5.066406-10.121094l-20.199219-6.738281-22.328125-66.964844v-54.707031h-16v56c0 .859375.136719 1.714843.40625 2.53125l24 72c.796875 2.390625 2.675781 4.265625 5.066406 5.0625l16.40625 5.464843-3.125 9.382813-21.242187-5.304687-37.671875-75.34375-4.113282-49.359376c-2.207031-26.257812 7.28125-52.15625 25.929688-70.777343 1.5-1.5 2.34375-3.53125 2.34375-5.65625v-40c-.003906-1.578125-.46875-3.121094-1.34375-4.4375l-14.953125-22.402344-5.367187-42.925781c-1.164063-9.289063 2.882812-18.464844 10.523437-23.871094s17.640625-6.167969 26.011719-1.976562l25.128906 12.558593v19.054688c0 2.125.84375 4.15625 2.34375 5.65625l26.34375 26.34375-10.34375 10.34375c-2.140625 2.144531-2.890625 5.3125-1.9375 8.1875l4.503906 13.46875h-20.910156v16h25.753906l4.925782 19.714843-6.679688 3.34375-28.425781-14.21875-7.148438 14.320313 24.796875 12.417969-4.421875 8.847656c-1.050781 2.105469-1.121093 4.566406-.191406 6.726562l3.796875 8.867188c13.0625 30.449219 21.238281 62.773438 24.226562 95.773438l.800782 8.847656c1.648437 18.25 1.714844 36.605468.199218 54.863281l-3.234374 43.90625c-.152344 2.097656.523437 4.171875 1.890624 5.777344l3.238282 3.8125c3.613281 4.253906 6.175781 9.300781 7.472656 14.730469l-119 .269531zm448 36.6875h-448v-16h128c.496094-.046875.988281-.148438 1.464844-.292969l318.535156-.6875zm0 0"/><path d="m71.199219 38.71875c-1.359375-2.726562-4.152344-4.441406-7.199219-4.425781h-16v16h11.054688l5.785156 11.578125 14.320312-7.152344zm0 0"/></svg>