<svg height="480pt" viewBox="0 0 480 480" width="480pt" xmlns="http://www.w3.org/2000/svg"><path d="m472 464h-24.695312l-15.304688-168.726562c-.378906-4.132813-3.851562-7.289063-8-7.273438h-16v-23.015625l7.761719-31.046875c.011719-.269531.011719-.535156 0-.800781.109375-.371094.1875-.753907.238281-1.136719v-32c0-.097656-.046875-.167969-.054688-.265625-.015624-.933594-.203124-1.859375-.554687-2.726563-.0625-.175781-.183594-.3125-.261719-.480468-.199218-.464844-.445312-.910156-.730468-1.328125l-24-32c-1.574219-1.914063-3.921876-3.019531-6.398438-3.019531s-4.824219 1.105468-6.398438 3.019531l-24 32c-.285156.417969-.53125.863281-.730468 1.328125-.078125.167968-.199219.304687-.261719.480468-.351563.867188-.539063 1.792969-.554687 2.726563 0 .097656-.054688.167969-.054688.265625v32c.046875.375.121094.742188.222656 1.105469-.011718.265625-.011718.53125 0 .796875l7.777344 31.082031v8.207031l-16-20v-105.878906l5.65625-5.65625c1.5-1.5 2.34375-3.535156 2.34375-5.65625v-16c0-4.417969-3.582031-8-8-8h-8v-24c0-.078125-.039062-.136719-.039062-.214844-.011719-.785156-.136719-1.5625-.367188-2.3125l-15.59375-46.777344v-6.695312h8c4.417969 0 8-3.582031 8-8s-3.582031-8-8-8h-8v-8c0-4.417969-3.582031-8-8-8s-8 3.582031-8 8v8h-8c-4.417969 0-8 3.582031-8 8s3.582031 8 8 8h8v6.695312l-15.59375 46.777344c-.230469.75-.355469 1.527344-.367188 2.3125 0 .078125-.039062.136719-.039062.214844v24h-8c-4.417969 0-8 3.582031-8 8v16c0 2.121094.84375 4.15625 2.34375 5.65625l5.65625 5.65625v19.609375l-32-26.675781v-12.246094c0-4.417969-3.582031-8-8-8s-8 3.582031-8 8v12.246094l-32 26.675781v-22.921875c0-.078125 0-.136719 0-.214844-.011719-.785156-.136719-1.5625-.367188-2.3125l-15.632812-46.777344v-14.695312c0-4.417969-3.582031-8-8-8s-8 3.582031-8 8v14.695312l-15.59375 46.777344c-.230469.75-.355469 1.527344-.367188 2.3125v.214844 115.121094l-14.855468 24.757812c-.113282.222656-.210938.449219-.296875.679688-.101563.21875-.199219.433594-.285157.664062-.34375.875-.53125 1.800782-.554687 2.738282v14.152343l-.839844-1.6875c-1.503906-2.523437-4.222656-4.070312-7.160156-4.070312-2.933594 0-5.65625 1.546875-7.160156 4.070312l-16 32c-.046875.09375-.054688.199219-.101563.292969-.050781.097656-.113281.351562-.183594.527344-.285156.773437-.449218 1.582031-.488281 2.402344 0 .113281-.066406.199218-.066406.3125v128.039062h-48.046875v-16h24c2.570312 0 4.988281-1.234375 6.492188-3.320312 1.503906-2.085938 1.914062-4.769532 1.101562-7.207032l-12.488281-37.472656h4.894531c2.507812 0 4.871094-1.179688 6.382812-3.183594 1.507813-2 1.992188-4.597656 1.304688-7.007812l-32-112c-.984375-3.425782-4.121094-5.789063-7.6875-5.789063s-6.703125 2.363281-7.6875 5.789063l-32 112c-.6875 2.410156-.203125 5.007812 1.304688 7.007812 1.511718 2.003906 3.875 3.183594 6.382812 3.183594h4.894531l-12.488281 37.472656c-.8125 2.4375-.402344 5.121094 1.101562 7.207032 1.503907 2.085937 3.921876 3.320312 6.492188 3.320312h24v16h-32c-4.417969 0-8 3.582031-8 8s3.582031 8 8 8h464c4.417969 0 8-3.582031 8-8s-3.582031-8-8-8zm-424-154.878906 21.390625 74.878906h-42.78125zm-20.902344 122.878906 10.671875-32h20.460938l10.671875 32zm100.902344-110.113281 3.054688 6.113281h-6.109376zm8 142.113281h-16v-16h16zm0-32h-16v-56h16zm0-72h-16v-16h16zm40-238.703125 4.902344 14.703125h-9.804688zm-8 142.246094 9.871094 16.457031h-19.742188zm16 136.457031v64h-32v-80h32zm0-32h-32v-40h32zm0-56h-32v-16h32zm0-88v35.121094l-9.144531-15.242188c-1.496094-2.316406-4.097657-3.6875-6.855469-3.605468v-56.273438h16zm0-56h-16v-16h16zm32 280v16h-16v-56h16zm32 16h-16v-16c0-4.417969 3.582031-8 8-8s8 3.582031 8 8zm0-38.527344c-5.152344-1.964844-10.847656-1.964844-16 0v-17.472656h16zm32 38.527344h-16v-56h16zm0-72h-80v-8h80zm-52.902344-24 2.671875-8h20.460938l2.671875 8zm52.902344-40v40h-10.230469l-6.175781-18.527344c-1.089844-3.269531-4.148438-5.472656-7.59375-5.472656h-32c-3.445312 0-6.503906 2.203125-7.59375 5.472656l-6.175781 18.527344h-10.230469v-72h80zm0-48h-80v-48h80zm-65.902344-64 25.902344-21.601562 25.902344 21.601562zm65.902344-9.078125-34.878906-29.074219c-2.96875-2.46875-7.273438-2.46875-10.242188 0l-34.878906 29.074219v-19.203125l40-33.320312 40 33.335937zm32-141.601563 4.902344 14.679688h-9.804688zm-8 30.679688h16v16h-16zm24 304v64h-32v-80h32zm0-32h-32v-32h32zm0-112v64h-32v-168h32zm8-123.3125-3.3125 3.3125h-41.375l-3.3125-3.3125v-4.6875h48zm24 331.3125h-16v-16h16zm0-64v32h-16v-56h16zm-11.054688-40 3.054688-6.113281 3.054688 6.113281zm11.054688-25.886719-.800781-1.6875c-1.503907-2.523437-4.222657-4.070312-7.160157-4.070312-2.933593 0-5.65625 1.546875-7.160156 4.070312l-.800781 1.6875v-55.304687l16 20zm24-152.800781 8 10.6875h-16zm8 282.6875h-16v-56h16zm0-168v96h-16v-120h16zm1.753906-40h-19.507812l-4-16h27.507812zm6.246094-32h-32v-16h32zm8 240v-160h8.695312l14.542969 160zm0 0"/><path d="m64 184h48c11.839844.003906 21.917969-8.628906 23.726562-20.328125 1.8125-11.703125-5.183593-22.976563-16.46875-26.550781-3.117187-13.910156-15.054687-24.078125-29.28125-24.945313-2.863281-3.28125-6.570312-5.71875-10.71875-7.046875-3.222656-14.679687-16.226562-25.140625-31.257812-25.140625s-28.035156 10.460938-31.257812 25.140625c-11.273438 3.582032-18.253907 14.851563-16.445313 26.542969 1.8125 11.691406 11.871094 20.320313 23.703125 20.328125h17.398438c-2.625 7.339844-1.511719 15.503906 2.988281 21.871094 4.496093 6.371094 11.816406 10.148437 19.613281 10.128906zm8-40c0-8.835938 7.164062-16 16-16s16 7.164062 16 16c0 4.417969 3.582031 8 8 8s8 3.582031 8 8-3.582031 8-8 8h-48c-4.417969 0-8-3.582031-8-8s3.582031-8 8-8 8-3.582031 8-8zm-48-8c-4.417969 0-8-3.582031-8-8s3.582031-8 8-8 8-3.582031 8-8c0-8.835938 7.164062-16 16-16s16 7.164062 16 16c.023438 2.902344 1.640625 5.558594 4.207031 6.910156-5.464843 4.335938-9.363281 10.335938-11.109375 17.089844zm0 0"/><path d="m440 96c11.839844.003906 21.917969-8.628906 23.726562-20.328125 1.8125-11.703125-5.183593-22.976563-16.46875-26.550781-3.222656-14.679688-16.226562-25.140625-31.257812-25.140625s-28.035156 10.460937-31.257812 25.140625c-11.285157 3.574218-18.28125 14.847656-16.46875 26.550781 1.808593 11.699219 11.886718 20.332031 23.726562 20.328125zm-56-24c0-4.417969 3.582031-8 8-8s8-3.582031 8-8c0-8.835938 7.164062-16 16-16s16 7.164062 16 16c0 4.417969 3.582031 8 8 8s8 3.582031 8 8-3.582031 8-8 8h-48c-4.417969 0-8-3.582031-8-8zm0 0"/><path d="m216 248h16v16h-16zm0 0"/><path d="m248 248h16v16h-16zm0 0"/><path d="m232 312h16v16h-16zm0 0"/><path d="m304 160h16v16h-16zm0 0"/><path d="m304 224h16v16h-16zm0 0"/><path d="m304 288h16v16h-16zm0 0"/></svg>