<svg height="480pt" viewBox="0 0 480 480" width="480pt" xmlns="http://www.w3.org/2000/svg"><path d="m376 368c-13.253906 0-24 10.746094-24 24v32c0 4.417969 3.582031 8 8 8h32c4.417969 0 8-3.582031 8-8v-32c0-13.253906-10.746094-24-24-24zm8 48h-16v-24c0-4.417969 3.582031-8 8-8s8 3.582031 8 8zm0 0"/><path d="m88 432h32c4.417969 0 8-3.582031 8-8v-32c0-13.253906-10.746094-24-24-24s-24 10.746094-24 24v32c0 4.417969 3.582031 8 8 8zm8-40c0-4.417969 3.582031-8 8-8s8 3.582031 8 8v24h-16zm0 0"/><path d="m368 224h16v32h-16zm0 0"/><path d="m96 224h16v32h-16zm0 0"/><path d="m472 168h-24c-1.453125 0-2.875.394531-4.121094 1.144531l-27.878906 16.726563v-41.871094c0-3.03125-1.710938-5.804688-4.425781-7.160156l-64-32c-2.480469-1.238282-5.425781-1.105469-7.78125.351562-2.359375 1.460938-3.792969 4.035156-3.792969 6.808594v80h-32v-22.113281l15.199219-30.3125c0-.078125 0-.175781.082031-.261719.078125-.089844.109375-.160156.152344-.25.113281-.351562.203125-.710938.261718-1.078125.109376-.332031.195313-.671875.257813-1.015625.039063-.476562.039063-.957031 0-1.433594 0-.3125-.015625-.628906-.050781-.941406-.113282-.519531-.277344-1.027344-.496094-1.515625-.09375-.246094-.140625-.519531-.261719-.796875-.378906-.726562-.863281-1.394531-1.441406-1.976562l-32-32c-1.515625-1.5-3.570313-2.328126-5.703125-2.304688h-16v-38.238281c7.417969-6.613281 9.972656-17.125 6.417969-26.40625-3.558594-9.277344-12.480469-15.390625-22.417969-15.355469v-8c0-4.417969-3.582031-8-8-8s-8 3.582031-8 8v8c-9.9375-.035156-18.859375 6.078125-22.417969 15.355469-3.554687 9.28125-1 19.792969 6.417969 26.40625v38.238281h-16c-2.121094 0-4.15625.84375-5.65625 2.34375l-32 32c-.578125.582031-1.0625 1.25-1.441406 1.976562-.117188.238282-.167969.511719-.261719.800782-.21875.484375-.382813.992187-.496094 1.511718-.03125.3125-.046875.628907-.046875.941407-.042968.476562-.042968.957031 0 1.433593.0625.34375.148438.683594.253906 1.015626.0625.367187.148438.726562.265626 1.082031 0 .085937.109374.160156.152343.246093.039063.089844.039063.183594.078125.265626l15.152344 30.269531v22.113281h-32v-80c0-2.773438-1.433594-5.347656-3.792969-6.808594-2.355469-1.457031-5.300781-1.589844-7.78125-.351562l-64 32c-2.714843 1.355468-4.425781 4.128906-4.425781 7.160156v42.3125l-30.710938-17.289062c-1.199218-.671876-2.554687-1.027344-3.929687-1.023438h-21.359375c-4.417969 0-8 3.582031-8 8v296c0 4.417969 3.582031 8 8 8h464c4.417969 0 8-3.582031 8-8v-296c0-4.417969-3.582031-8-8-8zm-120-43.054688 48 24v11.054688h-48zm0 51.054688h48v16h-48zm0 32h48v96h-48zm-48 0h32v96h-32zm-72-176h16c4.417969 0 8 3.582031 8 8s-3.582031 8-8 8h-16c-4.417969 0-8-3.582031-8-8s3.582031-8 8-8zm16 32v32h-16v-32zm-44.6875 48h73.375l16 16h-105.375zm95.742188 32-8 16h-102.109376l-8-16zm-35.054688 48h-72v-16h96v16zm24 16v96h-16v-96zm-64 48v-48h32v48zm32 16v32h-32v-32zm-48-64v96h-16v-96zm-64 0h32v96h-32zm-64-59.054688 48-24v35.054688h-48zm0 27.054688h48v16h-48zm0 32h48v96h-48zm-32 256h-32v-280h11.265625l36.734375 20.671875v99.328125h-24c-4.417969 0-8 3.582031-8 8v24c-.015625 3.046875 1.699219 5.839844 4.425781 7.199219l11.574219 5.746093zm0-132.945312v-11.054688h16v16h-6.113281zm96 132.945312h-80v-112h80zm32-104v104h-16v-112h16zm32 80v24h-16v-72h16zm48 24h-32v-16h32zm0-32h-32v-40h32zm32 32h-16v-72h16zm0-88h-96v-10.585938l33.535156-13.414062h28.929688l33.535156 13.414062zm32 88h-16v-112h16zm-24-128h-216v-16h320v16zm120 128h-80v-112h80zm6.113281-128h-6.113281v-16h16v11.054688zm41.886719 128h-32v-115.054688l11.574219-5.785156c2.714843-1.355468 4.425781-4.128906 4.425781-7.160156v-24c0-4.417969-3.582031-8-8-8h-24v-99.472656l34.214844-20.527344h13.785156zm0 0"/><path d="m432 208h16v16h-16zm0 0"/><path d="m432 240h16v16h-16zm0 0"/><path d="m32 208h16v16h-16zm0 0"/><path d="m32 240h16v16h-16zm0 0"/><path d="m432 272h16v16h-16zm0 0"/><path d="m32 272h16v16h-16zm0 0"/></svg>