<svg height="480pt" viewBox="0 0 480 480" width="480pt" xmlns="http://www.w3.org/2000/svg"><path d="m448 336c-17.671875 0-32 14.328125-32 32v8.566406c-27.535156 4.015625-47.964844 27.609375-48 55.433594h-30.953125l3.488281-36.160156c.121094-.667969.171875-1.351563.144532-2.03125l4.488281-46.320313c.203125-2.113281-.4375-4.222656-1.789063-5.859375-1.351562-1.640625-3.296875-2.675781-5.410156-2.875l-7.9375-.761718 4.601562-47.753907 5.359376-55.742187 5.367187-55.734375 5.359375-55.730469c.421875-4.398438-2.800781-8.304688-7.199219-8.726562l-8-.800782 6.136719-63.695312c.203125-2.113282-.4375-4.222656-1.789062-5.859375-1.351563-1.640625-3.296876-2.675781-5.410157-2.878907l-8-.796874 1.535157-15.921876 8 .800782 1.527343-15.929688-95.527343-9.222656-1.527344 16 7.960937.800781-1.539062 15.925781-8-.796874c-4.398438-.425782-8.304688 2.800781-8.726563 7.199218l-6.121094 63.703125-8-.800781c-4.398437-.421875-8.304687 2.800781-8.726562 7.199219l-20.625 215.015625-8-.796875c-4.394531-.417969-8.296875 2.804687-8.71875 7.199219l-9.570312 99.75-.152344 1.601562h-40.246094v-17.136719c14.085938-3.636719 23.945312-16.316406 24-30.863281v-48c0-17.671875-14.328125-32-32-32s-32 14.328125-32 32v48c.054688 14.546875 9.914062 27.226562 24 30.863281v17.136719h-64v-41.136719c14.085938-3.636719 23.945312-16.316406 24-30.863281v-48c0-17.671875-14.328125-32-32-32s-32 14.328125-32 32v48c.0546875 14.546875 9.914062 27.226562 24 30.863281v41.136719h-16c-4.417969 0-8 3.582031-8 8v32c0 4.417969 3.582031 8 8 8h464c4.417969 0 8-3.582031 8-8v-104c0-17.671875-14.328125-32-32-32zm-151.808594-314.671875 15.9375 1.535156-1.527344 15.921875-15.9375-1.539062zm-31.847656-3.0625 15.929688 1.527344-1.53125 15.925781-15.925782-1.535156zm-18.992188 30.320313 79.640626 7.652343-5.367188 55.761719-15.929688-1.535156 1.527344-15.921875c1.019532-8.636719-2.714844-17.148438-9.757812-22.25-7.042969-5.101563-16.296875-5.992188-24.183594-2.328125-7.886719 3.664062-13.175781 11.304687-13.824219 19.980468l-1.535156 15.925782-15.921875-1.550782zm43.953126 44.414062-1.527344 15.921875-15.929688-1.539063 1.527344-15.917968c.425781-4.398438 4.335938-7.621094 8.734375-7.195313 4.398437.421875 7.617187 4.332031 7.195313 8.730469zm-66.777344 25.71875 8 .761719 47.785156 4.589843 15.917969 1.539063 31.824219 3.0625h.089843l7.878907.753906-3.832032 39.820313-15.925781-1.535156 1.910156-19.902344c.359375-2.890625-.878906-5.746094-3.230469-7.457032-2.355468-1.710937-5.453124-2.011718-8.089843-.78125-2.640625 1.230469-4.398438 3.796876-4.597657 6.703126l-1.921874 19.902343-15.9375-1.511719 1.914062-19.910156c.363281-2.894531-.875-5.753906-3.230469-7.46875s-5.457031-2.011718-8.097656-.777344c-2.640625 1.238282-4.398437 3.808594-4.59375 6.714844l-1.910156 19.90625-15.929688-1.527344 1.921875-19.914062c.421875-4.398438-2.800781-8.304688-7.199218-8.726562-4.398438-.421876-8.308594 2.800781-8.730469 7.199218l-1.910157 19.902344-15.929687-1.535156zm-8.871094 92.265625 3.511719-36.519531 23.878906 2.296875h.058594l31.789062 3.0625h.105469l31.753906 3.054687h.046875l23.839844 2.289063-3.535156 36.800781-.289063 3.039062-15.9375-1.527343 1.921875-19.914063c.421875-4.398437-2.800781-8.304687-7.199219-8.726562-4.398437-.421875-8.308593 2.800781-8.730468 7.199218l-1.910156 19.90625-15.929688-1.53125 1.914062-19.910156c.363282-2.890625-.875-5.75-3.230468-7.464844-2.359375-1.714843-5.460938-2.011718-8.097656-.777343-2.640626 1.234375-4.398438 3.808593-4.59375 6.714843l-1.910157 19.902344-15.9375-1.527344 1.921875-19.910156c.421875-4.398437-2.804687-8.308594-7.203125-8.730468-4.398437-.421876-8.304687 2.800781-8.726562 7.199218l-1.910157 19.90625-15.9375-1.527344zm-1.847656 19.199219 111.488281 10.726562-3.832031 39.808594-15.929688-1.519531 1.921875-19.902344c.425781-4.398437-2.792969-8.308594-7.191406-8.738281-4.398437-.425782-8.3125 2.796875-8.738281 7.195312l-1.917969 19.910156-15.929687-1.527343 1.921874-19.898438c.363282-2.890625-.875-5.75-3.230468-7.464843-2.359375-1.714844-5.460938-2.011719-8.097656-.777344-2.640626 1.234375-4.398438 3.808594-4.59375 6.714844l-1.910157 19.90625-15.929687-1.539063 1.914062-19.902344c.359375-2.890625-.875-5.75-3.234375-7.464843-2.355469-1.714844-5.457031-2.011719-8.097656-.777344-2.636719 1.234375-4.394531 3.808594-4.589844 6.714844l-1.921875 19.902343-15.910156-1.527343zm-5.359375 55.746094 55.734375 5.359374 55.746094 5.359376-3.832032 39.792968-15.929687-1.53125 1.910156-19.886718c.300781-4.320313-2.898437-8.09375-7.210937-8.511719-4.3125-.414063-8.171876 2.675781-8.707032 6.976562l-1.921875 19.894531-15.925781-1.527343 1.917969-19.855469c.363281-2.890625-.871094-5.75-3.230469-7.464844-2.355469-1.714844-5.457031-2.011718-8.097656-.777344-2.636719 1.234376-4.398438 3.808594-4.589844 6.714844l-1.914062 19.878906-15.925782-1.550781 1.910156-19.90625c.359376-2.886719-.878906-5.742187-3.230468-7.453125-2.355469-1.714844-5.453125-2.011718-8.089844-.78125-2.636719 1.230469-4.398438 3.796875-4.597656 6.699219l-1.921875 19.914063-15.933594-1.53125zm-21.320313 54.230468 16.335938 1.601563 119.0625 11.453125h.472656l7.472656.714844-1.679687 17.328124c-7.050781-3.351562-15.292969-3.042968-22.070313.832032-6.777344 3.871094-11.230468 10.816406-11.921875 18.589844l-3.914062 41.320312h-16.152344l4.121094-42.3125c.140625-.929688.199219-1.867188.183593-2.808594.109376-12.394531-9.328124-22.792968-21.679687-23.878906-13.207031-1.246094-24.945313 8.402344-26.28125 21.601562l-4.582031 47.398438h-16l4.710937-48.960938c1.273438-13.199218-8.398437-24.925781-21.597656-26.191406-2.730469-.226562-5.484375.019532-8.128906.726563zm139.550782 53.601563-3.695313 38.238281h-16l3.816406-39.832031c.183594-2.117188 1.210938-4.070313 2.847657-5.425781 1.636718-1.351563 3.75-1.992188 5.863281-1.773438 4.375.535156 7.539062 4.433594 7.167969 8.824219zm-63.679688-6.167969-4.335938 44.40625h-16.097656l4.433594-45.839844c.402344-4.417968 4.3125-7.671875 8.730469-7.269531 4.417969.40625 7.671875 4.316406 7.269531 8.734375zm-84.625 43.804688 4.945312-51.421876c.421876-4.402343 4.332032-7.625 8.730469-7.203124 4.402344.421874 7.628907 4.328124 7.207031 8.730468l-4.867187 50.496094h-16.070313zm-80.375-47.398438v-48c0-8.835938 7.164062-16 16-16s16 7.164062 16 16v48c-.015625 5.691406-3.066406 10.941406-8 13.777344v-29.777344h-16v29.777344c-4.933594-2.835938-7.984375-8.085938-8-13.777344zm-80-24v-48c0-8.835938 7.164062-16 16-16s16 7.164062 16 16v48c-.015625 5.691406-3.066406 10.941406-8 13.777344v-29.777344h-16v29.777344c-4.933594-2.835938-7.984375-8.085938-8-13.777344zm448 104h-448v-16h448zm0-32h-80c.027344-22.082031 17.917969-39.972656 40-40 4.417969 0 8-3.582031 8-8v-16c0-8.835938 7.164062-16 16-16s16 7.164062 16 16zm0 0"/></svg>