<svg height="480pt" viewBox="0 0 480 480" width="480pt" xmlns="http://www.w3.org/2000/svg"><path d="m472 344h-8v-37.9375c10.054688-16.921875 10.054688-37.988281 0-54.910156l-2.328125-3.886719c-5.179687-8.632813-12.691406-15.628906-21.671875-20.1875v-11.078125h8v-16h-8v-8h-16v8h-8v16h8v11.078125c-8.988281 4.554687-16.503906 11.554687-21.6875 20.195313l-2.3125 3.878906c-10.054688 16.921875-10.054688 37.988281 0 54.910156v37.9375h-16v-37.96875c9.964844-16.917969 8.820312-38.160156-2.902344-53.910156l-.929687-1.226563c-4.542969-6.066406-10.429688-10.996093-17.199219-14.398437l-2.96875-1.441406v-11.054688h8v-16h-8v-8h-16v8h-8v16h8v11.054688l-2.96875 1.480468c-6.769531 3.40625-12.65625 8.335938-17.199219 14.402344l-.929687 1.230469c-2.972656 3.972656-5.316406 8.378906-6.949219 13.0625l-12.402344-27.894531-2.75-10.070313.878907-1.320313c6.925781-10.363281 9.628906-22.980468 7.558593-35.273437-3.425781-20.683594-15.265625-39.027344-32.703125-50.671875l-12.261718-44.144531 7.488281-29.933594c.589843-2.390625.046875-4.914063-1.464844-6.851563-1.515625-1.9375-3.839844-3.070312-6.296875-3.070312-.042969-10.132812-6.445312-19.148438-16-22.527344v-9.472656h8v-16h-8v-8h-16v8h-8v16h8v9.472656c-9.554688 3.378906-15.957031 12.394532-16 22.527344-2.464844 0-4.789062 1.136719-6.308594 3.078125-1.515625 1.941406-2.050781 4.476563-1.453125 6.867187l7.488281 29.933594-12.261718 44.121094c-17.421875 11.644531-29.25 29.976562-32.679688 50.648438-2.070312 12.289062.632813 24.910156 7.558594 35.273437l.878906 1.316406-2.773437 10.035157-12.402344 27.886718c-1.636719-4.683594-3.980469-9.089844-6.949219-13.0625l-.929687-1.226562c-4.542969-6.066406-10.429688-10.996094-17.199219-14.398438l-2.96875-1.417968v-11.054688h8v-16h-8v-8h-16v8h-8v16h8v11.054688l-2.96875 1.480468c-6.769531 3.40625-12.65625 8.335938-17.199219 14.402344l-.929687 1.230469c-11.703125 15.738281-12.847656 36.957031-2.902344 53.863281v37.96875h-16v-37.9375c10.054688-16.921875 10.054688-37.988281 0-54.910156l-2.328125-3.886719c-5.179687-8.632813-12.691406-15.628906-21.671875-20.1875v-11.078125h8v-16h-8v-8h-16v8h-8v16h8v11.078125c-8.988281 4.554687-16.503906 11.554687-21.6875 20.195313l-2.3125 3.878906c-10.054688 16.921875-10.054688 37.988281 0 54.910156v37.9375h-8c-4.417969 0-8 3.582031-8 8v120c0 4.417969 3.582031 8 8 8h464c4.417969 0 8-3.582031 8-8v-120c0-4.417969-3.582031-8-8-8zm-96 16v32h-40v-32zm-40-16v-32h32v32zm31.375-83.496094.921875 1.222656c7.417969 9.925782 8.621094 23.175782 3.109375 34.273438h-.359375c-6.863281-8.488281-10.746094-19-11.046875-29.910156l-.230469-12.648438c2.894531 1.933594 5.460938 4.320313 7.605469 7.0625zm-31.671875 1.222656.921875-1.230468c2.03125-2.601563 4.445312-4.878906 7.160156-6.761719l.214844 12.664063c.242188 10.34375 2.914062 20.480468 7.792969 29.601562h-19.199219c-5.511719-11.097656-4.308594-24.347656 3.109375-34.273438zm-71.832031-110.871093c6.96875 4.003906 13.0625 9.359375 17.929687 15.753906-.671875-.195313-1.320312-.457031-1.992187-.617187-2.027344-.574219-4.09375-1-6.183594-1.273438-15.515625-2.210938-28.757812-12.347656-34.9375-26.75l1.3125-.753906zm-23.871094-102.855469c4.417969 0 8 3.582031 8 8h-16c0-4.417969 3.582031-8 8-8zm13.753906 24-4 16h-19.507812l-4-16zm-23.675781 32h19.84375l6.75 24.3125-12.671875-7.257812c-2.457031-1.402344-5.476562-1.402344-7.9375 0l-12.703125 7.257812zm-13.949219 46.855469 8.589844-4.910157c8.695312 18.703126 26.265625 31.734376 46.6875 34.621094 1.460938.191406 2.898438.488282 4.3125.890625 6.179688 1.503907 11.957031 4.34375 16.929688 8.3125.261718 1.175781.589843 2.335938.800781 3.535157 1.394531 8.28125-.429688 16.78125-5.097657 23.757812l-1.65625 2.488281-2.839843-4.238281c-9.671875-14.4375-25.011719-24.097656-42.207031-26.585938-13.25-1.910156-24.96875-9.59375-32-20.984374-1.761719-2.84375-3.210938-5.871094-4.320313-9.03125 3.300781-3.007813 6.921875-5.640626 10.800781-7.855469zm31.871094 146.367187v-9.222656h-16v9.222656c-6.605469 1.910156-12.292969 6.15625-16 11.945313v-37.167969h48v37.167969c-3.707031-5.789063-9.394531-10.035157-16-11.945313zm5.761719 30.777344h-27.523438l1.601563-6.535156c1.394531-5.5625 6.394531-9.460938 12.128906-9.460938s10.730469 3.898438 12.128906 9.460938zm-40.800781-72-8-16h70.109374l-8 16zm-6.3125 72h-14.648438v-14.632812c6.828125 2.433593 12.199219 7.804687 14.632812 14.632812zm-20.089844-134.695312c1.230468-7.296876 3.792968-14.300782 7.570312-20.664063.640625 1.199219 1.246094 2.4375 1.949219 3.566406 9.519531 15.382813 25.355469 25.761719 43.257813 28.351563 12.625 1.832031 23.898437 8.886718 31.0625 19.441406h-74.117188l-4.625-6.9375c-4.667969-6.976562-6.492188-15.476562-5.097656-23.757812zm-43.199219 67.199218.921875 1.222656c7.421875 9.921876 8.628906 23.171876 3.125 34.273438h-.359375c-6.871094-8.5-10.753906-19.027344-11.046875-29.953125l-.304688-12.65625c2.925782 1.945313 5.519532 4.347656 7.679688 7.113281zm.640625 51.496094v32h-32v-32zm-32.296875-50.273438.921875-1.230468c2.011719-2.574219 4.394531-4.832032 7.070312-6.703125l.304688 12.605469c.242188 10.34375 2.914062 20.480468 7.792969 29.601562h-19.199219c-5.511719-11.097656-4.308594-24.347656 3.109375-34.273438zm-7.703125 98.273438h40v32h-40zm-49.777344-115.199219c3.925782 2.894531 7.246094 6.527344 9.777344 10.695313l2.328125 3.886718c5.234375 8.816407 6.65625 19.382813 3.9375 29.265626-12.230469-11.089844-18.226563-27.484376-16.042969-43.847657zm-24.519531 14.574219 2.296875-3.871094c1.652344-2.707031 3.632812-5.199218 5.902344-7.414062-.871094 17.613281 5.300781 34.851562 17.152344 47.910156h-26.503907c-5.953125-11.589844-5.519531-25.429688 1.152344-36.625zm34.296875 52.625v32h-32v-32zm-8 152h-16v-16c0-4.417969 3.582031-8 8-8s8 3.582031 8 8zm24 0h-8v-16c0-13.253906-10.746094-24-24-24s-24 10.746094-24 24v16h-8v-56h64zm8-72h-72v-32h72zm56 72h-16v-16c0-4.417969 3.582031-8 8-8s8 3.582031 8 8zm32 0h-16v-16c0-13.253906-10.746094-24-24-24s-24 10.746094-24 24v16h-16v-56h80zm0-80v8h-16v-48h16zm0-80v24h-16v-14.304688l30.070312-67.65625 9.929688 19.847657v33.503906c-5.039062-2.230469-10.488281-3.386719-16-3.390625-4.417969 0-8 3.582031-8 8zm80 160h-32v-24c0-8.835938 7.164062-16 16-16s16 7.164062 16 16zm32-64v64h-16v-24c0-17.671875-14.328125-32-32-32s-32 14.328125-32 32v24h-16v-72h96zm0-24h-16v-8c0-4.417969-3.582031-8-8-8s-8 3.582031-8 8v8h-8v-8c0-4.417969-3.582031-8-8-8s-8 3.582031-8 8v8h-8v-8c0-4.417969-3.582031-8-8-8s-8 3.582031-8 8v8h-16v-32h96zm0-48h-14.632812c2.433593-6.828125 7.804687-12.199219 14.632812-14.632812zm8-32c-5.511719.003906-10.960938 1.160156-16 3.390625v-33.503906l9.929688-19.847657 30.070312 67.65625v14.304688h-16v-24c0-4.417969-3.582031-8-8-8zm24 48v48h-16v-48zm32 120h-16v-16c0-4.417969 3.582031-8 8-8s8 3.582031 8 8zm32 0h-16v-16c0-13.253906-10.746094-24-24-24s-24 10.746094-24 24v16h-16v-56h80zm54.175781-219.199219c3.9375 2.890625 7.277344 6.523438 9.824219 10.695313l2.328125 3.886718c5.25 8.835938 6.664063 19.433594 3.910156 29.335938-12.339843-11.058594-18.339843-27.546875-16-43.949219zm-24.472656 14.605469 2.296875-3.902344c1.640625-2.695312 3.613281-5.175781 5.871094-7.375-.0625 1.160156-.222656 2.320313-.222656 3.472656.058593 16.457032 6.28125 32.296876 17.441406 44.398438h-26.539063c-5.953125-11.589844-5.519531-25.429688 1.152344-36.625zm34.296875 52.59375v32h-32v-32zm-8 152h-16v-16c0-4.417969 3.582031-8 8-8s8 3.582031 8 8zm24 0h-8v-16c0-13.253906-10.746094-24-24-24s-24 10.746094-24 24v16h-8v-56h64zm0-72h-72v-32h72zm0 0"/></svg>