<svg height="480pt" viewBox="0 0 480 480.09942" width="480pt" xmlns="http://www.w3.org/2000/svg"><path d="m312.046875 480.097656h160c2.464844 0 4.789063-1.132812 6.304687-3.074218 1.515626-1.941407 2.050782-4.472657 1.457032-6.859376l-8-32c-.890625-3.5625-4.089844-6.0625-7.761719-6.066406h-1.75l-6.488281-25.933594c-.890625-3.5625-4.089844-6.0625-7.761719-6.066406h-1.75l-6.488281-25.933594c-.890625-3.5625-4.089844-6.0625-7.761719-6.066406h-40v-80h30.878906c8.566407.035156 15.835938-6.261718 17.023438-14.746094 1.1875-8.480468-4.074219-16.53125-12.316407-18.851562l-43.585937-12.441406v-17.960938h35.359375c9.625-.011718 17.964844-6.660156 20.121094-16.039062 2.160156-9.375-2.433594-19.003906-11.078125-23.222656-.558594-.269532-1.144531-.472657-1.746094-.609376l-98.65625-22.527343v-17.601563h24c4.417969 0 8-3.578125 8-8 .082031-12.871094-7.226563-24.652344-18.800781-30.292968-.300782-.15625-.617188-.289063-.941406-.394532l-15.761719-5.359375c-20.863281-7.105469-41.257813-15.523437-61.0625-25.199219-.949219-4.414062-3.175781-8.449218-6.402344-11.609374-2.59375-2.605469-5.796875-4.53125-9.320313-5.597657.148438-.503906.246094-1.023437.289063-1.546875v-9.46875c11.019531-3.898437 17.632813-15.167968 15.65625-26.6875-1.976563-11.519531-11.964844-19.941406-23.65625-19.941406-11.6875 0-21.675781 8.421875-23.652344 19.941406-1.976562 11.519532 4.632813 22.789063 15.652344 26.6875v9.46875c.050781.523438.15625 1.039063.3125 1.539063-3.460937 1.03125-6.613281 2.90625-9.175781 5.453125-3.183594 3.089844-5.425782 7.015625-6.464844 11.328125l-22.574219 9.042969c-9.96875 3.933593-18.199219 6.964843-25.960937 9.542968l-36.398438 12.40625c-.320312.113282-.632812.242188-.9375.394532-11.570312 5.640624-18.882812 17.421874-18.800781 30.292968 0 4.421875 3.582031 8 8 8h24v17.738282l-90.800781 22.421874c-.550782.136719-1.085938.328126-1.597656.578126-8.648438 4.21875-13.242188 13.847656-11.082032 23.222656 2.160156 9.378906 10.5 16.027344 20.121094 16.039062h35.359375v17.960938l-43.582031 12.441406c-8.246094 2.320312-13.507813 10.371094-12.320313 18.851562 1.1875 8.484376 8.460938 14.78125 17.023438 14.746094h30.878906v80h-40c-3.671875.003906-6.871094 2.503906-7.757813 6.066406l-6.488281 25.933594h-1.753906c-3.671875.003906-6.871094 2.503906-7.757813 6.066406l-6.488281 25.933594h-1.753906c-3.671875.003906-6.871094 2.503906-7.757813 6.066406l-8 32c-.597656 2.386719-.058593 4.917969 1.457032 6.859376 1.515625 1.941406 3.839844 3.074218 6.300781 3.074218zm-133.75-16 4-16h115.503906l4 16zm-18.25-128h-32c-4.417969 0-8 3.582032-8 8v24h-16v-48h80v48h-16v-24c0-4.417968-3.582031-8-8-8zm-8 16v16h-16v-16zm-48-48v-16h80v16zm176 16v48h-16v-24c0-4.417968-3.582031-8-8-8h-32c-4.417969 0-8 3.582032-8 8v24h-16v-48zm-80-16v-16h80v16zm48 48v16h-16v-16zm-24 32h57.753906l4 16h-91.503906l4-16zm65.753906 32 4 16h-107.503906l4-16zm86.246094-96v48h-16v-24c0-4.417968-3.582031-8-8-8h-32c-4.417969 0-8 3.582032-8 8v24h-16v-48zm-80-16v-16h80v16zm48 48v16h-16v-16zm112 96h1.753906l4 16h-143.503906l-4-16zm-16-32h1.753906l4 16h-135.503906l-4-16zm-14.246094-32 4 16h-127.503906l-4-16zm-193.753906-360c0-4.417968 3.582031-8 8-8s8 3.582032 8 8c0 4.421875-3.582031 8-8 8s-8-3.578125-8-8zm-102.144531 104c1.648437-3.308594 4.300781-6.011718 7.578125-7.726562l35.808593-12.199219c8-2.65625 16.488282-5.785156 26.765626-9.847656l26.96875-10.792969c3.035156-1.21875 5.027343-4.160156 5.023437-7.433594-.003906-2.15625.882813-4.21875 2.449219-5.703125 3.15625-3.039062 8.171875-2.96875 11.246094.152344 1.492187 1.460937 2.328124 3.464844 2.304687 5.550781 0 3.035156 1.710937 5.804688 4.425781 7.160156 21.652344 10.808594 44.007813 20.140626 66.917969 27.9375l15.199219 5.175782c3.277344 1.714844 5.929687 4.417968 7.578125 7.726562h-78.121094v-8c0-4.417968-3.582031-8-8-8h-40c-4.417969 0-8 3.582032-8 8v8zm182.144531 16v16h-16v-16zm-32 0v16h-16v-16zm-32-16v48h-24v-48zm-40 16v16h-16v-16zm-32 0v16h-16v-16zm-115.359375 64c-2.046875-.019531-3.84375-1.371094-4.433594-3.332031-.589844-1.964844.167969-4.082031 1.867188-5.226563l94.902344-23.441406h55.023437v8c0 4.421875 3.582031 8 8 8h40c4.417969 0 8-3.578125 8-8v-8h55.097656l102.878907 23.472656c1.675781 1.160157 2.410156 3.273438 1.8125 5.222657-.597657 1.949219-2.390626 3.285156-4.429688 3.304687zm307.359375 16v16h-32v-16zm-48 0v16h-32v-16zm-48 0v16h-64v-16zm-80 0v16h-32v-16zm-48 0v16h-32v-16zm-86.878906 48c-.550781-.007812-1.015625-.417968-1.089844-.964844-.074219-.546874.257813-1.066406.785156-1.226562l48.304688-13.808594h269.757812l48.320313 13.808594c.53125.160156.867187.6875.785156 1.234375-.078125.550781-.550781.957031-1.105469.957031zm-2.871094 112h127.503906l-4 16h-127.503906zm-16 32h135.503906l-4 16h-135.503906zm123.503906 48h-143.503906l4-16h143.503906zm0 0"/></svg>