<svg height="448pt" viewBox="0 -3 448 447" width="448pt" xmlns="http://www.w3.org/2000/svg"><path d="m128 144.5h-64c-4.417969 0-8 3.582031-8 8v32c0 4.417969 3.582031 8 8 8h64c4.417969 0 8-3.582031 8-8v-32c0-4.417969-3.582031-8-8-8zm-8 32h-48v-16h48zm0 0"/><path d="m384 144.5h-64c-4.417969 0-8 3.582031-8 8v32c0 4.417969 3.582031 8 8 8h64c4.417969 0 8-3.582031 8-8v-32c0-4.417969-3.582031-8-8-8zm-8 32h-48v-16h48zm0 0"/><path d="m438.65625 100.941406c.875-1.316406 1.339844-2.863281 1.34375-4.441406v-48c4.417969 0 8-3.582031 8-8v-32c0-4.417969-3.582031-8-8-8h-432c-4.417969 0-8 3.582031-8 8v32c0 4.417969 3.582031 8 8 8v48c.003906 1.578125.46875 3.125 1.34375 4.441406l14.65625 21.957032v90.289062l-5.65625 5.65625c-1.5 1.5-2.34375 3.535156-2.34375 5.65625v16c0 2.121094.84375 4.15625 2.34375 5.65625l5.65625 5.65625v180.6875c0 4.417969 3.582031 8 8 8h384c4.417969 0 8-3.582031 8-8v-180.6875l5.65625-5.65625c1.5-1.5 2.34375-3.535156 2.34375-5.65625v-16c0-2.121094-.84375-4.15625-2.34375-5.65625l-5.65625-5.65625v-90.289062zm-14.65625-36.441406h-16v-16h16zm-408-32v-16h416v16zm376 16v16h-16v-16zm-32 0v16h-16v-16zm-32 0v16h-16v-16zm-32 0v16h-16v-16zm-32 0v16h-16v-16zm-32 0v16h-16v-16zm-32 0v16h-16v-16zm-32 0v16h-16v-16zm-32 0v16h-16v-16zm-32 0v16h-16v-16zm-32 0v16h-16v-16zm-32 0v16h-16v-16zm24 376h-24v-32h24zm48 0h-32v-48h32zm0-64h-32v-56c0-8.835938 7.164062-16 16-16s16 7.164062 16 16zm40 64h-24v-32h24zm0-48h-24v-72c0-17.671875-14.328125-32-32-32s-32 14.328125-32 32v72h-24v-120h112zm8-142.878906v3.566406l-3.3125 3.3125h-121.375l-3.3125-3.3125v-9.375l3.3125-3.3125h121.375l3.3125 3.3125zm-120-25.121094v-80h112v80zm240 216h-112v-172.6875l5.65625-5.65625c1.5-1.5 2.34375-3.535156 2.34375-5.65625v-4.800781c8.859375-14.796875 24.046875-24.6875 41.164062-26.808594 17.117188-2.121094 34.257813 3.761719 46.460938 15.953125 3.242188 3.246094 6.058594 6.894531 8.375 10.855469v4.800781c0 2.121094.84375 4.15625 2.34375 5.65625l5.65625 5.65625zm-111.839844-211.152344c1.625-29.652344 26.144532-52.863281 55.84375-52.863281 29.699219 0 54.21875 23.210937 55.84375 52.863281l-2.734375 2.738282c-.800781-.800782-1.402343-1.746094-2.203125-2.539063-13.902344-13.894531-32.890625-21.484375-52.542968-21.003906-19.648438.476562-38.246094 8.984375-51.457032 23.542969zm111.839844-42.105468c-1.597656-1.984376-3.296875-3.890626-5.089844-5.703126-14.457031-14.421874-34.355468-22.023437-54.746094-20.917968-20.390624 1.105468-39.351562 10.820312-52.164062 26.71875v-42.839844h112zm40 253.257812h-24v-32h24zm48 0h-32v-48h32zm0-64h-32v-56c0-8.835938 7.164062-16 16-16s16 7.164062 16 16zm40 64h-24v-32h24zm0-48h-24v-72c0-17.671875-14.328125-32-32-32s-32 14.328125-32 32v72h-24v-120h112zm8-139.3125-3.3125 3.3125h-121.375l-3.3125-3.3125v-9.375l3.3125-3.3125h121.375l3.3125 3.3125zm-120-28.6875v-80h112v80zm115.71875-96h-375.4375l-12.28125-18.398438v-13.601562h400v13.601562zm0 0"/></svg>