<svg height="480pt" viewBox="0 0 480 480" width="480pt" xmlns="http://www.w3.org/2000/svg"><path d="m472 368h-24v-24c0-4.417969-3.582031-8-8-8h-16v-24c0-4.417969-3.582031-8-8-8h-8v-128h16c3.910156 0 7.246094-2.832031 7.886719-6.6875l8-48c.386719-2.320312-.265625-4.691406-1.785157-6.484375-1.519531-1.792969-3.75-2.828125-6.101562-2.828125h-72v-24c0-4.417969-3.582031-8-8-8h-104v-16h56c4.417969 0 8-3.582031 8-8v-48c0-4.417969-3.582031-8-8-8h-64c-4.417969 0-8 3.582031-8 8v72h-104c-4.417969 0-8 3.582031-8 8v24h-72c-2.351562 0-4.582031 1.035156-6.101562 2.828125-1.519532 1.792969-2.171876 4.164063-1.785157 6.484375l8 48c.640625 3.855469 3.976563 6.6875 7.886719 6.6875h16v128h-8c-4.417969 0-8 3.582031-8 8v24h-16c-4.417969 0-8 3.582031-8 8v24h-24c-4.417969 0-8 3.582031-8 8v96c0 4.417969 3.582031 8 8 8h464c4.417969 0 8-3.582031 8-8v-96c0-4.417969-3.582031-8-8-8zm-224-352h48v32h-48zm0 80h96v16h-96zm0 32h174.550781l-5.328125 32h-169.222656zm144 48v128h-48v-128zm-64 0v128h-48v-128zm-80 0h16v128h-16zm0 144h160v16h-160zm0 32h184v16h-184zm-112-256h96v16h-96zm-73.222656 64-5.328125-32h174.550781v32zm169.222656 16v128h-16v-128zm-32 0v128h-48v-128zm-64 0v128h-48v-128zm-64 144h160v16h-160zm-24 32h184v16h-184zm112 56v56h-144v-80h216v16h-64c-4.417969 0-8 3.582031-8 8zm48 32v24h-32v-48h56v16h-16c-4.417969 0-8 3.582031-8 8zm48 24h-32v-16h32zm48 0h-32v-24c0-4.417969-3.582031-8-8-8h-16v-16h56zm160 0h-144v-56c0-4.417969-3.582031-8-8-8h-64v-16h216zm0 0"/><path d="m280 32c0 4.417969-3.582031 8-8 8s-8-3.582031-8-8 3.582031-8 8-8 8 3.582031 8 8zm0 0"/></svg>