<svg height="480pt" viewBox="0 0 480 480" width="480pt" xmlns="http://www.w3.org/2000/svg"><path d="m72 320h16v16h-16zm0 0"/><path d="m40 320h16v16h-16zm0 0"/><path d="m424 320h16v16h-16zm0 0"/><path d="m392 320h16v16h-16zm0 0"/><path d="m472 368v-72c-.023438-19-13.386719-35.371094-32-39.199219v-16.800781c0-4.417969-3.582031-8-8-8h-32c-4.417969 0-8 3.582031-8 8v16.800781c-9.527344 1.992188-18 7.398438-23.824219 15.199219-.0625 0-.113281 0-.175781 0h-40v-72c0-4.417969-3.582031-8-8-8h-8v-24c0-4.417969-3.582031-8-8-8h-.9375l-1.175781-9.359375c-2.800781-22.179687-17.253907-41.164063-37.886719-49.769531v-28.871094c0-4.417969-3.582031-8-8-8h-8v-16h40c4.417969 0 8-3.582031 8-8v-32c0-4.417969-3.582031-8-8-8h-48c-4.417969 0-8 3.582031-8 8v56h-8c-4.417969 0-8 3.582031-8 8v28.871094c-20.632812 8.605468-35.085938 27.589844-37.886719 49.769531l-1.175781 9.359375h-.9375c-4.417969 0-8 3.582031-8 8v24h-8c-4.417969 0-8 3.582031-8 8v72h-40c-.0625 0-.113281 0-.175781 0-5.824219-7.800781-14.296875-13.207031-23.824219-15.199219v-16.800781c0-4.417969-3.582031-8-8-8h-32c-4.417969 0-8 3.582031-8 8v16.800781c-18.613281 3.828125-31.976562 20.199219-32 39.199219v72c-4.417969 0-8 3.582031-8 8v96c0 4.417969 3.582031 8 8 8h464c4.417969 0 8-3.582031 8-8v-96c0-4.417969-3.582031-8-8-8zm-224-344v-8h32v16h-32zm160 224h16v8h-16zm-8 24h32c10.167969.011719 19.230469 6.417969 22.632812 16h-77.265624c3.402343-9.582031 12.464843-15.988281 22.632812-16zm-24 56v-24h80v64h-16v-16h-16v16h-16v-16h-16v16h-16zm-48-40h32v32h-32zm0 48h32v32h-32zm-24-128h8v32h-16v-32zm-22.457031 48h30.457031v12.183594zm30.457031 32v32h-16v-32zm-16-96h-16v-16h16zm-9.984375-39.375.921875 7.375h-19.203125c-.878906-15.140625-4.136719-30.046875-9.65625-44.175781 15.203125 6.417969 25.84375 20.433593 27.9375 36.800781zm-84.480469 119.375 38.464844-15.382812 38.464844 15.382812zm46.464844 16v32h-16v-32zm-32 0v32h-16v-32zm-16-48v-32h16v32zm32 0v-32h16v32zm32 48h16v32h-16zm0-48v-32h16v32zm0-64v16h-16v-16zm-32-96h16v16h-16zm8 34.398438c6.628906 14.359374 10.535156 29.820312 11.527344 45.601562h-23.046875c.992187-15.78125 4.898437-31.242188 11.519531-45.601562zm-8 61.601562v16h-16v-16zm-38.015625-23.375c2.089844-16.359375 12.722656-30.375 27.910156-36.800781-5.515625 14.128906-8.773437 29.035156-9.65625 44.175781h-19.199219zm-9.984375 23.375h16v16h-16zm-16 32h16v32h-16zm0 48h30.457031l-30.457031 12.183594zm0 32h16v32h-16zm0 48h144v32h-32v-16h-16v16h-16v-16h-16v16h-16v-16h-16v16h-32zm136 72v8h-128v-8zm-120-16v-8h112v8zm128 40v8h-144v-8zm-192-136v-8h32v32h-32zm0 40h32v32h-32zm-64-88h16v8h-16zm-8 24h32c10.167969.011719 19.230469 6.417969 22.632812 16h-77.265624c3.402343-9.582031 12.464843-15.988281 22.632812-16zm-24 32h80v64h-16v-16h-16v16h-16v-16h-16v16h-16zm74.664062 160h-82.664062v-48h48v-16h-48v-16h116zm53.335938-40v16c-4.417969 0-8 3.582031-8 8v16h-28l33.335938-80h18.664062v8c-4.417969 0-8 3.582031-8 8v16c-4.417969 0-8 3.582031-8 8zm168 40h-160v-8h160zm16 0v-16c0-4.417969-3.582031-8-8-8v-16c0-4.417969-3.582031-8-8-8v-16c0-4.417969-3.582031-8-8-8v-8h18.664062l33.335938 80zm128-64h-88v16h88v48h-82.664062l-33.335938-80h116zm0 0"/><path d="m80 400h16v16h-16zm0 0"/></svg>