<svg height="480pt" viewBox="0 -7 480.01209 480" width="480pt" xmlns="http://www.w3.org/2000/svg"><path d="m474.402344 426.714844-10.398438-3.289063v-21.089843h8c2.507813.003906 4.871094-1.175782 6.382813-3.175782 1.515625-2.003906 2-4.601562 1.3125-7.015625l-16-56c-.976563-3.441406-4.121094-5.816406-7.695313-5.816406-3.578125 0-6.722656 2.375-7.699218 5.816406l-16 56c-.6875 2.414063-.203126 5.011719 1.3125 7.015625 1.511718 2 3.875 3.179688 6.386718 3.175782h8v16.042968l-120-37.898437v-50.144531c2.222656.015624 4.347656-.910157 5.859375-2.542969 1.507813-1.632813 2.261719-3.824219 2.074219-6.039063l45.121094 54.953125c.726562.863281 1.628906 1.5625 2.648437 2.054688.917969.265625 1.832031.535156 2.75.800781.257813 0 .519531.039062.800781.039062 1.847657-.003906 3.640626-.648437 5.074219-1.816406l37.09375-30.464844c3.410157-2.804687 3.898438-7.84375 1.097657-11.253906l-96.472657-117.457031c-2.804687-3.410156-7.84375-3.90625-11.257812-1.105469l-10.789063 8.832032v-48c-.054687-9.785157-3.476562-19.257813-9.699218-26.8125l122.074218-100.25c1.601563-1.304688 2.621094-3.191407 2.839844-5.246094 0-.058594 0-.097656 0-.152344.207031-2.113281-.433594-4.21875-1.777344-5.855469l-30.421875-37.097656c-2.808593-3.410156-7.847656-3.898437-11.257812-1.097656l-117.472657 96.457031c-3.410156 2.804688-3.90625 7.84375-1.101562 11.257812l25.382812 30.910157-.679687.558593c-1.785156-.996093-3.640625-1.863281-5.550781-2.589843-25.808594-9.648438-54.0625-10.585938-80.449219-2.671875l-8.464844-10.304688-96.480469-117.503906c-2.804687-3.410156-7.839843-3.90625-11.253906-1.105469l-37.097656 30.480469c-3.410156 2.808594-3.898438 7.84375-1.09375 11.257812l96.453125 117.472657c2.804687 3.410156 7.84375 3.90625 11.257813 1.101562l26.464843-21.726562c-9.875 8.085937-15.621093 20.15625-15.671875 32.917969v57.363281c0 1.765625-.050781 3.589843-.121094 5.503906l-112.257812 92.175781c-3.410156 2.804688-3.90625 7.839844-1.101562 11.253906l30.460937 37.105469c1.347656 1.636719 3.292969 2.671875 5.402344 2.878907.253906 0 .519531.039062.800781.039062 1.847656 0 3.640625-.644531 5.070312-1.824219l55.746094-45.78125v43.429688l-120 37.898437v-8.042968h8c2.507813.003906 4.871094-1.175782 6.382813-3.175782 1.515625-2.003906 2-4.601562 1.3125-7.015625l-16-56c-.976563-3.441406-4.121094-5.816406-7.695313-5.816406-3.578125 0-6.722656 2.375-7.699218 5.816406l-16 56c-.6875 2.414063-.203126 5.011719 1.3125 7.015625 1.511718 2 3.875 3.179688 6.386718 3.175782h8v13.089843l-10.402344 3.289063c-3.328124 1.046875-5.59765575 4.132812-5.59765575 7.621094v24c0 4.421874 3.57812475 8 7.99999975 8h464c4.417969 0 8-3.578126 8-8v-24c-.003906-3.488282-2.273437-6.574219-5.601562-7.621094zm-321.160156-277.007813-86.3125-105.105469 24.738281-20.3125 86.300781 105.105469zm-129.238282 225.75 5.390625 18.878907h-10.785156zm128 74.878907h-16v-32h-16v32h-16v-24h-16v24h-16v-16h-16v16h-40v-10.140626l136-42.9375zm304-82.878907 5.390625 18.878907h-10.785156zm-173.378906-261.917969 105.105469-86.28125 20.3125 24.726563-81.167969 66.65625-23.9375 19.695313zm13.457031 133.902344-4.207031 3.449219-11.777344-14.335937c-.039062-1.601563-.09375-3.199219-.09375-4.800782v-37.417968h16v49.363281c0 1.277343.046875 2.488281.078125 3.742187zm-6.152343-77.761718c2.125 2.5625 3.75 5.5 4.800781 8.65625h-15.34375zm-14.015626-9.191407-21.734374 17.847657h-21.890626l-17.230468-20.980469c20.175781-4.703125 41.269531-3.613281 60.855468 3.132812zm-11.910156 33.847657v22.617187l-12.746094-15.519531 8.648438-7.097656zm-35.257812 4.890624-12.742188 10.464844v-15.355468h8.726563zm-12.742188 32.550782v-1.390625l22.894532-18.800781 25.421874 30.96875c.867188 27.027343 5.164063 53.835937 12.792969 79.78125h-74.222656c2.3125-7.855469 4.28125-15.894532 5.984375-24l4.800781-4c3.410157-2.800782 3.902344-7.839844 1.101563-11.253907l-2.550782-3.105469c2.484376-15.945312 3.75-32.058593 3.777344-48.199218zm-17.25-69.078125 12.839844 15.636719h-26.351562c2.226562-6.8125 7.09375-12.445313 13.511718-15.636719zm-10.625-12.9375.265625.320312c-1.238281.734375-2.4375 1.535157-3.59375 2.398438zm-4.125 44.574219h16v28.488281l-16 13.113281zm15.75 49.386718c-.246094 6.480469-.800781 12.910156-1.433594 19.3125l-8.886718-10.832031zm-107.480468 129.679688-20.269532-24.738282 41.75-34.285156 63.351563-52 20.3125 24.734375zm95.847656-58.015625c-.664063 2.335937-1.359375 4.648437-2.070313 6.949219h-6.402343zm10.351562 142.949219c8.558594-14.847657 24.390625-24 41.53125-24 17.136719 0 32.96875 9.152343 41.527344 24zm113.53125 0h-12.921875c-9.664062-24.15625-33.0625-39.996094-59.078125-39.996094-26.019531 0-49.417968 15.839844-59.082031 39.996094h-12.917969v-56h144zm-80-72v-16h16v16zm80 0h-48v-24c0-4.417969-3.582031-8-8-8h-32c-4.421875 0-8 3.582031-8 8v24h-48v-48h144zm-18.007812-64c-5.96875-19.042969-10.046875-38.628907-12.171875-58.46875l19.875 24.199218c3.082031 11.828125 7.367187 23.3125 12.789062 34.269532zm8-59.078126 24.734375-20.3125 86.34375 105.113282-24.726563 20.3125-53.296875-64.898438zm162.007812 195.078126h-40v-16h-16v16h-16v-24h-16v24h-16v-32h-16v32h-16v-53.078126l136 42.9375zm0 0"/><path d="m280.003906 346.335938h16v16h-16zm0 0"/><path d="m184.003906 346.335938h16v16h-16zm0 0"/><path d="m232.003906 266.335938h16v32h-16zm0 0"/><path d="m40.003906 274.335938h48c11.839844.007812 21.914063-8.625 23.726563-20.328126 1.808593-11.699218-5.183594-22.976562-16.472657-26.550781-3.222656-14.679687-16.226562-25.140625-31.253906-25.140625-15.03125 0-28.035156 10.460938-31.257812 25.140625-11.289063 3.574219-18.28125 14.851563-16.472656 26.550781 1.8125 11.703126 11.886718 20.335938 23.730468 20.328126zm0-32c4.417969 0 8-3.578126 8-8 0-8.835938 7.160156-16 16-16 8.835938 0 16 7.164062 16 16 0 4.421874 3.578125 8 8 8 4.417969 0 8 3.582031 8 8 0 4.421874-3.582031 8-8 8h-48c-4.421875 0-8-3.578126-8-8 0-4.417969 3.578125-8 8-8zm0 0"/><path d="m463.257812 187.457031c-3.25-14.660156-16.242187-25.097656-31.253906-25.121093-6.125.023437-12.113281 1.816406-17.242187 5.167968-2.246094-1.765625-4.785157-3.121094-7.503907-4-3.222656-14.679687-16.226562-25.136718-31.253906-25.136718-15.03125 0-28.035156 10.457031-31.257812 25.136718-11.210938 3.632813-18.125 14.863282-16.320313 26.507813 1.800781 11.644531 11.792969 20.257812 23.578125 20.324219h32c0 13.257812 10.742188 24 24 24h48c11.839844.007812 21.914063-8.625 23.726563-20.328126 1.808593-11.699218-5.183594-22.976562-16.472657-26.550781zm-73.039062 6.878907h-38.214844c-4.421875 0-8-3.578126-8-8 0-4.417969 3.578125-8 8-8 4.417969 0 8-3.578126 8-8 0-8.835938 7.160156-16 16-16 8.835938 0 16 7.164062 16 16 0 4.421874 3.578125 8 8 8 1.34375.015624 2.664063.371093 3.832032 1.042968-1.394532 2.539063-2.433594 5.257813-3.089844 8.078125-4.058594 1.316407-7.691406 3.691407-10.527344 6.878907zm65.785156 24h-48c-4.421875 0-8-3.578126-8-8 0-4.417969 3.578125-8 8-8 4.417969 0 8-3.578126 8-8 .007813-4.050782 1.5625-7.949219 4.351563-10.894532 4.464843-4.816406 11.429687-6.402344 17.542969-3.992187 6.113281 2.40625 10.125 8.316406 10.105468 14.886719 0 4.421874 3.578125 8 8 8 4.417969 0 8 3.582031 8 8 0 4.421874-3.582031 8-8 8zm0 0"/></svg>